SplineFontDB: 3.2
FontName: D-DIN-PRO-Exp-Medium
FullName: D-DIN-PRO-Exp-Medium
FamilyName: D-DIN-PRO-Exp
Weight: Medium
Copyright: Copyright (c) CyberFei. All rights reserved
Version: 1.1.0
ItalicAngle: 0
UnderlinePosition: -150
UnderlineWidth: 50
Ascent: 831
Descent: 169
InvalidEm: 0
sfntRevision: 0x00010000
LayerCount: 2
Layer: 0 0 "Back" 1
Layer: 1 0 "Fore" 0
XUID: [1021 868 -1451673819 23714]
StyleMap: 0x0040
FSType: 4
OS2Version: 4
OS2_WeightWidthSlopeOnly: 1
OS2_UseTypoMetrics: 0
CreationTime: 1462909513
ModificationTime: 1778060078
PfmFamily: 17
TTFWeight: 500
TTFWidth: 7
LineGap: 0
VLineGap: 0
Panose: 2 11 5 4 2 2 2 3 2 4
OS2TypoAscent: 831
OS2TypoAOffset: 0
OS2TypoDescent: -169
OS2TypoDOffset: 0
OS2TypoLinegap: 86
OS2WinAscent: 902
OS2WinAOffset: 0
OS2WinDescent: 184
OS2WinDOffset: 0
HheadAscent: 902
HheadAOffset: 0
HheadDescent: -184
HheadDOffset: 0
OS2SubXSize: 650
OS2SubYSize: 600
OS2SubXOff: 0
OS2SubYOff: 75
OS2SupXSize: 650
OS2SupYSize: 600
OS2SupXOff: 0
OS2SupYOff: 350
OS2StrikeYSize: 50
OS2StrikeYPos: 307
OS2CapHeight: 690
OS2XHeight: 512
OS2Vendor: 'MONO'
OS2CodePages: 00000001.00000000
OS2UnicodeRanges: 8000006f.4000000a.00000000.00000000
Lookup: 1 0 0 "'rtla' Right to Left Alternates lookup 0" { "'rtla' Right to Left Alternates lookup 0 subtable"  } ['rtla' ('DFLT' <'dflt' > ) ]
Lookup: 1 0 0 "'sups' Superscript lookup 1" { "'sups' Superscript lookup 1 subtable" ("superior") } ['sups' ('DFLT' <'dflt' > ) ]
Lookup: 4 0 0 "'frac' Diagonal Fractions lookup 2" { "'frac' Diagonal Fractions lookup 2 subtable"  } ['frac' ('DFLT' <'dflt' > ) ]
Lookup: 258 0 0 "'kern' Horizontal Kerning in Latin lookup 0" { "'kern' Horizontal Kerning in Latin lookup 0 subtable"  } ['kern' ('DFLT' <'dflt' > 'latn' <'dflt' > ) ]
Lookup: 258 0 0 "Pairwise Positioning (kerning) lookup 1" { "Pairwise Positioning (kerning) lookup 1 subtable"  } []
Lookup: 258 0 0 "Pairwise Positioning (kerning) lookup 2" { "Pairwise Positioning (kerning) lookup 2 subtable"  } []

StartChar: .notdef
Encoding: 65536 -1 0
Width: 601
GlyphClass: 1
Flags: MW
HStem: -0.120117 48.0205<150.337 458.057 150.337 506.077 102.317 458.057> 642.76 48.0205<150.337 458.057 150.337 150.337>
VStem: 102.317 48.0195<47.9004 47.9004 47.9004 642.76> 458.057 48.0205<47.9004 642.76 642.76 642.76>
LayerCount: 2
Fore
SplineSet
102.317382812 690.780273438 m 1
 506.077148438 690.780273438 l 1
 506.077148438 -0.1201171875 l 1
 102.317382812 -0.1201171875 l 1
 102.317382812 690.780273438 l 1
150.336914062 47.900390625 m 1
 458.056640625 47.900390625 l 1
 458.056640625 642.759765625 l 1
 150.336914062 642.759765625 l 1
 150.336914062 47.900390625 l 1
EndSplineSet
EndChar

StartChar: exclam
Encoding: 33 33 4
Width: 245
GlyphClass: 2
Flags: MW
HStem: -0.120117 116.62<70.957 184.637 70.957 184.637> 670.78 20G<70.6787 184.899 184.899 184.899>
VStem: 70.957 113.68<-0.120117 116.5 -0.120117 116.5> 88.8652 78.8584<201.76 201.76>
LayerCount: 2
Fore
SplineSet
70.6787109375 690.780273438 m 1xd0
 184.899414062 690.780273438 l 1
 167.723632812 201.759765625 l 1
 88.865234375 201.759765625 l 1
 70.6787109375 690.780273438 l 1xd0
70.95703125 116.5 m 1xe0
 184.63671875 116.5 l 1
 184.63671875 -0.1201171875 l 1
 70.95703125 -0.1201171875 l 1
 70.95703125 116.5 l 1xe0
EndSplineSet
EndChar

StartChar: quotedbl
Encoding: 34 34 5
Width: 342
GlyphClass: 2
Flags: MW
HStem: 430.1 260.681<50.377 144.457 50.377 144.457 50.377 207.177 207.177 302.237>
VStem: 50.377 94.0801<430.1 690.78 430.1 690.78> 207.177 95.0605<430.1 690.78 430.1 690.78>
LayerCount: 2
Fore
SplineSet
50.376953125 690.780273438 m 1
 144.45703125 690.780273438 l 1
 144.45703125 430.099609375 l 1
 50.376953125 430.099609375 l 1
 50.376953125 690.780273438 l 1
207.176757812 690.780273438 m 1
 302.237304688 690.780273438 l 1
 302.237304688 430.099609375 l 1
 207.176757812 430.099609375 l 1
 207.176757812 690.780273438 l 1
EndSplineSet
EndChar

StartChar: numbersign
Encoding: 35 35 6
Width: 586
GlyphClass: 2
Flags: MW
HStem: -0.120117 21G<108.162 194.526 108.162 108.162 305.142 391.507 305.142 305.142> 211.56 80.3604<25.877 135.602 25.877 146.32 232.684 332.582 25.877 221.967 428.684 544.297> 414.42 79.3799<49.3965 162.07 49.3965 172.786 49.3965 248.434 258.17 359.051 454.17 568.797> 670.78 20G<198.266 283.649 283.649 283.649 394.266 479.649 479.649 479.649>
LayerCount: 2
Fore
SplineSet
568.796875 493.799804688 m 1
 568.796875 414.419921875 l 1
 444.43359375 414.419921875 l 1
 428.68359375 291.919921875 l 1
 544.296875 291.919921875 l 1
 544.296875 211.559570312 l 1
 418.946289062 211.559570312 l 1
 391.506835938 -0.1201171875 l 1
 305.141601562 -0.1201171875 l 1
 332.58203125 211.559570312 l 1
 221.966796875 211.559570312 l 1
 194.526367188 -0.1201171875 l 1
 108.162109375 -0.1201171875 l 1
 135.6015625 211.559570312 l 1
 25.876953125 211.559570312 l 1
 25.876953125 291.919921875 l 1
 146.3203125 291.919921875 l 1
 162.0703125 414.419921875 l 1
 49.396484375 414.419921875 l 1
 49.396484375 493.799804688 l 1
 172.786132812 493.799804688 l 1
 198.265625 690.780273438 l 1
 283.649414062 690.780273438 l 1
 258.169921875 493.799804688 l 1
 368.786132812 493.799804688 l 1
 394.265625 690.780273438 l 1
 479.649414062 690.780273438 l 1
 454.169921875 493.799804688 l 1
 568.796875 493.799804688 l 1
343.30078125 291.919921875 m 1
 359.05078125 414.419921875 l 1
 248.43359375 414.419921875 l 1
 232.68359375 291.919921875 l 1
 343.30078125 291.919921875 l 1
EndSplineSet
EndChar

StartChar: dollar
Encoding: 36 36 7
Width: 522
GlyphClass: 2
Flags: MW
HStem: 27.9385 90.7871<219.917 219.917> 571.964 88.6826<219.917 219.917>
VStem: 46.457 98.9795<468.961 506.832> 219.917 80.3604<-57.9404 27.9385 27.9385 27.9385 118.726 296.094 407.498 571.93 661.682 740.76> 387.497 98.9795<187.272 221.859>
LayerCount: 2
Fore
SplineSet
300.27734375 392.716796875 m 1
 335.092773438 386.9140625 398.720703125 376.30859375 443.131835938 332.426757812 c 0
 472.248046875 303.65625 486.4765625 263.743164062 486.4765625 214.008789062 c 0
 486.4765625 160.171875 469.47265625 116.44921875 435.159179688 84.1943359375 c 0
 402.255859375 53.265625 357.03515625 35.0546875 300.27734375 28.984375 c 1
 300.27734375 -57.9404296875 l 1
 219.916992188 -57.9404296875 l 1
 219.916992188 27.9384765625 l 1
 159.779296875 33.8115234375 42.9287109375 60.107421875 33.7294921875 216.512695312 c 2
 33.271484375 224.299804688 l 1
 129.059570312 224.299804688 l 1
 133.611328125 178.76953125 144.405273438 132.176757812 219.916992188 118.725585938 c 1
 219.916992188 310.8828125 l 1
 185.426757812 317.78125 130.510742188 328.764648438 89.93359375 366.92578125 c 0
 60.73046875 394.390625 46.45703125 433.081054688 46.45703125 481.549804688 c 0
 46.45703125 532.114257812 62.2958984375 573.931640625 94.1806640625 605.81640625 c 0
 124.783203125 636.418945312 166.983398438 654.526367188 219.916992188 660.646484375 c 1
 219.916992188 740.759765625 l 1
 300.27734375 740.759765625 l 1
 300.27734375 661.681640625 l 1
 368.096679688 654.376953125 467.1171875 620.046875 475.682617188 482.993164062 c 2
 476.170898438 475.178710938 l 1
 380.28125 475.178710938 l 1
 377.251953125 509.241210938 370.471679688 559.047851562 300.27734375 571.9296875 c 1
 300.27734375 392.716796875 l 1
145.436523438 488.409179688 m 0
 145.436523438 449.513671875 161.486328125 422.21484375 219.916992188 407.498046875 c 1
 219.916992188 571.963867188 l 1
 168.849609375 562.930664062 145.436523438 535.735351562 145.436523438 488.409179688 c 0
300.27734375 117.390625 m 1
 370.555664062 126.83984375 387.497070312 166.416015625 387.497070312 208.12890625 c 0
 387.497070312 235.58984375 380.08984375 254.806640625 366.36328125 267.389648438 c 0
 353.487304688 279.192382812 331.537109375 289.086914062 300.27734375 296.09375 c 1
 300.27734375 117.390625 l 1
EndSplineSet
EndChar

StartChar: percent
Encoding: 37 37 8
Width: 914
GlyphClass: 2
Flags: MW
HStem: -6 80.3594<712.606 743.11 712.606 794.213> 260.56 80.3604<176.026 207.536 176.026 257.694> 349.739 80.3604<711.879 743.797> 617.28 80.3594<177.134 206.525>
VStem: 44.4971 90.1611<428.63 433.53 433.53 526.63> 248.337 91.1396<433.53 526.63 526.63 534.47> 580.557 90.1611<162.07 165.989 165.989 259.089> 784.397 91.1396<165.989 259.089 259.089 266.93>
LayerCount: 2
Fore
SplineSet
191.006835938 260.559570312 m 0
 136.21875 260.559570312 44.4970703125 278.635742188 44.4970703125 428.629882812 c 2
 44.4970703125 534.469726562 l 2
 44.4970703125 602.174804688 66.7080078125 697.639648438 191.987304688 697.639648438 c 0
 271.209960938 697.639648438 339.4765625 660.9453125 339.4765625 534.469726562 c 2
 339.4765625 428.629882812 l 2
 339.4765625 367.236328125 324.381835938 260.559570312 191.006835938 260.559570312 c 0
692.46484375 692.740234375 m 1
 310.991210938 -0.1201171875 l 1
 222.685546875 -0.1201171875 l 1
 603.157226562 692.740234375 l 1
 692.46484375 692.740234375 l 1
191.987304688 340.919921875 m 0
 223.083984375 340.919921875 248.336914062 353.221679688 248.336914062 433.530273438 c 2
 248.336914062 526.629882812 l 2
 248.336914062 606.825195312 221.063476562 617.280273438 191.987304688 617.280273438 c 0
 162.28125 617.280273438 134.658203125 605.83203125 134.658203125 526.629882812 c 2
 134.658203125 433.530273438 l 2
 134.658203125 354.455078125 160.065429688 340.919921875 191.987304688 340.919921875 c 0
727.067382812 -6 m 0
 648.173828125 -6 580.556640625 31.955078125 580.556640625 162.0703125 c 2
 580.556640625 266.928710938 l 2
 580.556640625 318.744140625 591.05078125 430.099609375 728.046875 430.099609375 c 0
 807.26953125 430.099609375 875.537109375 393.405273438 875.537109375 266.9296875 c 2
 875.537109375 162.0703125 l 2
 875.537109375 100.784179688 861.358398438 -6 727.067382812 -6 c 0
728.046875 74.359375 m 0
 758.173828125 74.359375 784.397460938 85.765625 784.397460938 165.989257812 c 2
 784.397460938 259.088867188 l 2
 784.397460938 337.318359375 759.545898438 349.739257812 728.047851562 349.739257812 c 0
 695.709960938 349.739257812 670.717773438 336.094726562 670.717773438 259.088867188 c 2
 670.717773438 165.989257812 l 2
 670.717773438 86.9072265625 697.166015625 74.359375 728.046875 74.359375 c 0
EndSplineSet
EndChar

StartChar: ampersand
Encoding: 38 38 9
Width: 663
GlyphClass: 2
Flags: MW
HStem: -10.8994 90.1602<245.235 287.018 245.235 301.657> -0.119141 91.1387<551.035 616.817 589.867 616.817 589.867 616.817> 617.281 84.2793<273.762 296.41>
VStem: 54.2959 97.0205<166.498 200.256 166.498 220.794> 115.056 97.0205<531.279 556.221 531.279 591.235> 358.096 96.041<519.765 555.595>
LayerCount: 2
Fore
SplineSet
454.13671875 543.291015625 m 0xac
 454.13671875 477.866210938 422.311523438 428.27734375 327.501953125 365.094726562 c 1
 452.749023438 214.618164062 l 1
 540.125 316.556640625 l 1
 607.041992188 257.856445312 l 1
 510.30078125 145.3203125 l 1
 529.780273438 121.782226562 l 2
 551.71875 97.294921875 566.604492188 91.01953125 589.8671875 91.01953125 c 2
 616.817382812 91.01953125 l 1
 616.817382812 -0.119140625 l 1
 576.146484375 -0.119140625 l 2x6c
 525.923828125 -0.119140625 497.458984375 14.3212890625 459.803710938 57.353515625 c 2
 446.385742188 73.5966796875 l 1
 402.431640625 28.4990234375 345.66796875 -10.8994140625 257.646484375 -10.8994140625 c 0
 215.52734375 -10.8994140625 178.98046875 -2.703125 148.298828125 14.0009765625 c 0
 113.982421875 32.6845703125 54.2958984375 79.451171875 54.2958984375 178.731445312 c 0xb4
 54.2958984375 262.856445312 103.581054688 327.015625 189.994140625 384.287109375 c 1
 135.676757812 452.400390625 115.055664062 496.59375 115.055664062 544.270507812 c 0
 115.055664062 638.19921875 188.931640625 701.560546875 285.0859375 701.560546875 c 0
 334.254882812 701.560546875 375.15625 686.94921875 406.723632812 657.440429688 c 0
 438.305664062 627.918945312 454.13671875 589.455078125 454.13671875 543.291015625 c 0xac
212.076171875 545.250976562 m 0
 212.076171875 517.307617188 222.834960938 492.830078125 270.208984375 433.265625 c 2
 270.823242188 432.528320312 l 1
 324.401367188 468.247070312 358.095703125 495.258789062 358.095703125 544.270507812 c 0
 358.095703125 566.918945312 351.365234375 584.219726562 338.200195312 597.384765625 c 0
 325.034179688 610.549804688 307.734375 617.28125 285.0859375 617.28125 c 0
 262.4375 617.28125 245.137695312 610.549804688 231.97265625 597.384765625 c 0
 218.763671875 584.176757812 212.076171875 567.19140625 212.076171875 545.250976562 c 0
245.4453125 315.93359375 m 1
 167.293945312 262.810546875 151.31640625 218.841796875 151.31640625 181.670898438 c 0
 151.31640625 151.325195312 161.036132812 127.16015625 180.48046875 108.018554688 c 0
 199.688476562 89.1103515625 226.943359375 79.2607421875 263.526367188 79.2607421875 c 0xb4
 310.508789062 79.2607421875 347.405273438 98.392578125 389.895507812 141.852539062 c 1
 245.4453125 315.93359375 l 1
EndSplineSet
EndChar

StartChar: quotesingle
Encoding: 39 39 10
Width: 185
GlyphClass: 2
Flags: MW
HStem: 430.1 260.681<50.377 144.457 50.377 144.457>
VStem: 50.377 94.0801<430.1 690.78 430.1 690.78>
LayerCount: 2
Fore
SplineSet
50.376953125 690.780273438 m 1
 144.45703125 690.780273438 l 1
 144.45703125 430.099609375 l 1
 50.376953125 430.099609375 l 1
 50.376953125 690.780273438 l 1
EndSplineSet
EndChar

StartChar: parenleft
Encoding: 40 40 11
Width: 319
GlyphClass: 2
Flags: MW
VStem: 54.2979 97.999<291.922 363.904 291.922 394.477>
LayerCount: 2
Fore
SplineSet
54.2978515625 328.671875 m 0
 54.2978515625 460.282226562 89.84765625 602.952148438 193.229492188 739.782226562 c 1
 280.243164062 739.782226562 l 1
 257.291015625 705.547851562 215.368164062 643.017578125 183.833984375 538.713867188 c 0
 162.797851562 469.133789062 152.296875 399.137695312 152.296875 328.670898438 c 0
 152.296875 255.173828125 165.510742188 86.875 272.5546875 -70.970703125 c 2
 280.331054688 -82.439453125 l 1
 192.201171875 -82.439453125 l 1
 150.305664062 -25.7578125 54.2978515625 114.682617188 54.2978515625 328.671875 c 0
EndSplineSet
Substitution2: "'rtla' Right to Left Alternates lookup 0 subtable" parenright
EndChar

StartChar: parenright
Encoding: 41 41 12
Width: 319
GlyphClass: 2
Flags: MW
VStem: 175.818 97.999<293.104 365.146>
LayerCount: 2
Fore
SplineSet
175.818359375 328.66796875 m 0
 175.818359375 401.623046875 162.55859375 568.720703125 55.5390625 728.34375 c 2
 47.87109375 739.779296875 l 1
 134.885742188 739.779296875 l 1
 173.15234375 689.130859375 273.817382812 548.01953125 273.817382812 328.668945312 c 0
 273.817382812 178.5078125 227.752929688 41.8134765625 135.913085938 -82.4404296875 c 1
 47.7822265625 -82.4404296875 l 1
 70.8779296875 -48.3837890625 112.751953125 13.36328125 144.280273438 117.647460938 c 0
 165.314453125 187.221679688 175.818359375 257.541015625 175.818359375 328.66796875 c 0
EndSplineSet
Substitution2: "'rtla' Right to Left Alternates lookup 0 subtable" parenleft
EndChar

StartChar: asterisk
Encoding: 42 42 13
Width: 415
GlyphClass: 2
Flags: MW
HStem: 398.74 292.04<178.757 245.396 178.757 245.396>
VStem: 178.757 66.6396<398.74 495.034 600.264 690.78>
LayerCount: 2
Fore
SplineSet
245.396484375 398.740234375 m 1
 178.756835938 398.740234375 l 1
 178.756835938 495.034179688 l 1
 80.9833984375 445.20703125 l 1
 51.6728515625 502.553710938 l 1
 144.630859375 547.209960938 l 1
 51.6728515625 591.866210938 l 1
 80.9580078125 649.163085938 l 1
 178.756835938 600.263671875 l 1
 178.756835938 690.780273438 l 1
 245.396484375 690.780273438 l 1
 245.396484375 599.385742188 l 1
 343.288085938 649.272460938 l 1
 371.395507812 591.78125 l 1
 279.456054688 548.087890625 l 1
 372.454101562 502.5 l 1
 343.170898438 445.20703125 l 1
 245.396484375 495.034179688 l 1
 245.396484375 398.740234375 l 1
EndSplineSet
EndChar

StartChar: plus
Encoding: 43 43 14
Width: 512
GlyphClass: 2
Flags: MW
HStem: 231.16 93.0996<55.2773 213.057 55.2773 213.057 307.137 464.917>
VStem: 213.057 94.0801<72.4004 231.16 72.4004 231.16 324.26 483.02>
LayerCount: 2
Fore
SplineSet
307.13671875 231.16015625 m 1
 307.13671875 72.400390625 l 1
 213.056640625 72.400390625 l 1
 213.056640625 231.16015625 l 1
 55.27734375 231.16015625 l 1
 55.27734375 324.259765625 l 1
 213.056640625 324.259765625 l 1
 213.056640625 483.01953125 l 1
 307.13671875 483.01953125 l 1
 307.13671875 324.259765625 l 1
 464.916992188 324.259765625 l 1
 464.916992188 231.16015625 l 1
 307.13671875 231.16015625 l 1
EndSplineSet
EndChar

StartChar: comma
Encoding: 44 44 15
Width: 185
GlyphClass: 2
Flags: MW
HStem: -151.387 270.827<50.377 144.457>
VStem: 50.377 94.0801<-66.5986 119.44 -66.5986 119.44 -66.5986 119.44>
LayerCount: 2
Fore
SplineSet
50.376953125 119.440429688 m 1
 144.45703125 119.440429688 l 1
 144.45703125 -66.5986328125 l 1
 50.376953125 -151.38671875 l 1
 50.376953125 119.440429688 l 1
EndSplineSet
EndChar

StartChar: hyphen
Encoding: 45 45 16
Width: 426
GlyphClass: 2
Flags: MW
HStem: 299.76 94.0801<54.2969 380.637 54.2969 380.637>
VStem: 54.2969 326.34<299.76 393.84 299.76 393.84>
LayerCount: 2
Fore
SplineSet
54.296875 393.83984375 m 1
 380.63671875 393.83984375 l 1
 380.63671875 299.759765625 l 1
 54.296875 299.759765625 l 1
 54.296875 393.83984375 l 1
EndSplineSet
EndChar

StartChar: period
Encoding: 46 46 17
Width: 205
GlyphClass: 2
Flags: MW
HStem: -0.120117 119.561<50.377 165.037 50.377 165.037>
VStem: 50.377 114.66<-0.120117 119.44 -0.120117 119.44>
LayerCount: 2
Fore
SplineSet
50.376953125 119.440429688 m 1
 165.037109375 119.440429688 l 1
 165.037109375 -0.1201171875 l 1
 50.376953125 -0.1201171875 l 1
 50.376953125 119.440429688 l 1
EndSplineSet
EndChar

StartChar: slash
Encoding: 47 47 18
Width: 432
GlyphClass: 2
Flags: MW
HStem: -9.91992 21G<51.2119 138.366 51.2119 51.2119> 672.74 20G<302.448 389.603 389.603 389.603>
LayerCount: 2
Fore
SplineSet
302.448242188 692.740234375 m 1
 389.602539062 692.740234375 l 1
 138.366210938 -9.919921875 l 1
 51.2119140625 -9.919921875 l 1
 302.448242188 692.740234375 l 1
EndSplineSet
EndChar

StartChar: zero
Encoding: 48 48 19
Width: 551
GlyphClass: 2
Flags: MW
HStem: -9.91992 94.0801<245.842 300.964 245.842 383.223> 606.5 94.0791<245.851 314.648>
VStem: 63.1172 103.879<244.389 251.25 251.25 439.41> 394.357 103.88<251.25 439.41 439.41 451.169>
LayerCount: 2
Fore
SplineSet
280.186523438 -9.919921875 m 0
 181.810546875 -9.919921875 63.1171875 31.8232421875 63.1171875 244.388671875 c 2
 63.1171875 451.168945312 l 2
 63.1171875 530.86328125 79.115234375 700.579101562 280.186523438 700.579101562 c 0
 359.010742188 700.579101562 498.237304688 674.763671875 498.237304688 451.168945312 c 2
 498.237304688 244.388671875 l 2
 498.237304688 170.768554688 486.258789062 -9.919921875 280.186523438 -9.919921875 c 0
166.99609375 251.25 m 2
 166.99609375 120.118164062 211.497070312 84.16015625 280.186523438 84.16015625 c 0
 321.7421875 84.16015625 349.931640625 97.271484375 367.211914062 122.595703125 c 0
 384.77734375 148.338867188 394.357421875 191.157226562 394.357421875 251.25 c 2
 394.357421875 439.41015625 l 2
 394.357421875 571.786132812 349.109375 606.5 280.186523438 606.5 c 0
 211.514648438 606.5 166.99609375 570.564453125 166.99609375 439.41015625 c 2
 166.99609375 251.25 l 2
EndSplineSet
EndChar

StartChar: one
Encoding: 49 49 20
Width: 367
GlyphClass: 2
Flags: MW
HStem: -0.120117 21G<191.497 295.377 191.497 191.497> 670.78 20G<196.698 295.377 295.377 295.377>
VStem: 191.497 103.88<-0.120117 573.14 573.14 573.14>
LayerCount: 2
Fore
SplineSet
47.4365234375 482.979492188 m 1
 47.4365234375 595.333984375 l 1
 196.698242188 690.780273438 l 1
 295.376953125 690.780273438 l 1
 295.376953125 -0.1201171875 l 1
 191.497070312 -0.1201171875 l 1
 191.497070312 573.139648438 l 1
 47.4365234375 482.979492188 l 1
EndSplineSet
Substitution2: "'sups' Superscript lookup 1 subtable" uni00B9
EndChar

StartChar: two
Encoding: 50 50 21
Width: 533
GlyphClass: 2
Flags: MW
HStem: -0.120117 93.1006<199.422 486.477 199.422 486.477> 608.46 92.1201<240.928 283.521>
VStem: 57.2373 100.939<489.88 508.01 489.88 514.87 489.88 543.16> 376.716 103.881<500.17 511.93 511.93 513.89 466.095 527.458>
LayerCount: 2
Fore
SplineSet
267.446289062 700.580078125 m 0
 401.427734375 700.580078125 480.596679688 622.15625 480.596679688 513.889648438 c 2
 480.596679688 499.190429688 l 2
 480.596679688 433 453.91796875 382.236328125 389.502929688 309.0234375 c 2
 199.421875 92.98046875 l 1
 486.4765625 92.98046875 l 1
 486.4765625 -0.1201171875 l 1
 58.216796875 -0.1201171875 l 1
 58.216796875 81.546875 l 1
 60.0546875 83.6298828125 l 1
 60.0546875 83.6298828125 309.953125 366.849609375 310.080078125 366.989257812 c 0
 360.026367188 420.77734375 376.715820312 456.084960938 376.715820312 500.169921875 c 2
 376.715820312 511.9296875 l 2
 376.715820312 542.987304688 366.985351562 566.110351562 347.869140625 582.836914062 c 0
 328.6796875 599.62890625 301.5546875 608.459960938 265.486328125 608.459960938 c 0
 216.369140625 608.459960938 158.176757812 590.95703125 158.176757812 508.009765625 c 2
 158.176757812 489.879882812 l 1
 57.2373046875 489.879882812 l 1
 57.2373046875 514.870117188 l 2
 57.2373046875 571.44921875 76.328125 617.227539062 114.630859375 650.743164062 c 0
 152.856445312 684.19140625 204.126953125 700.580078125 267.446289062 700.580078125 c 0
EndSplineSet
Substitution2: "'sups' Superscript lookup 1 subtable" uni00B2
EndChar

StartChar: three
Encoding: 51 51 22
Width: 551
GlyphClass: 2
Flags: MW
HStem: -9.91992 92.1211<241.75 288.692 219.603 309.222> 310.54 93.0996<220.897 267.448 267.448 268.428 220.897 267.448> 608.46 92.1201<249.706 308.523 243.679 317.772>
VStem: 58.2178 100.94<170.891 171.871 171.871 188.041 160.678 188.041> 66.0576 98.9805<499.68 516.83 499.68 517.81 499.68 546.069> 382.598 102.899<501.15 506.05 506.05 514.87 514.87 520.75 488.428 537.256> 394.358 103.879<187.551 205.19 157.318 206.171 157.318 225.428>
LayerCount: 2
Fore
SplineSet
400.09375 365.654296875 m 1xec
 420.9140625 356.755859375 498.237304688 321.341796875 498.237304688 205.190429688 c 2
 498.237304688 187.549804688 l 2
 498.237304688 127.086914062 478.197265625 78.37109375 437.923828125 42.875 c 0
 397.708984375 7.431640625 343.157226562 -9.919921875 275.287109375 -9.919921875 c 0
 208.212890625 -9.919921875 154.916992188 5.5166015625 116.271484375 37.322265625 c 0
 77.50390625 69.228515625 58.2177734375 114.299804688 58.2177734375 170.890625 c 2
 58.2177734375 188.041015625 l 1
 159.158203125 188.041015625 l 1
 159.158203125 171.87109375 l 2
 159.158203125 149.485351562 162.9375 82.201171875 276.267578125 82.201171875 c 0
 301.1171875 82.201171875 394.358398438 84.28125 394.358398438 187.55078125 c 2
 394.358398438 206.170898438 l 2xf2
 394.358398438 244.685546875 382.205078125 310.540039062 268.427734375 310.540039062 c 2
 220.897460938 310.540039062 l 1
 220.897460938 403.639648438 l 1
 267.448242188 403.639648438 l 2
 316.276367188 403.639648438 382.59765625 418.797851562 382.59765625 501.150390625 c 2
 382.59765625 514.870117188 l 2
 382.59765625 559.642578125 362.216796875 608.459960938 273.328125 608.459960938 c 0
 226.083007812 608.459960938 165.038085938 594.70703125 165.038085938 516.830078125 c 2
 165.038085938 499.6796875 l 1
 66.0576171875 499.6796875 l 1
 66.0576171875 517.809570312 l 2
 66.0576171875 574.328125 84.6103515625 619.641601562 121.9921875 652.22265625 c 0
 159.331054688 684.765625 211.090820312 700.580078125 276.266601562 700.580078125 c 0
 340.780273438 700.580078125 392.176757812 685.1015625 429.50390625 653.252929688 c 0
 466.91796875 621.331054688 485.497070312 576.637695312 485.497070312 520.75 c 2
 485.497070312 506.049804688 l 2
 485.497070312 470.806640625 476.454101562 440.249023438 458.12890625 415.0078125 c 0
 443.22265625 394.478515625 423.78125 378.006835938 400.09375 365.654296875 c 1xec
EndSplineSet
Substitution2: "'sups' Superscript lookup 1 subtable" uni00B3
EndChar

StartChar: four
Encoding: 52 52 23
Width: 566
GlyphClass: 2
Flags: MW
HStem: -0.120117 21G<344.377 448.257 344.377 344.377> 125.32 94.0801<155.739 344.377 155.739 344.377 448.257 529.597> 670.78 20G<278.537 386.039 386.039 386.039>
VStem: 344.377 103.88<-0.120117 125.32 -0.120117 125.32 219.4 394.82>
LayerCount: 2
Fore
SplineSet
448.256835938 219.400390625 m 1
 529.596679688 219.400390625 l 1
 529.596679688 125.3203125 l 1
 448.256835938 125.3203125 l 1
 448.256835938 -0.1201171875 l 1
 344.376953125 -0.1201171875 l 1
 344.376953125 125.3203125 l 1
 45.4765625 125.3203125 l 1
 45.4765625 213.750976562 l 1
 278.537109375 690.780273438 l 1
 386.0390625 690.780273438 l 1
 155.739257812 219.400390625 l 1
 344.376953125 219.400390625 l 1
 344.376953125 394.8203125 l 1
 448.256835938 394.8203125 l 1
 448.256835938 219.400390625 l 1
EndSplineSet
EndChar

StartChar: five
Encoding: 53 53 24
Width: 538
GlyphClass: 2
Flags: MW
HStem: -9.91992 93.0996<252.979 300.695 252.979 303.066> 368.36 92.1201<264.114 315.427> 596.7 94.0801<167.976 466.876 167.976 167.976>
VStem: 63.1162 99.96<168.93 171.87 171.87 184.12 159.078 184.12> 73.8965 94.0791<420.504 420.504 420.504 596.7> 382.596 102.9<208.13 242.43 242.43 246.35 170.862 277.618>
LayerCount: 2
Fore
SplineSet
167.975585938 420.50390625 m 1xec
 190.745117188 438.591796875 232.821289062 460.48046875 289.985351562 460.48046875 c 0
 350.934570312 460.48046875 399.455078125 441.8984375 434.0703125 404.198242188 c 0
 468.671875 366.513671875 485.49609375 313.521484375 485.49609375 246.349609375 c 2
 485.49609375 204.209960938 l 2
 485.49609375 137.513671875 466.71484375 84.53515625 428.438476562 46.6005859375 c 0
 390.166015625 8.6689453125 336.724609375 -9.919921875 269.407226562 -9.919921875 c 0
 204.833007812 -9.919921875 153.7890625 6.427734375 117.419921875 40.052734375 c 0
 81.2685546875 73.4765625 63.1162109375 116.848632812 63.1162109375 168.9296875 c 2
 63.1162109375 184.120117188 l 1
 163.076171875 184.120117188 l 1
 163.076171875 171.870117188 l 2xf4
 163.076171875 146.286132812 171.98046875 125.591796875 190.138671875 108.643554688 c 0
 207.911132812 92.0556640625 234.591796875 83.1796875 271.366210938 83.1796875 c 0
 330.024414062 83.1796875 382.595703125 107.5234375 382.595703125 208.129882812 c 2
 382.595703125 242.4296875 l 2
 382.595703125 312.806640625 356.547851562 368.360351562 274.305664062 368.360351562 c 0
 253.921875 368.360351562 199.198242188 365 174.255859375 306.205078125 c 2
 172.353515625 301.719726562 l 1
 73.896484375 301.719726562 l 1
 73.896484375 690.780273438 l 1
 466.875976562 690.780273438 l 1
 466.875976562 596.700195312 l 1
 167.975585938 596.700195312 l 1
 167.975585938 420.50390625 l 1xec
EndSplineSet
EndChar

StartChar: six
Encoding: 54 54 25
Width: 554
GlyphClass: 2
Flags: MW
HStem: -9.91992 92.1201<263.22 301.4 263.22 315.815> 331.121 93.0986<293.43 300.773> 670.78 20G<292.682 406.924 406.924 406.924>
VStem: 57.2363 103.879<195.39 216.95 216.95 217.93 177.55 249.317> 404.155 102.9<196.371 199.31 199.31 218.911 218.911 222.83 167.474 236.405>
LayerCount: 2
Fore
SplineSet
305.666015625 424.219726562 m 0
 422.630859375 424.219726562 507.055664062 339.796875 507.055664062 222.830078125 c 2
 507.055664062 199.309570312 l 2
 507.055664062 135.637695312 486.5859375 84.2021484375 445.381835938 46.4033203125 c 0
 404.255859375 8.67578125 349.484375 -9.919921875 282.146484375 -9.919921875 c 0
 214.189453125 -9.919921875 159.251953125 8.484375 118.422851562 45.9111328125 c 0
 77.5849609375 83.3466796875 57.236328125 133.626953125 57.236328125 195.389648438 c 2
 57.236328125 216.950195312 l 2
 57.236328125 281.68359375 78.646484375 333.6328125 124.984375 410.953125 c 2
 292.681640625 690.780273438 l 1
 406.923828125 690.780273438 l 1
 239.473632812 414.8671875 l 1
 259.153320312 421.114257812 281.194335938 424.219726562 305.666015625 424.219726562 c 0
404.155273438 196.37109375 m 2
 404.155273438 218.911132812 l 2
 404.155273438 253.899414062 393.254882812 280.72265625 371.712890625 300.747070312 c 0
 350.185546875 320.758789062 320.380859375 331.12109375 281.165039062 331.12109375 c 0
 242.600585938 331.12109375 213.47265625 320.921875 192.612304688 301.270507812 c 0
 171.798828125 281.663085938 161.115234375 254.354492188 161.115234375 217.9296875 c 2
 161.115234375 195.389648438 l 2
 161.115234375 159.7109375 172.044921875 132.5703125 193.556640625 112.57421875 c 0
 215.13671875 92.513671875 244.294921875 82.2001953125 282.145507812 82.2001953125 c 0
 320.655273438 82.2001953125 350.114257812 92.6806640625 371.673828125 113.025390625 c 0
 393.223632812 133.361328125 404.155273438 160.694335938 404.155273438 196.37109375 c 2
EndSplineSet
EndChar

StartChar: seven
Encoding: 55 55 26
Width: 491
GlyphClass: 2
Flags: MW
HStem: -0.120117 21G<97.5059 203.688 97.5059 97.5059> 596.7 94.0801<39.5967 355.245 39.5967 462.957>
LayerCount: 2
Fore
SplineSet
462.95703125 690.780273438 m 1
 462.95703125 602.533203125 l 1
 203.6875 -0.1201171875 l 1
 97.505859375 -0.1201171875 l 1
 355.245117188 596.700195312 l 1
 39.5966796875 596.700195312 l 1
 39.5966796875 690.780273438 l 1
 462.95703125 690.780273438 l 1
EndSplineSet
EndChar

StartChar: eight
Encoding: 56 56 27
Width: 570
GlyphClass: 2
Flags: MW
HStem: -9.91992 92.1191<270.005 309.969 270.005 323.63> 315.439 92.1191<270.005 308.025 254.697 309.969> 608.459 92.1201<272.612 307.706>
VStem: 63.1182 102.898<189.509 191.469 191.469 204.209 204.209 207.149 173.971 228.3> 77.8184 102.899<504.09 516.829 473.181 516.83 473.181 568.46> 400.237 102.899<502.129 504.09 504.09 516.829 516.829 516.83 487.456 531.311> 413.957 102.9<191.469 205.19 160.213 207.149 160.213 224.301>
LayerCount: 2
Fore
SplineSet
423.283203125 363.196289062 m 1xec
 456.776367188 345.802734375 516.857421875 301.21875 516.857421875 205.190429688 c 2
 516.857421875 190.490234375 l 2
 516.857421875 129.936523438 495.921875 80.732421875 454.057617188 44.3134765625 c 0
 412.286132812 7.9755859375 357.272460938 -9.919921875 289.987304688 -9.919921875 c 0
 222.080078125 -9.919921875 166.903320312 7.787109375 125.4296875 43.8203125 c 0
 83.873046875 79.92578125 63.1181640625 128.973632812 63.1181640625 189.508789062 c 2
 63.1181640625 204.208984375 l 2xf2
 63.1181640625 252.391601562 78.2919921875 322.915039062 157.39453125 363.192382812 c 1
 133.387695312 376.537109375 77.818359375 416.844726562 77.818359375 504.08984375 c 2
 77.818359375 516.830078125 l 2
 77.818359375 620.090820312 154.970703125 700.579101562 289.987304688 700.579101562 c 0
 423.22265625 700.579101562 503.13671875 622.466796875 503.13671875 516.830078125 c 2
 503.13671875 504.08984375 l 2
 503.13671875 470.821289062 494.764648438 440.921875 477.958984375 414.854492188 c 0
 463.954101562 393.1328125 445.639648438 375.850585938 423.283203125 363.196289062 c 1xec
180.717773438 502.12890625 m 2xec
 180.717773438 444.232421875 219.405273438 407.55859375 289.98828125 407.55859375 c 0
 326.0625 407.55859375 352.995117188 416.39453125 371.837890625 433.143554688 c 0
 390.713867188 449.921875 400.237304688 472.435546875 400.237304688 502.12890625 c 2
 400.237304688 516.829101562 l 2
 400.237304688 545.79296875 390.629882812 567.581054688 371.491210938 583.729492188 c 0
 352.28125 599.938476562 325.422851562 608.458984375 289.98828125 608.458984375 c 0
 255.235351562 608.458984375 228.702148438 599.961914062 209.463867188 583.729492188 c 0
 190.32421875 567.581054688 180.717773438 545.79296875 180.717773438 516.829101562 c 2
 180.717773438 502.12890625 l 2xec
413.95703125 191.46875 m 2xf2
 413.95703125 207.149414062 l 2
 413.95703125 241.453125 403.096679688 267.3828125 381.641601562 286.419921875 c 0
 360.155273438 305.485351562 329.951171875 315.439453125 289.987304688 315.439453125 c 0
 250.0234375 315.439453125 219.818359375 305.485351562 198.33203125 286.419921875 c 0
 176.876953125 267.3828125 166.016601562 241.453125 166.016601562 207.149414062 c 2
 166.016601562 191.46875 l 2
 166.016601562 156.47265625 176.91015625 130.2265625 198.33203125 111.217773438 c 0
 219.818359375 92.15234375 250.0234375 82.19921875 289.987304688 82.19921875 c 0
 329.951171875 82.19921875 360.155273438 92.15234375 381.641601562 111.217773438 c 0
 403.064453125 130.2265625 413.95703125 156.47265625 413.95703125 191.46875 c 2xf2
EndSplineSet
EndChar

StartChar: nine
Encoding: 57 57 28
Width: 554
GlyphClass: 2
Flags: MW
HStem: -0.120117 21G<158.349 271.599 158.349 158.349> 266.44 93.0996<263.863 271.551> 608.46 92.1201<262.894 301.415>
VStem: 57.2383 102.899<467.83 471.75 471.75 491.35 491.35 494.29 454.27 523.186> 404.159 102.897<472.73 473.71 473.71 495.27 442.853 513.109>
LayerCount: 2
Fore
SplineSet
258.627929688 266.440429688 m 0
 141.663085938 266.440429688 57.23828125 350.86328125 57.23828125 467.830078125 c 2
 57.23828125 491.349609375 l 2
 57.23828125 555.022460938 77.7080078125 606.458007812 118.912109375 644.256835938 c 0
 160.038085938 681.984375 214.809570312 700.580078125 282.146484375 700.580078125 c 0
 350.104492188 700.580078125 405.041992188 682.174804688 445.87109375 644.749023438 c 0
 486.708984375 607.313476562 507.056640625 557.033203125 507.056640625 495.26953125 c 2
 507.056640625 473.709960938 l 2
 507.056640625 411.99609375 488.663085938 359.952148438 440.306640625 279.737304688 c 2
 271.598632812 -0.1201171875 l 1
 158.348632812 -0.1201171875 l 1
 325.64453125 275.538085938 l 1
 306.831054688 269.383789062 284.473632812 266.440429688 258.627929688 266.440429688 c 0
404.159179688 472.73046875 m 2
 404.159179688 495.26953125 l 2
 404.159179688 530.94921875 393.228515625 558.08984375 371.716796875 578.0859375 c 0
 350.1640625 598.122070312 320.681640625 608.459960938 282.1484375 608.459960938 c 0
 243.638671875 608.459960938 214.1796875 597.978515625 192.620117188 577.633789062 c 0
 171.0703125 557.298828125 160.137695312 529.965820312 160.137695312 494.290039062 c 2
 160.137695312 471.75 l 2
 160.137695312 436.790039062 171.174804688 409.984375 193.032226562 389.948242188 c 0
 214.928710938 369.876953125 244.59765625 359.540039062 283.127929688 359.540039062 c 0
 321.688476562 359.540039062 351.005859375 369.737304688 372.208984375 389.426757812 c 0
 393.3359375 409.044921875 404.159179688 436.33203125 404.159179688 472.73046875 c 2
EndSplineSet
EndChar

StartChar: colon
Encoding: 58 58 29
Width: 205
GlyphClass: 2
Flags: MW
HStem: 47.9004 119.56<50.377 165.037 50.377 165.037> 283.1 119.561<50.377 165.037 50.377 165.037>
VStem: 50.377 114.66<47.9004 167.46 47.9004 167.46 283.1 402.66>
LayerCount: 2
Fore
SplineSet
50.376953125 402.66015625 m 1
 165.037109375 402.66015625 l 1
 165.037109375 283.099609375 l 1
 50.376953125 283.099609375 l 1
 50.376953125 402.66015625 l 1
50.376953125 167.459960938 m 1
 165.037109375 167.459960938 l 1
 165.037109375 47.900390625 l 1
 50.376953125 47.900390625 l 1
 50.376953125 167.459960938 l 1
EndSplineSet
EndChar

StartChar: semicolon
Encoding: 59 59 30
Width: 205
GlyphClass: 2
Flags: MW
HStem: 331.12 119.56<50.377 165.037 50.377 165.037>
VStem: 50.377 114.66<331.12 450.68> 69.9766 95.0605<-66.625 119.44 -66.625 119.44 -66.625 119.44>
LayerCount: 2
Fore
SplineSet
50.376953125 450.6796875 m 1xc0
 165.037109375 450.6796875 l 1
 165.037109375 331.120117188 l 1
 50.376953125 331.120117188 l 1
 50.376953125 450.6796875 l 1xc0
69.9765625 119.440429688 m 1xa0
 165.037109375 119.440429688 l 1
 165.037109375 -66.625 l 1
 69.9765625 -151.251953125 l 1
 69.9765625 119.440429688 l 1xa0
EndSplineSet
EndChar

StartChar: less
Encoding: 60 60 31
Width: 512
GlyphClass: 2
Flags: W
LayerCount: 2
Fore
SplineSet
55.27734375 237.477539062 m 1
 55.27734375 317.954101562 l 1
 463.936523438 482.637695312 l 1
 463.936523438 384.408203125 l 1
 190.564453125 277.6796875 l 1
 463.936523438 170.016601562 l 1
 463.936523438 71.77734375 l 1
 55.27734375 237.477539062 l 1
EndSplineSet
Substitution2: "'rtla' Right to Left Alternates lookup 0 subtable" greater
EndChar

StartChar: equal
Encoding: 61 61 32
Width: 512
GlyphClass: 2
Flags: MW
HStem: 148.84 93.1006<55.2773 463.937 55.2773 463.937> 312.5 94.0801<55.2773 463.937 55.2773 463.937>
LayerCount: 2
Fore
SplineSet
55.27734375 406.580078125 m 1
 463.936523438 406.580078125 l 1
 463.936523438 312.5 l 1
 55.27734375 312.5 l 1
 55.27734375 406.580078125 l 1
55.27734375 241.940429688 m 1
 463.936523438 241.940429688 l 1
 463.936523438 148.83984375 l 1
 55.27734375 148.83984375 l 1
 55.27734375 241.940429688 l 1
EndSplineSet
EndChar

StartChar: greater
Encoding: 62 62 33
Width: 512
GlyphClass: 2
Flags: W
LayerCount: 2
Fore
SplineSet
55.27734375 384.408203125 m 1
 55.27734375 482.637695312 l 1
 463.936523438 317.954101562 l 1
 463.936523438 237.477539062 l 1
 55.27734375 71.77734375 l 1
 55.27734375 170.016601562 l 1
 328.649414062 277.6796875 l 1
 55.27734375 384.408203125 l 1
EndSplineSet
Substitution2: "'rtla' Right to Left Alternates lookup 0 subtable" less
EndChar

StartChar: question
Encoding: 63 63 34
Width: 487
GlyphClass: 2
Flags: MW
HStem: -0.121094 115.641<184.637 298.317 184.637 298.317> 607.48 93.0996<211.656 275.851 211.656 292.667>
VStem: 36.4922 100.125<503.6 510.95> 184.637 113.681<-0.121094 115.52 -0.121094 115.52> 349.277 102.899<504.769 536.622>
LayerCount: 2
Fore
SplineSet
242.947265625 607.48046875 m 0
 158.139648438 607.48046875 136.6171875 562.99609375 136.6171875 510.950195312 c 2
 136.6171875 503.599609375 l 1
 36.4921875 503.599609375 l 1
 37.1572265625 533.533203125 38.6884765625 602.452148438 92.4599609375 651.615234375 c 0
 128.522460938 684.5859375 179.384765625 700.580078125 243.926757812 700.580078125 c 0
 307.775390625 700.580078125 358.80859375 685.436523438 396.123046875 654.284179688 c 0
 433.498046875 623.081054688 452.176757812 580.015625 452.176757812 526.629882812 c 0
 452.176757812 474.337890625 436.7734375 427.82421875 391.38671875 382.4375 c 2
 324.583007812 315.633789062 l 2
 299.484375 290.53515625 292.436523438 273.963867188 292.436523438 236.549804688 c 2
 292.436523438 179.219726562 l 1
 191.497070312 179.219726562 l 1
 191.497070312 240.469726562 l 2
 191.497070312 302.751953125 203.739257812 332.53515625 244.65625 372.131835938 c 0
 244.697265625 372.171875 301.49609375 427.991210938 301.49609375 427.991210938 c 2
 301.543945312 428.0390625 301.591796875 428.084960938 301.640625 428.129882812 c 0
 337.844726562 461.8359375 349.27734375 485.84765625 349.27734375 523.690429688 c 0
 349.27734375 549.552734375 342.385742188 607.48046875 242.947265625 607.48046875 c 0
184.63671875 115.51953125 m 1
 298.317382812 115.51953125 l 1
 298.317382812 -0.12109375 l 1
 184.63671875 -0.12109375 l 1
 184.63671875 115.51953125 l 1
EndSplineSet
EndChar

StartChar: at
Encoding: 64 64 35
Width: 854
GlyphClass: 2
Flags: MW
HStem: -127.52 88.2002<393.34 479.16 345.147 488.609> 54.7637 80.3584<640.819 667.932 640.819 671.139> 423.245 82.3184<411.485 420.211 343.448 440.055> 605.521 88.2031<341.019 466.275 319.492 516.417>
VStem: 54.2998 96.0391<247.334 321.813 321.813 322.791 158.265 433.634> 257.16 95.0605<236.554 241.455 241.455 321.814 223.896 322.794 223.896 363.961> 501.181 94.0791<237.534 323.774 323.774 340.304> 710.899 96.04<249.292 251.254 251.254 323.771 323.771 324.754 219.385 410.347>
LayerCount: 2
Fore
SplineSet
150.338867188 247.331054688 m 2
 150.338867188 69.19921875 260.166992188 -39.3193359375 430.127929688 -39.3193359375 c 0
 528.192382812 -39.3193359375 584.110351562 -15.8671875 638.251953125 13.458984375 c 1
 674.877929688 -63.337890625 l 1
 613.534179688 -99.02734375 547.091796875 -127.51953125 430.126953125 -127.51953125 c 0
 356.553710938 -127.51953125 291.235351562 -111.918945312 234.498046875 -80.546875 c 0
 177.811523438 -49.203125 133.452148438 -5.0009765625 101.779296875 51.67578125 c 0
 70.0703125 108.41796875 54.2998046875 173.749023438 54.2998046875 247.333984375 c 2
 54.2998046875 321.813476562 l 2
 54.2998046875 545.454101562 208.853515625 693.723632812 430.129882812 693.723632812 c 0
 502.419921875 693.723632812 567.397460938 678.110351562 624.747070312 646.768554688 c 0
 727.411132812 590.661132812 806.939453125 483.098632812 806.939453125 324.75390625 c 2
 806.939453125 251.25390625 l 2
 806.939453125 187.516601562 792.713867188 138.33984375 762.950195312 104.771484375 c 0
 733.44921875 71.49609375 694.588867188 54.763671875 647.689453125 54.763671875 c 0
 616.676757812 54.763671875 562.7578125 62.8251953125 532.08984375 113.858398438 c 1
 508.594726562 74.30078125 466.489257812 54.763671875 408.5703125 54.763671875 c 0
 358.061523438 54.763671875 319.184570312 70.6279296875 293.974609375 103.190429688 c 0
 269.084960938 135.338867188 257.16015625 180.034179688 257.16015625 236.553710938 c 2
 257.16015625 322.793945312 l 2
 257.16015625 405.127929688 282.24609375 505.563476562 404.649414062 505.563476562 c 0
 435.7734375 505.563476562 473.709960938 497.619140625 503.139648438 466.572265625 c 1
 503.139648438 495.762695312 l 1
 595.259765625 495.762695312 l 1
 595.259765625 205.193359375 l 2
 595.259765625 180.73828125 600.788085938 163.4140625 610.592773438 152.208984375 c 0
 620.69140625 140.66796875 632.96875 135.122070312 648.669921875 135.122070312 c 0
 687.194335938 135.122070312 710.899414062 163.250976562 710.899414062 249.291992188 c 2
 710.899414062 323.771484375 l 2
 710.899414062 496.922851562 602.704101562 605.520507812 430.12890625 605.520507812 c 0
 251.908203125 605.520507812 150.338867188 492.349609375 150.338867188 322.791015625 c 2
 150.338867188 247.331054688 l 2
427.190429688 137.083984375 m 0
 458.029296875 137.083984375 501.180664062 147.998046875 501.180664062 237.534179688 c 2
 501.180664062 323.774414062 l 2
 501.180664062 356.833984375 494.600585938 381.515625 482.469726562 398.379882812 c 0
 470.645507812 414.818359375 452.919921875 423.245117188 427.190429688 423.245117188 c 0
 395.780273438 423.245117188 352.220703125 412.057617188 352.220703125 321.814453125 c 2
 352.220703125 241.455078125 l 2
 352.220703125 206.336914062 358.54296875 180.19921875 370.1171875 162.689453125 c 0
 381.21484375 145.899414062 399.393554688 137.083984375 427.190429688 137.083984375 c 0
EndSplineSet
EndChar

StartChar: A
Encoding: 65 65 36
Width: 666
GlyphClass: 2
Flags: MW
HStem: -0.120117 21G<5.5332 5.5332 5.5332 114.656 558.447 558.447 558.447 668.535> 152.76 90.1602<211.664 460.43 211.664 496.707 175.416 460.43> 670.78 20G<293.909 379.158 379.158 379.158>
LayerCount: 2
Fore
SplineSet
5.533203125 -0.1201171875 m 1
 293.909179688 690.780273438 l 1
 379.158203125 690.780273438 l 1
 668.53515625 -0.1201171875 l 1
 558.447265625 -0.1201171875 l 1
 496.70703125 152.759765625 l 1
 175.416015625 152.759765625 l 1
 114.65625 -0.1201171875 l 1
 5.533203125 -0.1201171875 l 1
211.6640625 242.919921875 m 1
 460.4296875 242.919921875 l 1
 336.046875 553.875976562 l 1
 211.6640625 242.919921875 l 1
EndSplineSet
EndChar

StartChar: B
Encoding: 66 66 37
Width: 671
GlyphClass: 2
Flags: MW
HStem: -0.120117 93.1006<177.775 384.067> 306.62 93.0996<177.776 378.186 378.186 380.146 177.775 378.186> 597.681 93.0996<177.776 378.187 378.187 380.146 177.776 177.776>
VStem: 73.8965 103.879<92.9805 306.62 92.9805 690.78> 503.136 102.901<484.497 524.642> 513.915 103.881<169.498 225.606>
LayerCount: 2
Fore
SplineSet
516.990234375 356.569335938 m 1xf8
 571.44140625 333.939453125 617.795898438 286.578125 617.795898438 195.390625 c 0xf4
 617.795898438 113.232421875 581.940429688 -0.1201171875 384.067382812 -0.1201171875 c 2
 73.896484375 -0.1201171875 l 1
 73.896484375 690.780273438 l 1
 378.186523438 690.780273438 l 2
 476.244140625 690.780273438 606.037109375 660.809570312 606.037109375 502.129882812 c 0
 606.037109375 466.86328125 595.795898438 394.139648438 516.990234375 356.569335938 c 1xf8
503.135742188 498.2109375 m 0xf8
 503.135742188 551.072265625 479.954101562 597.680664062 380.146484375 597.680664062 c 2
 177.776367188 597.680664062 l 1
 177.776367188 399.719726562 l 1
 378.185546875 399.719726562 l 2
 482.124023438 399.719726562 503.135742188 447.743164062 503.135742188 498.2109375 c 0xf8
386.025390625 92.98046875 m 2
 484.943359375 92.98046875 513.915039062 137.7265625 513.915039062 201.26953125 c 0xf4
 513.915039062 249.942382812 494.559570312 306.620117188 380.145507812 306.620117188 c 2
 177.775390625 306.620117188 l 1
 177.775390625 92.98046875 l 1
 386.025390625 92.98046875 l 2
EndSplineSet
EndChar

StartChar: C
Encoding: 67 67 38
Width: 680
GlyphClass: 2
Flags: MW
HStem: -8.94043 95.0605<307.936 384.952 290.032 395.079> 605.52 95.0605<309.575 382.274>
VStem: 63.1152 103.881<296.33 390.41 225.637 395.31 225.637 445.221> 522.736 102.899<215.97 227.24 180.121 227.24>
LayerCount: 2
Fore
SplineSet
355.646484375 86.1201171875 m 0
 414.256835938 86.1201171875 522.736328125 99.484375 522.736328125 215.969726562 c 2
 522.736328125 227.240234375 l 1
 625.635742188 227.240234375 l 1
 625.635742188 214.990234375 l 2
 625.635742188 145.250976562 601.045898438 89.7158203125 551.846679688 50.017578125 c 0
 502.801757812 10.443359375 436.471679688 -8.9404296875 353.686523438 -8.9404296875 c 0
 262.185546875 -8.9404296875 190.248046875 16.5205078125 139.2265625 68.21875 c 0
 88.0888671875 120.034179688 63.115234375 196.517578125 63.115234375 296.330078125 c 2
 63.115234375 395.309570312 l 2
 63.115234375 495.131835938 88.2578125 571.626953125 139.731445312 623.439453125 c 0
 191.0859375 675.130859375 263.502929688 700.580078125 355.646484375 700.580078125 c 0
 438.41796875 700.580078125 504.583007812 681.370117188 553.311523438 642.116210938 c 0
 602.202148438 602.731445312 626.616210938 547.352539062 626.616210938 477.629882812 c 2
 626.616210938 465.379882812 l 1
 522.736328125 465.379882812 l 1
 522.736328125 476.650390625 l 2
 522.736328125 518.646484375 508.45703125 549.760742188 480.022460938 571.775390625 c 0
 451.4296875 593.911132812 409.8828125 605.51953125 354.666015625 605.51953125 c 0
 224.146484375 605.51953125 166.99609375 535.588867188 166.99609375 390.41015625 c 2
 166.99609375 295.349609375 l 2
 166.99609375 155.923828125 224.41796875 86.1201171875 355.646484375 86.1201171875 c 0
EndSplineSet
EndChar

StartChar: D
Encoding: 68 68 39
Width: 674
GlyphClass: 2
Flags: MW
HStem: -0.120117 94.0791<177.777 329.187> 596.699 94.0811<177.777 331.146 177.777 177.777>
VStem: 73.8965 103.881<93.959 596.699 93.959 690.78 93.959 690.78> 516.857 103.88<299.27 301.229 301.229 385.509 385.509 390.409 251.967 459.397>
LayerCount: 2
Fore
SplineSet
620.737304688 390.409179688 m 2
 620.737304688 301.229492188 l 2
 620.737304688 202.705078125 595.748046875 127.178710938 544.592773438 76.0234375 c 0
 493.551757812 24.982421875 421.307617188 -0.1201171875 329.186523438 -0.1201171875 c 2
 73.896484375 -0.1201171875 l 1
 73.896484375 690.780273438 l 1
 331.146484375 690.780273438 l 2
 422.615234375 690.780273438 494.369140625 665.838867188 545.083007812 615.125 c 0
 595.921875 564.286132812 620.737304688 488.920898438 620.737304688 390.409179688 c 2
516.857421875 385.508789062 m 2
 516.857421875 533.286132812 454.708984375 596.69921875 331.146484375 596.69921875 c 2
 177.77734375 596.69921875 l 1
 177.77734375 93.958984375 l 1
 331.146484375 93.958984375 l 2
 456.969726562 93.958984375 516.857421875 157.942382812 516.857421875 299.26953125 c 2
 516.857421875 385.508789062 l 2
EndSplineSet
EndChar

StartChar: E
Encoding: 69 69 40
Width: 598
GlyphClass: 2
Flags: MW
HStem: -0.120117 94.0801<177.777 560.957 177.777 560.957> 303.68 94.0801<177.777 506.077 177.777 506.077> 596.7 94.0801<177.777 560.957 177.777 177.777>
VStem: 73.8965 103.881<93.96 93.96 93.96 303.68 397.76 596.7>
LayerCount: 2
Fore
SplineSet
177.77734375 93.9599609375 m 1
 560.95703125 93.9599609375 l 1
 560.95703125 -0.1201171875 l 1
 73.896484375 -0.1201171875 l 1
 73.896484375 690.780273438 l 1
 560.95703125 690.780273438 l 1
 560.95703125 596.700195312 l 1
 177.77734375 596.700195312 l 1
 177.77734375 397.759765625 l 1
 506.077148438 397.759765625 l 1
 506.077148438 303.6796875 l 1
 177.77734375 303.6796875 l 1
 177.77734375 93.9599609375 l 1
EndSplineSet
EndChar

StartChar: F
Encoding: 70 70 41
Width: 591
GlyphClass: 2
Flags: MW
HStem: -0.120117 21G<73.8965 177.777 73.8965 73.8965> 300.74 94.0801<177.777 507.057 177.777 507.057> 596.7 94.0801<177.777 560.957 177.777 177.777>
VStem: 73.8965 103.881<-0.120117 300.74 -0.120117 394.82 394.82 596.7>
LayerCount: 2
Fore
SplineSet
177.77734375 300.740234375 m 1
 177.77734375 -0.1201171875 l 1
 73.896484375 -0.1201171875 l 1
 73.896484375 690.780273438 l 1
 560.95703125 690.780273438 l 1
 560.95703125 596.700195312 l 1
 177.77734375 596.700195312 l 1
 177.77734375 394.8203125 l 1
 507.056640625 394.8203125 l 1
 507.056640625 300.740234375 l 1
 177.77734375 300.740234375 l 1
EndSplineSet
EndChar

StartChar: G
Encoding: 71 71 42
Width: 680
GlyphClass: 2
Flags: MW
HStem: -8.94043 95.0605<308.596 396.455> 277.22 90.1602<336.537 523.717 336.537 626.617> 605.52 95.0596<308.596 381.924>
VStem: 63.1172 103.88<296.329 390.41 225.637 395.309 225.637 445.215> 523.717 102.9<244.39 250.27 250.27 277.22 277.22 277.22>
LayerCount: 2
Fore
SplineSet
355.646484375 86.1201171875 m 0
 484.252929688 86.1201171875 523.716796875 154.012695312 523.716796875 244.389648438 c 2
 523.716796875 277.219726562 l 1
 336.537109375 277.219726562 l 1
 336.537109375 367.379882812 l 1
 626.6171875 367.379882812 l 1
 626.6171875 250.26953125 l 2
 626.6171875 166.572265625 602.58203125 101.676757812 553.650390625 57.162109375 c 0
 504.932617188 12.8427734375 438.2421875 -8.9404296875 354.666992188 -8.9404296875 c 0
 262.525390625 -8.9404296875 190.259765625 16.5087890625 139.2265625 68.21875 c 0
 88.0888671875 120.034179688 63.1171875 196.516601562 63.1171875 296.329101562 c 2
 63.1171875 395.30859375 l 2
 63.1171875 495.122070312 88.0888671875 571.60546875 139.2265625 623.420898438 c 0
 190.259765625 675.130859375 262.525390625 700.579101562 354.666992188 700.579101562 c 0
 436.822265625 700.579101562 502.83984375 681.013671875 551.87109375 641.112304688 c 0
 600.9921875 601.137695312 625.63671875 546.458984375 625.63671875 478.609375 c 2
 625.63671875 466.359375 l 1
 522.737304688 466.359375 l 1
 522.737304688 477.62890625 l 2
 522.737304688 517.526367188 508.403320312 548.067382812 479.486328125 570.83203125 c 0
 450.532226562 593.625976562 409.181640625 605.51953125 354.666992188 605.51953125 c 0
 224.147460938 605.51953125 166.997070312 535.588867188 166.997070312 390.41015625 c 2
 166.997070312 295.349609375 l 2
 166.997070312 155.923828125 224.418945312 86.1201171875 355.646484375 86.1201171875 c 0
EndSplineSet
EndChar

StartChar: H
Encoding: 72 72 43
Width: 684
GlyphClass: 2
Flags: MW
HStem: -0.120117 21G<73.8965 177.777 73.8965 73.8965 515.877 618.777 515.877 515.877> 305.64 93.1006<177.777 515.877 177.777 515.877> 670.78 20G<73.8965 177.777 177.777 177.777 515.877 618.777 618.777 618.777>
VStem: 73.8965 103.881<-0.120117 305.64 -0.120117 398.74 398.74 690.78> 515.877 102.9<-0.120117 305.64 305.64 305.64 398.74 690.78 -0.120117 690.78>
LayerCount: 2
Fore
SplineSet
618.77734375 690.780273438 m 1
 618.77734375 -0.1201171875 l 1
 515.876953125 -0.1201171875 l 1
 515.876953125 305.639648438 l 1
 177.77734375 305.639648438 l 1
 177.77734375 -0.1201171875 l 1
 73.896484375 -0.1201171875 l 1
 73.896484375 690.780273438 l 1
 177.77734375 690.780273438 l 1
 177.77734375 398.740234375 l 1
 515.876953125 398.740234375 l 1
 515.876953125 690.780273438 l 1
 618.77734375 690.780273438 l 1
EndSplineSet
EndChar

StartChar: I
Encoding: 73 73 44
Width: 255
GlyphClass: 2
Flags: MW
HStem: -0.120117 21G<80.7568 184.637 80.7568 80.7568> 670.78 20G<80.7568 184.637 184.637 184.637>
VStem: 80.7568 103.88<-0.120117 690.78 -0.120117 690.78>
LayerCount: 2
Fore
SplineSet
80.7568359375 690.780273438 m 1
 184.63671875 690.780273438 l 1
 184.63671875 -0.1201171875 l 1
 80.7568359375 -0.1201171875 l 1
 80.7568359375 690.780273438 l 1
EndSplineSet
EndChar

StartChar: J
Encoding: 74 74 45
Width: 350
GlyphClass: 2
Flags: MW
HStem: -0.120117 94.0801<31.7568 99.8662 99.8662 114.467 31.7568 117.507 31.7568 99.8662> 670.78 20G<174.837 278.717 278.717 278.717>
VStem: 174.837 103.88<170.89 690.78>
LayerCount: 2
Fore
SplineSet
278.716796875 159.129882812 m 2
 278.716796875 62.1494140625 233.5390625 -0.1201171875 117.506835938 -0.1201171875 c 2
 31.7568359375 -0.1201171875 l 1
 31.7568359375 93.9599609375 l 1
 99.8662109375 93.9599609375 l 2
 129.067382812 93.9599609375 148.043945312 100.318359375 158.303710938 110.84765625 c 0
 168.59765625 121.412109375 174.836914062 140.990234375 174.836914062 170.889648438 c 2
 174.836914062 690.780273438 l 1
 278.716796875 690.780273438 l 1
 278.716796875 159.129882812 l 2
EndSplineSet
EndChar

StartChar: K
Encoding: 75 75 46
Width: 671
GlyphClass: 2
Flags: MW
HStem: -0.120117 21G<73.8965 177.777 73.8965 73.8965 550.647 675.295 550.647 550.647> 670.78 20G<73.8965 177.777 177.777 177.777 515.103 646.962 646.962 646.962>
VStem: 73.8965 103.881<-0.120117 189.54 323.998 690.78>
LayerCount: 2
Fore
SplineSet
550.647460938 -0.1201171875 m 1
 322.31640625 343.344726562 l 1
 177.77734375 189.540039062 l 1
 177.77734375 -0.1201171875 l 1
 73.896484375 -0.1201171875 l 1
 73.896484375 690.780273438 l 1
 177.77734375 690.780273438 l 1
 177.77734375 323.998046875 l 1
 515.102539062 690.780273438 l 1
 646.961914062 690.780273438 l 1
 391.486328125 417.127929688 l 1
 675.294921875 -0.1201171875 l 1
 550.647460938 -0.1201171875 l 1
EndSplineSet
EndChar

StartChar: L
Encoding: 76 76 47
Width: 581
GlyphClass: 2
Flags: MW
HStem: -0.120117 94.0801<177.777 557.037 177.777 557.037> 670.78 20G<73.8965 177.777 177.777 177.777>
VStem: 73.8965 103.881<93.96 690.78 93.96 690.78 93.96 690.78>
LayerCount: 2
Fore
SplineSet
73.896484375 690.780273438 m 1
 177.77734375 690.780273438 l 1
 177.77734375 93.9599609375 l 1
 557.037109375 93.9599609375 l 1
 557.037109375 -0.1201171875 l 1
 73.896484375 -0.1201171875 l 1
 73.896484375 690.780273438 l 1
EndSplineSet
EndChar

StartChar: M
Encoding: 77 77 48
Width: 825
GlyphClass: 2
Flags: MW
HStem: -0.120117 21G<73.8965 177.777 73.8965 73.8965 655.037 757.937 655.037 655.037> 670.78 20G<73.8965 174.734 174.734 174.734 658.08 757.937 757.937 757.937>
VStem: 73.8965 103.881<-0.120117 491.003 -0.120117 690.78> 655.037 102.899<-0.120117 491.003 491.003 491.003>
LayerCount: 2
Fore
SplineSet
757.936523438 690.780273438 m 1
 757.936523438 -0.1201171875 l 1
 655.037109375 -0.1201171875 l 1
 655.037109375 491.002929688 l 1
 452.041992188 134.139648438 l 1
 380.771484375 134.139648438 l 1
 177.77734375 491.002929688 l 1
 177.77734375 -0.1201171875 l 1
 73.896484375 -0.1201171875 l 1
 73.896484375 690.780273438 l 1
 174.734375 690.780273438 l 1
 416.407226562 259.427734375 l 1
 658.080078125 690.780273438 l 1
 757.936523438 690.780273438 l 1
EndSplineSet
EndChar

StartChar: N
Encoding: 78 78 49
Width: 721
GlyphClass: 2
Flags: MW
HStem: -0.120117 21G<73.8965 177.777 73.8965 73.8965 553.822 654.057 553.822 553.822> 670.78 20G<73.8965 174.136 174.136 174.136 550.177 654.057 654.057 654.057>
VStem: 73.8965 103.881<-0.120117 508.256 -0.120117 690.78> 550.177 103.88<181.458 690.78 -0.120117 690.78>
LayerCount: 2
Fore
SplineSet
654.056640625 690.780273438 m 1
 654.056640625 -0.1201171875 l 1
 553.822265625 -0.1201171875 l 1
 177.77734375 508.255859375 l 1
 177.77734375 -0.1201171875 l 1
 73.896484375 -0.1201171875 l 1
 73.896484375 690.780273438 l 1
 174.135742188 690.780273438 l 1
 550.176757812 181.458007812 l 1
 550.176757812 690.780273438 l 1
 654.056640625 690.780273438 l 1
EndSplineSet
EndChar

StartChar: O
Encoding: 79 79 50
Width: 694
GlyphClass: 2
Flags: MW
HStem: -8.94043 95.0605<305.318 396.498> 605.52 95.0605<307.936 399.116 307.936 420.588>
VStem: 63.1172 103.88<296.33 390.41 222.503 395.31 222.503 445.216> 538.417 102.9<295.351 296.33 296.33 390.411 390.411 395.31 246.424 458.299>
LayerCount: 2
Fore
SplineSet
63.1171875 296.330078125 m 2
 63.1171875 395.309570312 l 2
 63.1171875 495.123046875 88.0888671875 571.606445312 139.2265625 623.421875 c 0
 190.248046875 675.119140625 262.185546875 700.580078125 353.686523438 700.580078125 c 0
 444.544921875 700.580078125 515.8515625 675.108398438 566.221679688 623.38671875 c 0
 616.690429688 571.563476562 641.317382812 495.104492188 641.317382812 395.309570312 c 2
 641.317382812 296.330078125 l 2
 641.317382812 196.517578125 616.345703125 120.034179688 565.208007812 68.21875 c 0
 514.185546875 16.5205078125 442.249023438 -8.9404296875 350.747070312 -8.9404296875 c 0
 259.888671875 -8.9404296875 188.58203125 16.53125 138.211914062 68.25390625 c 0
 87.744140625 120.076171875 63.1171875 196.536132812 63.1171875 296.330078125 c 2
352.70703125 86.1201171875 m 0
 485.267578125 86.1201171875 538.416992188 160.537109375 538.416992188 295.350585938 c 2
 538.416992188 390.411132812 l 2
 538.416992188 526.186523438 488.46875 605.51953125 352.70703125 605.51953125 c 0
 224.2890625 605.51953125 166.997070312 536.477539062 166.997070312 390.41015625 c 2
 166.997070312 295.349609375 l 2
 166.997070312 149.65625 228.4609375 86.1201171875 352.70703125 86.1201171875 c 0
EndSplineSet
EndChar

StartChar: P
Encoding: 80 80 51
Width: 637
GlyphClass: 2
Flags: MW
HStem: -0.120117 21G<73.8965 177.776 73.8965 73.8965> 271.34 94.0801<177.776 374.266 177.776 177.776> 596.7 94.0801<177.775 370.345 177.775 177.775>
VStem: 73.8965 103.88<-0.120117 271.34 -0.120117 690.78> 509.995 103.88<455.656 501.214>
LayerCount: 2
Fore
SplineSet
374.265625 690.780273438 m 2
 432.383789062 690.780273438 613.875 682.91796875 613.875 480.5703125 c 0
 613.875 430.7421875 604.833007812 271.33984375 374.265625 271.33984375 c 2
 177.776367188 271.33984375 l 1
 177.776367188 -0.1201171875 l 1
 73.896484375 -0.1201171875 l 1
 73.896484375 690.780273438 l 1
 374.265625 690.780273438 l 2
376.224609375 365.419921875 m 2
 480.559570312 365.419921875 509.995117188 409.983398438 509.995117188 479.58984375 c 0
 509.995117188 522.838867188 498.5859375 552.100585938 477.411132812 569.452148438 c 0
 455.932617188 587.053710938 420.497070312 596.700195312 370.344726562 596.700195312 c 2
 177.775390625 596.700195312 l 1
 177.775390625 365.419921875 l 1
 376.224609375 365.419921875 l 2
EndSplineSet
EndChar

StartChar: Q
Encoding: 81 81 52
Width: 694
GlyphClass: 2
Flags: MW
HStem: -8.94043 95.0605<305.318 368.461> 605.52 95.0605<307.936 399.116 307.936 420.588>
VStem: 63.1172 103.88<296.33 390.41 222.503 395.31 222.503 445.216> 538.417 102.9<295.35 296.33 296.33 390.41 390.41 395.31 237.007 458.297>
LayerCount: 2
Fore
SplineSet
350.747070312 -8.9404296875 m 0
 259.888671875 -8.9404296875 188.58203125 16.53125 138.211914062 68.25390625 c 0
 87.744140625 120.076171875 63.1171875 196.536132812 63.1171875 296.330078125 c 2
 63.1171875 395.309570312 l 2
 63.1171875 495.123046875 88.0888671875 571.606445312 139.2265625 623.421875 c 0
 190.248046875 675.119140625 262.185546875 700.580078125 353.686523438 700.580078125 c 0
 444.544921875 700.580078125 515.8515625 675.108398438 566.221679688 623.38671875 c 0
 616.690429688 571.563476562 641.317382812 495.104492188 641.317382812 395.309570312 c 2
 641.317382812 296.330078125 l 2
 641.317382812 177.68359375 605.571289062 91.751953125 532.829101562 41.1064453125 c 1
 611.56640625 -106.52734375 l 1
 529.036132812 -150.698242188 l 1
 447.00390625 2.494140625 l 1
 418.264648438 -5.1591796875 386.174804688 -8.9404296875 350.747070312 -8.9404296875 c 0
352.70703125 86.1201171875 m 0
 485.266601562 86.1201171875 538.416992188 160.53515625 538.416992188 295.349609375 c 2
 538.416992188 390.41015625 l 2
 538.416992188 526.184570312 488.469726562 605.51953125 352.70703125 605.51953125 c 0
 224.2890625 605.51953125 166.997070312 536.477539062 166.997070312 390.41015625 c 2
 166.997070312 295.349609375 l 2
 166.997070312 149.65625 228.4609375 86.1201171875 352.70703125 86.1201171875 c 0
EndSplineSet
EndChar

StartChar: R
Encoding: 82 82 53
Width: 665
GlyphClass: 2
Flags: MW
HStem: -0.120117 21G<519.852 638.715 519.852 519.852> 287.999 92.1201<177.777 208.493> 596.699 94.0801<177.777 372.307 177.777 177.777>
VStem: 73.8965 103.881<-0.121094 287.999 -0.121094 380.119 380.119 596.699> 509.997 103.88<471.737 518.303>
LayerCount: 2
Fore
SplineSet
613.876953125 489.388671875 m 0
 613.876953125 454.0859375 609.317382812 336.467773438 469.702148438 299.358398438 c 1
 638.71484375 -0.1201171875 l 1
 519.8515625 -0.1201171875 l 1
 362.071289062 288 l 1
 300.639648438 288 239.208984375 287.999023438 177.77734375 287.999023438 c 1
 177.77734375 -0.12109375 l 1
 73.896484375 -0.12109375 l 1
 73.896484375 690.779296875 l 1
 376.2265625 690.779296875 l 2
 451.7421875 690.779296875 510.630859375 673.918945312 551.969726562 639.0703125 c 0
 593.4140625 604.133789062 613.876953125 553.67578125 613.876953125 489.388671875 c 0
509.997070312 489.388671875 m 0
 509.997070312 547.217773438 484.828125 596.69921875 372.306640625 596.69921875 c 2
 177.77734375 596.69921875 l 1
 177.77734375 380.119140625 l 1
 378.186523438 380.119140625 l 2
 477.478515625 380.119140625 509.997070312 421.185546875 509.997070312 489.388671875 c 0
EndSplineSet
EndChar

StartChar: S
Encoding: 83 83 54
Width: 612
GlyphClass: 2
Flags: MW
HStem: -6 91.1377<268.752 345.026> 609.44 90.1592<266.6 340.919 266.6 376.797>
VStem: 49.3945 100.942<481.732 531.502> 473.734 102.902<167.633 219.301>
LayerCount: 2
Fore
SplineSet
150.336914062 506.049804688 m 0
 150.336914062 457.4140625 175.578125 417.576171875 275.204101562 404.56640625 c 2
 275.204101562 404.56640625 370.203125 393.79296875 370.338867188 393.776367188 c 0
 505.643554688 375.868164062 576.63671875 311.120117188 576.63671875 200.290039062 c 0
 576.63671875 134.975585938 552.04296875 83.4111328125 503.078125 47.3671875 c 0
 454.317382812 11.4736328125 387.325195312 -6 302.7265625 -6 c 0
 234.778320312 -6 47.46875 3.5546875 33.732421875 201.733398438 c 2
 33.1875 209.59765625 l 1
 134.026367188 209.59765625 l 1
 138.178710938 163.229492188 148.529296875 85.1376953125 306.64453125 85.1376953125 c 0
 421.75390625 85.1376953125 473.734375 122.381835938 473.734375 194.408203125 c 0
 473.734375 244.193359375 450.752929688 288.76171875 343.993164062 300.790039062 c 2
 252.809570312 311.575195312 l 2
 119.470703125 328.16015625 49.39453125 391.260742188 49.39453125 500.169921875 c 0
 49.39453125 562.833984375 72.63671875 612.565429688 118.952148438 647.642578125 c 0
 165.06640625 682.56640625 227.53515625 699.599609375 305.6640625 699.599609375 c 0
 376.173828125 699.599609375 544.70703125 686.728515625 563.857421875 500.930664062 c 2
 564.693359375 492.8203125 l 1
 463.54296875 492.8203125 l 1
 459.766601562 538.141601562 447.927734375 609.440429688 305.666992188 609.440429688 c 0
 227.30859375 609.440429688 150.336914062 588.46484375 150.336914062 506.049804688 c 0
EndSplineSet
EndChar

StartChar: T
Encoding: 84 84 55
Width: 552
GlyphClass: 2
Flags: MW
HStem: -0.120117 21G<228.737 331.637 228.737 228.737> 596.7 94.0801<10.1973 228.737 10.1973 550.177 331.637 331.637 331.637 550.177>
VStem: 228.737 102.899<-0.120117 596.7 -0.120117 596.7>
LayerCount: 2
Fore
SplineSet
228.737304688 596.700195312 m 1
 10.197265625 596.700195312 l 1
 10.197265625 690.780273438 l 1
 550.176757812 690.780273438 l 1
 550.176757812 596.700195312 l 1
 331.63671875 596.700195312 l 1
 331.63671875 -0.1201171875 l 1
 228.737304688 -0.1201171875 l 1
 228.737304688 596.700195312 l 1
EndSplineSet
EndChar

StartChar: U
Encoding: 85 85 56
Width: 691
GlyphClass: 2
Flags: MW
HStem: -6 93.0996<307.008 392.526> 670.78 20G<73.8965 177.777 177.777 177.777 521.757 625.637 625.637 625.637>
VStem: 73.8965 103.881<249.29 255.17 255.17 690.78> 521.757 103.88<255.17 690.78>
LayerCount: 2
Fore
SplineSet
349.766601562 87.099609375 m 0
 476.404296875 87.099609375 521.756835938 153.782226562 521.756835938 255.169921875 c 2
 521.756835938 690.780273438 l 1
 625.63671875 690.780273438 l 1
 625.63671875 249.290039062 l 2
 625.63671875 169.395507812 601.338867188 106.172851562 552.202148438 61.1025390625 c 0
 503.135742188 16.0966796875 435.28515625 -6 349.766601562 -6 c 0
 264.249023438 -6 196.3984375 16.0966796875 147.331054688 61.1025390625 c 0
 98.1953125 106.172851562 73.896484375 169.395507812 73.896484375 249.290039062 c 2
 73.896484375 690.780273438 l 1
 177.77734375 690.780273438 l 1
 177.77734375 255.169921875 l 2
 177.77734375 153.93359375 222.98828125 87.099609375 349.766601562 87.099609375 c 0
EndSplineSet
EndChar

StartChar: V
Encoding: 86 86 57
Width: 606
GlyphClass: 2
Flags: MW
HStem: -0.120117 21G<266.28 350.954 266.28 266.28> 670.78 20G<5.94141 114.844 114.844 114.844 499.404 608.289 608.289 608.289>
LayerCount: 2
Fore
SplineSet
5.94140625 690.780273438 m 1
 114.84375 690.780273438 l 1
 308.555664062 149.723632812 l 1
 499.404296875 690.780273438 l 1
 608.2890625 690.780273438 l 1
 350.954101562 -0.1201171875 l 1
 266.280273438 -0.1201171875 l 1
 5.94140625 690.780273438 l 1
EndSplineSet
EndChar

StartChar: W
Encoding: 87 87 58
Width: 911
GlyphClass: 2
Flags: MW
HStem: -0.120117 21G<207.043 308.309 207.043 207.043 612.706 714.001 612.706 612.706> 670.78 20G<6.78223 110.327 110.327 110.327 398.971 520.995 520.995 520.995 808.649 910.257 910.257 910.257>
LayerCount: 2
Fore
SplineSet
612.706054688 -0.1201171875 m 1
 460.506835938 545.336914062 l 1
 308.30859375 -0.1201171875 l 1
 207.04296875 -0.1201171875 l 1
 6.7822265625 690.780273438 l 1
 110.327148438 690.780273438 l 1
 260.30859375 160.657226562 l 1
 398.970703125 690.780273438 l 1
 520.995117188 690.780273438 l 1
 666.237304688 160.741210938 l 1
 808.649414062 690.780273438 l 1
 910.256835938 690.780273438 l 1
 714.000976562 -0.1201171875 l 1
 612.706054688 -0.1201171875 l 1
EndSplineSet
EndChar

StartChar: X
Encoding: 88 88 59
Width: 648
GlyphClass: 2
Flags: MW
HStem: -0.120117 21G<2.04004 2.04004 2.04004 123.244 530.282 530.282 530.282 654.335> 670.78 20G<22.6338 146.727 146.727 146.727 509.664 630.847 630.847 630.847>
LayerCount: 2
Fore
SplineSet
2.0400390625 -0.1201171875 m 1
 266.166992188 359.053710938 l 1
 22.6337890625 690.780273438 l 1
 146.7265625 690.780273438 l 1
 329.155273438 440.180664062 l 1
 509.6640625 690.780273438 l 1
 630.846679688 690.780273438 l 1
 389.260742188 361.982421875 l 1
 654.334960938 -0.1201171875 l 1
 530.282226562 -0.1201171875 l 1
 324.357421875 280.861328125 l 1
 123.244140625 -0.1201171875 l 1
 2.0400390625 -0.1201171875 l 1
EndSplineSet
EndChar

StartChar: Y
Encoding: 89 89 60
Width: 582
GlyphClass: 2
Flags: MW
HStem: -0.120117 21G<243.437 346.337 243.437 243.437> 670.78 20G<3.79004 120.888 120.888 120.888 468.863 585.968 585.968 585.968>
VStem: 243.437 102.9<-0.120117 277.692 -0.120117 278.668 -0.120117 278.668>
LayerCount: 2
Fore
SplineSet
468.86328125 690.780273438 m 1
 585.967773438 690.780273438 l 1
 346.336914062 277.692382812 l 1
 346.336914062 -0.1201171875 l 1
 243.436523438 -0.1201171875 l 1
 243.436523438 278.66796875 l 1
 3.7900390625 690.780273438 l 1
 120.887695312 690.780273438 l 1
 295.831054688 370.52734375 l 1
 468.86328125 690.780273438 l 1
EndSplineSet
EndChar

StartChar: Z
Encoding: 90 90 61
Width: 573
GlyphClass: 2
Flags: MW
HStem: 0.860352 94.0801<164.435 545.277 164.435 545.277> 597.68 94.0801<51.3574 415.517 51.3574 540.377>
LayerCount: 2
Fore
SplineSet
545.27734375 94.9404296875 m 1
 545.27734375 0.8603515625 l 1
 38.6171875 0.8603515625 l 1
 38.6171875 90.0185546875 l 1
 415.516601562 597.6796875 l 1
 51.357421875 597.6796875 l 1
 51.357421875 691.759765625 l 1
 540.376953125 691.759765625 l 1
 540.376953125 602.606445312 l 1
 164.434570312 94.9404296875 l 1
 545.27734375 94.9404296875 l 1
EndSplineSet
EndChar

StartChar: bracketleft
Encoding: 91 91 62
Width: 329
GlyphClass: 2
Flags: MW
HStem: -82.4404 94.0801<172.877 283.617 172.877 283.617> 645.7 94.0801<172.877 283.617 172.877 172.877>
VStem: 73.8965 98.9805<11.6396 645.7 11.6396 739.78 11.6396 739.78> 73.8965 209.721<-82.4404 11.6396 645.7 739.78>
LayerCount: 2
Fore
SplineSet
73.896484375 739.780273438 m 1xd0
 283.6171875 739.780273438 l 1
 283.6171875 645.700195312 l 1xd0
 172.876953125 645.700195312 l 1
 172.876953125 11.6396484375 l 1xe0
 283.6171875 11.6396484375 l 1
 283.6171875 -82.4404296875 l 1
 73.896484375 -82.4404296875 l 1
 73.896484375 739.780273438 l 1xd0
EndSplineSet
Substitution2: "'rtla' Right to Left Alternates lookup 0 subtable" bracketright
EndChar

StartChar: backslash
Encoding: 92 92 63
Width: 432
GlyphClass: 2
Flags: MW
HStem: -9.91992 21G<302.448 389.603 302.448 302.448> 672.74 20G<51.2119 138.366 138.366 138.366>
LayerCount: 2
Fore
SplineSet
51.2119140625 692.740234375 m 1
 138.366210938 692.740234375 l 1
 389.602539062 -9.919921875 l 1
 302.448242188 -9.919921875 l 1
 51.2119140625 692.740234375 l 1
EndSplineSet
EndChar

StartChar: bracketright
Encoding: 93 93 64
Width: 329
GlyphClass: 2
Flags: MW
HStem: -82.4404 94.0801<54.2969 164.057 54.2969 264.017 54.2969 164.057> 645.7 94.0801<54.2969 164.057 54.2969 264.017>
VStem: 54.2969 209.72<-82.4404 11.6396 11.6396 11.6396 645.7 739.78 -82.4404 739.78> 164.057 99.96<11.6396 645.7 645.7 645.7>
LayerCount: 2
Fore
SplineSet
164.056640625 645.700195312 m 1xd0
 54.296875 645.700195312 l 1
 54.296875 739.780273438 l 1
 264.016601562 739.780273438 l 1
 264.016601562 -82.4404296875 l 1
 54.296875 -82.4404296875 l 1
 54.296875 11.6396484375 l 1xe0
 164.056640625 11.6396484375 l 1
 164.056640625 645.700195312 l 1xd0
EndSplineSet
Substitution2: "'rtla' Right to Left Alternates lookup 0 subtable" bracketleft
EndChar

StartChar: asciicircum
Encoding: 94 94 65
Width: 512
GlyphClass: 2
Flags: MW
HStem: 672.74 20G<219.4 300.793 300.793 300.793>
LayerCount: 2
Fore
SplineSet
219.400390625 692.740234375 m 1
 300.79296875 692.740234375 l 1
 472.458007812 275.259765625 l 1
 384.995117188 275.259765625 l 1
 259.6328125 584.423828125 l 1
 135.212890625 275.259765625 l 1
 47.736328125 275.259765625 l 1
 219.400390625 692.740234375 l 1
EndSplineSet
EndChar

StartChar: underscore
Encoding: 95 95 66
Width: 539
GlyphClass: 2
Flags: MW
HStem: -106.94 72.5205<3.33691 544.297 3.33691 544.297>
LayerCount: 2
Fore
SplineSet
3.3369140625 -34.419921875 m 1
 544.296875 -34.419921875 l 1
 544.296875 -106.940429688 l 1
 3.3369140625 -106.940429688 l 1
 3.3369140625 -34.419921875 l 1
EndSplineSet
EndChar

StartChar: grave
Encoding: 96 96 67
Width: 502
GlyphClass: 2
Flags: MW
HStem: 565.34 140.141<86.417 343.709 86.417 244.074>
VStem: 86.417 257.292<565.34 705.48>
LayerCount: 2
Fore
SplineSet
86.4169921875 705.48046875 m 1
 217.802734375 705.48046875 l 1
 343.708984375 565.33984375 l 1
 244.07421875 565.33984375 l 1
 86.4169921875 705.48046875 l 1
EndSplineSet
EndChar

StartChar: a
Encoding: 97 97 68
Width: 551
GlyphClass: 2
Flags: MW
HStem: -6 82.3203<207.18 271.697> 228.221 77.4189<243.926 257.646 257.646 392.396> 438.92 84.2803<251 301.934 235.237 319.141>
VStem: 44.4961 97.0195<133.322 173.048 133.322 181.994> 61.1572 96.04<353.66 363.95 353.66 388.455> 392.396 98.001<196.371 228.221 228.221 228.221>
LayerCount: 2
Fore
SplineSet
267.446289062 438.919921875 m 0xf4
 234.553710938 438.919921875 157.197265625 433.841796875 157.197265625 363.950195312 c 2
 157.197265625 353.66015625 l 1
 61.1572265625 353.66015625 l 1
 61.1572265625 363.950195312 l 2xec
 61.1572265625 412.958984375 79.8720703125 452.512695312 116.954101562 481.010742188 c 0
 153.926757812 509.42578125 204.006835938 523.200195312 266.466796875 523.200195312 c 0
 337.401367188 523.200195312 392.838867188 507.489257812 431.887695312 474.948242188 c 0
 471.06640625 442.298828125 490.396484375 394.92578125 490.396484375 334.549804688 c 2
 490.396484375 -0.1201171875 l 1
 394.356445312 -0.1201171875 l 1
 394.356445312 45.4560546875 l 1
 357.908203125 10.859375 305.348632812 -6 238.045898438 -6 c 0
 176.314453125 -6 128.26953125 7.0498046875 94.7392578125 34.3583984375 c 0
 61.0947265625 61.759765625 44.49609375 101.651367188 44.49609375 152.26953125 c 0
 44.49609375 211.717773438 71.7412109375 305.639648438 243.92578125 305.639648438 c 2
 392.396484375 305.639648438 l 1
 392.396484375 332.58984375 l 2
 392.396484375 385.706054688 370.8359375 438.919921875 267.446289062 438.919921875 c 0xf4
254.706054688 76.3203125 m 0
 352.37109375 76.3203125 392.395507812 116.75 392.395507812 196.37109375 c 2
 392.395507812 228.220703125 l 1
 257.645507812 228.220703125 l 2
 160.543945312 228.220703125 141.515625 192.845703125 141.515625 153.25 c 0xf4
 141.515625 113.393554688 159.5859375 76.3203125 254.706054688 76.3203125 c 0
EndSplineSet
EndChar

StartChar: b
Encoding: 98 98 69
Width: 582
GlyphClass: 2
Flags: MW
HStem: -8.94043 88.1992<291.084 337.673 284.535 350.903> -0.120117 21G<68.9971 166.017 68.9971 68.9971> 436.958 89.1816<282.914 350.903 277.064 365.562> 670.78 20G<68.9971 166.997 166.997 166.997>
VStem: 68.9971 98<462.887 462.887 462.887 690.78> 437.475 98.002<236.548 281.628 281.628 285.55 194.46 309.103>
LayerCount: 2
Fore
SplineSet
166.997070312 462.88671875 m 1x7c
 188.549804688 487.380859375 235.721679688 526.139648438 318.407226562 526.139648438 c 0
 383.3984375 526.139648438 436.413085938 505.178710938 476.142578125 463.072265625 c 0
 516.006835938 420.823242188 535.4765625 361.250976562 535.4765625 285.549804688 c 2
 535.4765625 232.629882812 l 2
 535.4765625 156.290039062 516.01953125 96.390625 476.142578125 54.1279296875 c 0
 436.413085938 12.021484375 383.3984375 -8.9404296875 318.407226562 -8.9404296875 c 0xbc
 263.760742188 -8.9404296875 207.151367188 5.2978515625 166.016601562 50.90625 c 1
 166.016601562 -0.1201171875 l 1
 68.9970703125 -0.1201171875 l 1
 68.9970703125 690.780273438 l 1
 166.997070312 690.780273438 l 1
 166.997070312 462.88671875 l 1x7c
306.646484375 79.2587890625 m 0
 368.700195312 79.2587890625 437.474609375 108.208984375 437.474609375 236.547851562 c 2
 437.474609375 281.627929688 l 2
 437.474609375 336.577148438 426.440429688 436.958007812 304.684570312 436.958007812 c 0
 261.142578125 436.958007812 227.963867188 423.721679688 203.739257812 397.657226562 c 0
 179.436523438 371.508789062 166.995117188 336.142578125 166.995117188 290.448242188 c 2
 166.995117188 224.788085938 l 2
 166.995117188 179.79296875 179.560546875 144.770507812 204.197265625 118.594726562 c 0
 228.737304688 92.521484375 262.422851562 79.2587890625 306.646484375 79.2587890625 c 0
EndSplineSet
EndChar

StartChar: c
Encoding: 99 99 70
Width: 555
GlyphClass: 2
Flags: MW
HStem: -8.94043 88.2002<255.014 311.989 254.652 325.523> 436.96 89.1797<254.403 324.545 254.352 344.952>
VStem: 54.2979 97.999<233.61 235.57 235.57 281.63 173.268 283.59 173.268 322.439> 412.977 96.04<178.73 190 150.117 190 324.26 336.51>
LayerCount: 2
Fore
SplineSet
152.296875 235.5703125 m 2
 152.296875 110.965820312 217.356445312 79.259765625 291.947265625 79.259765625 c 0
 332.03125 79.259765625 361.8125 88.5 382.241210938 105.923828125 c 0
 402.674804688 123.3515625 412.9765625 147.10546875 412.9765625 178.73046875 c 2
 412.9765625 190 l 1
 509.016601562 190 l 1
 509.016601562 178.73046875 l 2
 509.016601562 121.50390625 489.768554688 75.2353515625 451.13671875 41.390625 c 0
 412.500976562 7.5419921875 359.099609375 -8.9404296875 291.947265625 -8.9404296875 c 0
 218.080078125 -8.9404296875 159.413085938 11.6220703125 117.232421875 53.462890625 c 0
 74.9482421875 95.40625 54.2978515625 155.912109375 54.2978515625 233.610351562 c 2
 54.2978515625 283.58984375 l 2
 54.2978515625 361.288085938 74.94921875 421.793945312 117.233398438 463.737304688 c 0
 159.399414062 505.563476562 217.736328125 526.139648438 290.966796875 526.139648438 c 0
 358.123046875 526.139648438 411.672851562 509.65625 450.622070312 475.831054688 c 0
 489.62890625 441.95703125 509.016601562 395.008789062 509.016601562 336.509765625 c 2
 509.016601562 324.259765625 l 1
 412.9765625 324.259765625 l 1
 412.9765625 336.509765625 l 2
 412.9765625 372.845703125 397.95703125 436.959960938 291.947265625 436.959960938 c 0
 216.859375 436.959960938 152.296875 405.004882812 152.296875 281.629882812 c 2
 152.296875 235.5703125 l 2
EndSplineSet
EndChar

StartChar: d
Encoding: 100 100 71
Width: 582
GlyphClass: 2
Flags: MW
HStem: -8.94043 88.2002<263.631 307.213 263.631 313.359> -0.120117 21G<422.777 519.797 422.777 422.777> 436.96 89.1797<249.634 284.27 235.584 306.232> 670.78 20G<422.777 519.797 519.797 519.797>
VStem: 54.2979 98<231.65 235.57 235.57 280.65 208.632 285.55 208.632 323.388> 422.777 97.0195<-0.120117 51.4619 51.4619 51.4619 463.356 690.78 -0.120117 690.78>
LayerCount: 2
Fore
SplineSet
422.77734375 51.4619140625 m 1x7c
 402.438476562 28.5927734375 357.311523438 -8.9404296875 269.407226562 -8.9404296875 c 0xbc
 203.803710938 -8.9404296875 150.91015625 11.830078125 112.116210938 53.6865234375 c 0
 73.2294921875 95.642578125 54.2978515625 155.349609375 54.2978515625 231.650390625 c 2
 54.2978515625 285.549804688 l 2
 54.2978515625 361.2265625 73.419921875 420.770507812 112.608398438 463.025390625 c 0
 151.666015625 505.139648438 203.720703125 526.139648438 267.447265625 526.139648438 c 0
 301.091796875 526.139648438 372.286132812 518.91015625 422.77734375 463.356445312 c 1
 422.77734375 690.780273438 l 1
 519.796875 690.780273438 l 1
 519.796875 -0.1201171875 l 1
 422.77734375 -0.1201171875 l 1
 422.77734375 51.4619140625 l 1x7c
284.108398438 436.959960938 m 0
 215.16015625 436.959960938 152.297851562 403.322265625 152.297851562 280.650390625 c 2
 152.297851562 235.5703125 l 2
 152.297851562 181.694335938 164.381835938 142.705078125 187.15234375 117.504882812 c 0
 210.033203125 92.1826171875 242.173828125 79.259765625 285.087890625 79.259765625 c 0
 329.337890625 79.259765625 362.666015625 92.3779296875 386.521484375 118.069335938 c 0
 410.481445312 143.872070312 422.778320312 179.072265625 422.778320312 224.790039062 c 2
 422.778320312 290.450195312 l 2
 422.778320312 336.826171875 410.315429688 372.330078125 386.063476562 398.1171875 c 0
 361.870117188 423.841796875 328.35546875 436.959960938 284.108398438 436.959960938 c 0
EndSplineSet
EndChar

StartChar: e
Encoding: 101 101 72
Width: 559
GlyphClass: 2
Flags: MW
HStem: -8.94043 87.2207<257.62 315.57 256.312 361.67> 230.18 77.4199<152.313 413.955 152.797 413.955 152.797 511.957> 437.94 88.1992<248.421 319.088 248.421 347.124>
VStem: 54.2969 98.0166<230.18 278.69 230.18 317.839> 411.997 97.0195<166.081 168.93 168.93 176.28 118.751 176.28>
LayerCount: 2
Fore
SplineSet
152.313476562 230.1796875 m 1
 153.512695312 113.293945312 215.779296875 78.2802734375 296.845703125 78.2802734375 c 0
 334.294921875 78.2802734375 362.291992188 87.009765625 381.772460938 103.493164062 c 0
 401.499023438 120.184570312 411.370117188 140.663085938 411.997070312 166.081054688 c 2
 411.997070312 176.280273438 l 1
 509.016601562 176.280273438 l 1
 509.016601562 168.9296875 l 2
 509.016601562 68.5732421875 428.454101562 -8.9404296875 294.88671875 -8.9404296875 c 0
 220.353515625 -8.9404296875 161.03515625 11.958984375 118.211914062 54.443359375 c 0
 75.2587890625 97.0546875 54.296875 158.869140625 54.296875 238.509765625 c 2
 54.296875 278.690429688 l 2
 54.296875 356.98828125 74.2431640625 418.361328125 115.104492188 461.60546875 c 0
 155.931640625 504.813476562 212.735351562 526.139648438 284.107421875 526.139648438 c 0
 354.068359375 526.139648438 410.088867188 506.547851562 450.936523438 466.721679688 c 0
 491.915039062 426.768554688 511.95703125 369.502929688 511.95703125 296.330078125 c 2
 511.95703125 230.1796875 l 1
 152.313476562 230.1796875 l 1
413.955078125 309.0703125 m 2
 413.955078125 342.465820312 410.142578125 437.940429688 284.10546875 437.940429688 c 0
 208.240234375 437.940429688 160.075195312 399.357421875 152.796875 307.599609375 c 1
 413.955078125 307.599609375 l 1
 413.955078125 309.0703125 l 2
EndSplineSet
EndChar

StartChar: f
Encoding: 102 102 73
Width: 369
GlyphClass: 2
Flags: MW
HStem: -0.120117 21G<117.997 215.997 117.997 117.997> 438.92 77.4199<47.4365 117.997 47.4365 117.997 215.997 341.437> 614.34 76.4404<274.307 288.027 288.027 341.437>
VStem: 117.997 98<-0.120117 438.92 -0.120117 438.92 516.34 544.27 544.27 547.21>
LayerCount: 2
Fore
SplineSet
288.02734375 614.33984375 m 2
 236.5859375 614.33984375 215.997070312 593.127929688 215.997070312 547.209960938 c 2
 215.997070312 516.33984375 l 1
 341.436523438 516.33984375 l 1
 341.436523438 438.919921875 l 1
 215.997070312 438.919921875 l 1
 215.997070312 -0.1201171875 l 1
 117.997070312 -0.1201171875 l 1
 117.997070312 438.919921875 l 1
 47.4365234375 438.919921875 l 1
 47.4365234375 516.33984375 l 1
 117.997070312 516.33984375 l 1
 117.997070312 544.26953125 l 2
 117.997070312 568.865234375 118.344726562 690.780273438 274.306640625 690.780273438 c 2
 341.436523438 690.780273438 l 1
 341.436523438 614.33984375 l 1
 288.02734375 614.33984375 l 2
EndSplineSet
EndChar

StartChar: g
Encoding: 103 103 74
Width: 582
GlyphClass: 2
Flags: MW
HStem: -156.92 85.2578<240.832 320.588> -21.1006 20G<64.4287 159.544 159.544 159.544> 14.5791 89.1807<262.968 312.39 262.968 316.297> 437.94 88.1982<251.141 284.542 235.276 306.23> 496.339 20G<422.776 519.796 519.796 519.796>
VStem: 54.2959 98<249.289 254.19 254.19 282.61 228.594 287.509 228.594 325.021> 422.776 97.0195<44.4688 50.3486 50.3486 75.5439 75.5439 75.5439 247.33 293.39 293.39 315.899 464.307 516.339>
LayerCount: 2
Fore
SplineSet
267.446289062 526.138671875 m 0xf6
 301.63671875 526.138671875 372.956054688 518.92578125 422.776367188 464.306640625 c 1
 422.776367188 516.338867188 l 1
 519.795898438 516.338867188 l 1xee
 519.795898438 50.3486328125 l 2
 519.795898438 -15.2080078125 499.375976562 -66.9091796875 457.99609375 -103.16015625 c 0
 416.677734375 -139.356445312 358.048828125 -156.919921875 283.126953125 -156.919921875 c 0
 198.536132812 -156.919921875 75.736328125 -134.916015625 65.1025390625 -9.0771484375 c 2
 64.4287109375 -1.1005859375 l 1
 159.543945312 -1.1005859375 l 1
 166.443359375 -29.4658203125 178.762695312 -71.662109375 284.106445312 -71.662109375 c 0
 388.1328125 -71.662109375 422.776367188 -26.9609375 422.776367188 44.46875 c 2
 422.776367188 75.5439453125 l 1
 406.83984375 57.2314453125 363.1875 14.5791015625 269.40625 14.5791015625 c 0
 204.463867188 14.5791015625 151.77734375 35.0087890625 112.66796875 76.1572265625 c 0
 73.453125 117.418945312 54.2958984375 175.533203125 54.2958984375 249.2890625 c 2
 54.2958984375 287.508789062 l 2
 54.2958984375 362.532226562 73.2548828125 421.584960938 112.115234375 463.512695312 c 0
 150.875976562 505.333984375 203.10546875 526.138671875 267.446289062 526.138671875 c 0xf6
284.106445312 103.759765625 m 0
 340.673828125 103.759765625 422.776367188 124.85546875 422.776367188 247.330078125 c 2
 422.776367188 293.389648438 l 2
 422.776367188 338.408203125 410.354492188 373.266601562 386.061523438 399.096679688 c 0
 361.869140625 424.821289062 328.353515625 437.940429688 284.106445312 437.940429688 c 0xf6
 218.17578125 437.940429688 152.295898438 406.85546875 152.295898438 282.610351562 c 2
 152.295898438 254.190429688 l 2
 152.295898438 202.997070312 164.317382812 165.685546875 187.08984375 141.090820312 c 0
 209.974609375 116.375 241.830078125 103.759765625 284.106445312 103.759765625 c 0
EndSplineSet
EndChar

StartChar: h
Encoding: 104 104 75
Width: 574
GlyphClass: 2
Flags: MW
HStem: -0.120117 21G<68.9971 166.997 68.9971 68.9971 414.938 414.938 414.938 512.938> 433.04 89.1797<278.715 348.832 278.715 349.488> 670.78 20G<68.9971 166.997 166.997 166.997>
VStem: 68.9971 98<-0.120117 301.23 461.905 690.78> 414.938 98<-0.120117 312.01 312.01 322.79 -0.120117 336.285>
LayerCount: 2
Fore
SplineSet
414.9375 312.009765625 m 2
 414.9375 360.559570312 401.147460938 433.040039062 297.828125 433.040039062 c 0
 257.495117188 433.040039062 226.1328125 421.20703125 202.5390625 397.919921875 c 0
 179.01953125 374.70703125 166.997070312 342.909179688 166.997070312 301.23046875 c 2
 166.997070312 -0.1201171875 l 1
 68.9970703125 -0.1201171875 l 1
 68.9970703125 690.780273438 l 1
 166.997070312 690.780273438 l 1
 166.997070312 461.905273438 l 1
 192.19921875 489.268554688 239.022460938 522.219726562 318.408203125 522.219726562 c 0
 379.254882812 522.219726562 427.547851562 504.71484375 461.885742188 469.002929688 c 0
 496.159179688 433.357421875 512.9375 384.215820312 512.9375 322.790039062 c 2
 512.9375 -0.1201171875 l 1
 414.9375 -0.1201171875 l 1
 414.9375 312.009765625 l 2
EndSplineSet
EndChar

StartChar: i
Encoding: 105 105 76
Width: 241
GlyphClass: 2
Flags: MW
HStem: -0.120117 21G<75.8574 173.857 75.8574 75.8574> 496.34 20G<75.8574 173.857 173.857 173.857> 584.94 104.859<75.8574 173.857 75.8574 173.857>
VStem: 75.8574 98<-0.120117 516.34 -0.120117 516.34 584.94 689.8>
LayerCount: 2
Fore
SplineSet
75.857421875 689.799804688 m 1
 173.857421875 689.799804688 l 1
 173.857421875 584.940429688 l 1
 75.857421875 584.940429688 l 1
 75.857421875 689.799804688 l 1
75.857421875 516.33984375 m 1
 173.857421875 516.33984375 l 1
 173.857421875 -0.1201171875 l 1
 75.857421875 -0.1201171875 l 1
 75.857421875 516.33984375 l 1
EndSplineSet
EndChar

StartChar: j
Encoding: 106 106 77
Width: 239
GlyphClass: 2
Flags: MW
HStem: -150.06 89.1797<-49.583 1.86719 1.86719 11.667 -49.583 1.86719> 496.341 20G<74.877 172.877 172.877 172.877> 584.94 105.84<72.917 171.896 72.917 171.896>
VStem: 74.877 98<13.1113 516.341>
LayerCount: 2
Fore
SplineSet
72.9169921875 690.780273438 m 1
 171.896484375 690.780273438 l 1
 171.896484375 584.940429688 l 1
 72.9169921875 584.940429688 l 1
 72.9169921875 690.780273438 l 1
172.876953125 7.2314453125 m 2
 172.876953125 -51.4267578125 155.57421875 -150.059570312 11.6669921875 -150.059570312 c 2
 -49.5830078125 -150.059570312 l 1
 -49.5830078125 -60.8798828125 l 1
 1.8671875 -60.8798828125 l 2
 29.71484375 -60.8798828125 48.091796875 -54.732421875 58.4111328125 -44.4130859375 c 0
 68.6923828125 -34.1318359375 74.876953125 -15.427734375 74.876953125 13.111328125 c 2
 74.876953125 516.340820312 l 1
 172.876953125 516.340820312 l 1
 172.876953125 7.2314453125 l 2
EndSplineSet
EndChar

StartChar: k
Encoding: 107 107 78
Width: 560
GlyphClass: 2
Flags: MW
HStem: -0.120117 21G<68.9971 166.997 68.9971 68.9971 438.065 555.086 438.065 438.065> 496.34 20G<406.471 532.214 532.214 532.214> 670.78 20G<68.9971 166.997 166.997 166.997>
VStem: 68.9971 98<-0.120117 152.168 273.109 690.78>
LayerCount: 2
Fore
SplineSet
438.065429688 -0.1201171875 m 1
 263.515625 248.686523438 l 1
 166.997070312 152.16796875 l 1
 166.997070312 -0.1201171875 l 1
 68.9970703125 -0.1201171875 l 1
 68.9970703125 690.780273438 l 1
 166.997070312 690.780273438 l 1
 166.997070312 273.109375 l 1
 406.470703125 516.33984375 l 1
 532.213867188 516.33984375 l 1
 330.938476562 316.086914062 l 1
 555.0859375 -0.1201171875 l 1
 438.065429688 -0.1201171875 l 1
EndSplineSet
EndChar

StartChar: l
Encoding: 108 108 79
Width: 308
GlyphClass: 2
Flags: MW
HStem: -0.120117 89.1797<173.216 291.457 240.987 291.457 240.987 291.457> 670.78 20G<68.9971 166.997 166.997 166.997>
VStem: 68.9971 98<158.15 163.05 163.05 690.78>
LayerCount: 2
Fore
SplineSet
230.20703125 -0.1201171875 m 2
 116.225585938 -0.1201171875 68.9970703125 56.435546875 68.9970703125 158.150390625 c 2
 68.9970703125 690.780273438 l 1
 166.997070312 690.780273438 l 1
 166.997070312 163.049804688 l 2
 166.997070312 134.484375 173.045898438 115.723632812 183.04296875 105.456054688 c 0
 192.9296875 95.30078125 211.741210938 89.0595703125 240.987304688 89.0595703125 c 2
 291.45703125 89.0595703125 l 1
 291.45703125 -0.1201171875 l 1
 230.20703125 -0.1201171875 l 2
EndSplineSet
EndChar

StartChar: m
Encoding: 109 109 80
Width: 909
GlyphClass: 2
Flags: MW
HStem: -0.120117 21G<68.9971 166.997 68.9971 68.9971 408.078 408.078 408.078 507.058 747.157 747.157 747.157 845.157> 433.04 89.1797<277.662 335.928 276.499 343.968 609.716 678.736>
VStem: 68.9971 98<-0.120117 301.23 -0.120117 516.34> 408.078 98.9795<-0.120117 310.05 -0.120117 312.99 -0.120117 339.273> 747.157 98<-0.120117 312.01 312.01 322.79 -0.120117 336.653>
LayerCount: 2
Fore
SplineSet
408.078125 312.990234375 m 2
 408.078125 365.555664062 390.107421875 433.040039062 297.828125 433.040039062 c 0
 257.495117188 433.040039062 226.1328125 421.20703125 202.5390625 397.919921875 c 0
 179.01953125 374.70703125 166.997070312 342.909179688 166.997070312 301.23046875 c 2
 166.997070312 -0.1201171875 l 1
 68.9970703125 -0.1201171875 l 1
 68.9970703125 516.33984375 l 1
 166.016601562 516.33984375 l 1
 166.016601562 461.877929688 l 1
 188.46875 486.176757812 235.5703125 522.219726562 317.426757812 522.219726562 c 0
 354.428710938 522.219726562 426.725585938 512.954101562 472.837890625 447.028320312 c 1
 515.774414062 498.67578125 571.745117188 522.219726562 647.686523438 522.219726562 c 0
 709.78515625 522.219726562 758.8671875 504.928710938 793.564453125 469.544921875 c 0
 828.219726562 434.204101562 845.157226562 384.862304688 845.157226562 322.790039062 c 2
 845.157226562 -0.1201171875 l 1
 747.157226562 -0.1201171875 l 1
 747.157226562 312.009765625 l 2
 747.157226562 361.296875 733.088867188 433.040039062 632.006835938 433.040039062 c 0
 581.0625 433.040039062 507.057617188 414.98046875 507.057617188 310.049804688 c 2
 507.057617188 -0.1201171875 l 1
 408.078125 -0.1201171875 l 1
 408.078125 312.990234375 l 2
EndSplineSet
EndChar

StartChar: n
Encoding: 110 110 81
Width: 574
GlyphClass: 2
Flags: MW
HStem: -0.120117 21G<68.9971 166.997 68.9971 68.9971 414.938 414.938 414.938 512.938> 433.04 89.1797<277.723 348.832 277.723 349.488>
VStem: 68.9971 98<-0.120117 301.23 -0.120117 516.34> 414.938 98<-0.120117 312.01 312.01 322.79 -0.120117 336.285>
LayerCount: 2
Fore
SplineSet
414.9375 312.009765625 m 2
 414.9375 360.559570312 401.147460938 433.040039062 297.828125 433.040039062 c 0
 257.495117188 433.040039062 226.1328125 421.20703125 202.5390625 397.919921875 c 0
 179.01953125 374.70703125 166.997070312 342.909179688 166.997070312 301.23046875 c 2
 166.997070312 -0.1201171875 l 1
 68.9970703125 -0.1201171875 l 1
 68.9970703125 516.33984375 l 1
 166.017578125 516.33984375 l 1
 166.017578125 461.877929688 l 1
 189.919921875 487.74609375 237.037109375 522.219726562 318.408203125 522.219726562 c 0
 379.254882812 522.219726562 427.547851562 504.71484375 461.885742188 469.002929688 c 0
 496.159179688 433.357421875 512.9375 384.215820312 512.9375 322.790039062 c 2
 512.9375 -0.1201171875 l 1
 414.9375 -0.1201171875 l 1
 414.9375 312.009765625 l 2
EndSplineSet
EndChar

StartChar: o
Encoding: 111 111 82
Width: 574
GlyphClass: 2
Flags: MW
HStem: -8.94043 88.1992<255.331 327.659 254.232 328.245> 436.959 89.1797<255.331 327.955>
VStem: 54.2969 98<233.609 235.569 235.569 281.629 172.989 283.589 172.989 322.444> 429.637 98<235.569 281.629 281.629 283.59 194.761 343.587>
LayerCount: 2
Fore
SplineSet
54.296875 233.609375 m 2
 54.296875 283.588867188 l 2
 54.296875 361.298828125 75.1220703125 421.818359375 117.743164062 463.7578125 c 0
 160.228515625 505.5625 218.71484375 526.138671875 291.947265625 526.138671875 c 0
 364.555664062 526.138671875 422.576171875 505.372070312 464.723632812 463.225585938 c 0
 506.970703125 420.977539062 527.63671875 360.653320312 527.63671875 283.58984375 c 2
 527.63671875 233.610351562 l 2
 527.63671875 155.912109375 506.986328125 95.40625 464.702148438 53.462890625 c 0
 422.549804688 11.650390625 364.541992188 -8.9404296875 291.947265625 -8.9404296875 c 0
 218.71484375 -8.9404296875 160.228515625 11.63671875 117.743164062 53.44140625 c 0
 75.1220703125 95.3798828125 54.296875 155.899414062 54.296875 233.609375 c 2
290.966796875 79.2587890625 m 0
 364.350585938 79.2587890625 429.63671875 110.331054688 429.63671875 235.569335938 c 2
 429.63671875 281.62890625 l 2
 429.63671875 405.545898438 364.943359375 436.958984375 290.966796875 436.958984375 c 0
 217.036132812 436.958984375 152.296875 405.587890625 152.296875 281.62890625 c 2
 152.296875 235.569335938 l 2
 152.296875 110.409179688 217.498046875 79.2587890625 290.966796875 79.2587890625 c 0
EndSplineSet
EndChar

StartChar: p
Encoding: 112 112 83
Width: 582
GlyphClass: 2
Flags: MW
HStem: -158.88 21G<68.9971 166.997 68.9971 68.9971> -8.94043 88.1992<285.95 337.673 284.535 350.903> 436.958 88.2021<282.914 350.895 277.634 365.787> 496.34 20G<68.9971 166.017 166.017 166.017>
VStem: 68.9971 98<-158.88 50.6895 -158.88 516.34> 437.475 98.002<236.548 280.648 280.648 285.55 194.46 307.502>
LayerCount: 2
Fore
SplineSet
166.016601562 462.395507812 m 1xdc
 189.40234375 488.419921875 236.860351562 525.16015625 318.407226562 525.16015625 c 0xec
 383.3828125 525.16015625 436.38671875 504.376953125 476.122070312 462.603515625 c 0
 516.008789062 420.671875 535.4765625 361.249023438 535.4765625 285.549804688 c 2
 535.4765625 232.629882812 l 2
 535.4765625 156.290039062 516.01953125 96.390625 476.142578125 54.1279296875 c 0
 436.413085938 12.021484375 383.3984375 -8.9404296875 318.407226562 -8.9404296875 c 0
 253.4921875 -8.9404296875 202.51171875 10.83203125 166.997070312 50.689453125 c 1
 166.997070312 -158.879882812 l 1
 68.9970703125 -158.879882812 l 1
 68.9970703125 516.33984375 l 1
 166.016601562 516.33984375 l 1
 166.016601562 462.395507812 l 1xdc
306.646484375 79.2587890625 m 0
 368.700195312 79.2587890625 437.474609375 108.208984375 437.474609375 236.547851562 c 2
 437.474609375 280.6484375 l 2
 437.474609375 334.35546875 426.888671875 436.958007812 304.684570312 436.958007812 c 0
 261.142578125 436.958007812 227.963867188 423.721679688 203.739257812 397.657226562 c 0
 179.436523438 371.508789062 166.995117188 336.142578125 166.995117188 290.448242188 c 2
 166.995117188 224.788085938 l 2
 166.995117188 179.79296875 179.560546875 144.770507812 204.197265625 118.594726562 c 0
 228.737304688 92.521484375 262.422851562 79.2587890625 306.646484375 79.2587890625 c 0
EndSplineSet
EndChar

StartChar: q
Encoding: 113 113 84
Width: 582
GlyphClass: 2
Flags: MW
HStem: -158.88 21G<422.777 519.797 422.777 422.777> -8.94043 88.2002<263.629 307.211 263.629 311.94> 436.96 88.2002<249.632 286.396 236.255 306.23> 496.34 20G<422.777 519.797 519.797 519.797>
VStem: 54.2959 98<231.65 235.57 235.57 280.65 208.632 285.55 208.632 323.387> 422.777 97.0195<-158.88 51.4941 51.4941 51.4941 463.358 516.34 -158.88 516.34>
LayerCount: 2
Fore
SplineSet
268.42578125 525.16015625 m 0xec
 304.366210938 525.16015625 373.682617188 517.364257812 422.77734375 463.358398438 c 1
 422.77734375 516.33984375 l 1
 519.796875 516.33984375 l 1xdc
 519.796875 -158.879882812 l 1
 422.77734375 -158.879882812 l 1
 422.77734375 51.494140625 l 1
 401.029296875 27.125 354.473632812 -8.9404296875 269.40625 -8.9404296875 c 0
 203.802734375 -8.9404296875 150.909179688 11.830078125 112.115234375 53.6865234375 c 0
 73.228515625 95.642578125 54.2958984375 155.349609375 54.2958984375 231.650390625 c 2
 54.2958984375 285.549804688 l 2
 54.2958984375 361.224609375 73.416015625 420.618164062 112.626953125 462.557617188 c 0
 151.70703125 504.356445312 204.084960938 525.16015625 268.42578125 525.16015625 c 0xec
284.106445312 436.959960938 m 0xec
 215.158203125 436.959960938 152.295898438 403.322265625 152.295898438 280.650390625 c 2
 152.295898438 235.5703125 l 2
 152.295898438 181.694335938 164.379882812 142.705078125 187.150390625 117.504882812 c 0
 210.03125 92.1826171875 242.171875 79.259765625 285.0859375 79.259765625 c 0
 329.3359375 79.259765625 362.6640625 92.3779296875 386.51953125 118.069335938 c 0
 410.479492188 143.872070312 422.776367188 179.072265625 422.776367188 224.790039062 c 2
 422.776367188 290.450195312 l 2
 422.776367188 336.826171875 410.313476562 372.330078125 386.061523438 398.1171875 c 0
 361.869140625 423.841796875 328.353515625 436.959960938 284.106445312 436.959960938 c 0xec
EndSplineSet
EndChar

StartChar: r
Encoding: 114 114 85
Width: 383
GlyphClass: 2
Flags: MW
HStem: -0.120117 21G<68.9971 166.997 68.9971 68.9971> 434.02 89.1807<282.907 317.381>
VStem: 68.9971 98<-0.120117 296.33 -0.120117 516.34>
LayerCount: 2
Fore
SplineSet
166.015625 460.62109375 m 1
 189.749023438 488.595703125 235.803710938 523.200195312 318.40625 523.200195312 c 0
 339.840820312 523.200195312 352.213867188 521.358398438 365.936523438 519.19140625 c 1
 365.936523438 423.684570312 l 1
 347.673828125 429.095703125 331.0546875 434.01953125 303.70703125 434.01953125 c 0
 262.107421875 434.01953125 229.432617188 421.56640625 204.500976562 396.94140625 c 0
 179.639648438 372.387695312 166.997070312 339.274414062 166.997070312 296.330078125 c 2
 166.997070312 -0.1201171875 l 1
 68.9970703125 -0.1201171875 l 1
 68.9970703125 516.33984375 l 1
 166.015625 516.33984375 l 1
 166.015625 460.62109375 l 1
EndSplineSet
EndChar

StartChar: s
Encoding: 115 115 86
Width: 520
GlyphClass: 2
Flags: MW
HStem: -6 84.2803<244.625 289.486 244.625 297.649> 440.88 82.3203<234.878 284.692>
VStem: 44.499 94.0801<157.17 158.15 158.15 167.46 145.874 167.46> 52.3379 94.0801<356.54 391.132> 386.518 94.0801<355.62 365.91 365.91 366.89 355.62 378.159> 394.358 94.0781<130.632 165.085>
LayerCount: 2
Fore
SplineSet
264.5078125 440.879882812 m 0xd8
 205.248046875 440.879882812 146.41796875 427.178710938 146.41796875 372.76953125 c 0xd8
 146.41796875 340.309570312 163.067382812 318.72265625 239.96875 310.48046875 c 2
 316.323242188 300.690429688 l 2
 417.471679688 288.928710938 488.436523438 251.057617188 488.436523438 156.190429688 c 0
 488.436523438 105.07421875 467.750976562 64.427734375 426.974609375 35.9873046875 c 0
 386.430664062 7.708984375 331.771484375 -6 263.52734375 -6 c 0
 195.911132812 -6 142.291992188 8.0458984375 103.319335938 37.1044921875 c 0
 64.2626953125 66.224609375 44.4990234375 106.788085938 44.4990234375 157.169921875 c 2
 44.4990234375 167.459960938 l 1
 138.579101562 167.459960938 l 1
 138.579101562 158.150390625 l 2
 138.579101562 133.59765625 148.344726562 114.883789062 168.780273438 100.458984375 c 0
 189.033203125 86.1630859375 221.80078125 78.2802734375 267.44921875 78.2802734375 c 0
 311.522460938 78.2802734375 394.358398438 86.8505859375 394.358398438 151.290039062 c 0xe4
 394.358398438 178.880859375 381.940429688 206.23046875 292.021484375 215.53515625 c 2
 220.522460938 224.350585938 l 2
 126.630859375 235.397460938 52.337890625 269.524414062 52.337890625 366.889648438 c 0
 52.337890625 415.375 71.8466796875 454.333007812 110.267578125 482.119140625 c 0
 148.516601562 509.782226562 199.806640625 523.200195312 263.528320312 523.200195312 c 0
 329.827148438 523.200195312 382.736328125 509.647460938 421.672851562 481.640625 c 0
 460.690429688 453.576171875 480.59765625 414.806640625 480.59765625 366.889648438 c 2
 480.59765625 355.620117188 l 1
 386.517578125 355.620117188 l 1
 386.517578125 365.91015625 l 2
 386.517578125 390.408203125 376.713867188 408.120117188 356.178710938 420.91796875 c 0
 335.345703125 433.899414062 304.875976562 440.879882812 264.5078125 440.879882812 c 0xd8
EndSplineSet
EndChar

StartChar: t
Encoding: 116 116 87
Width: 388
GlyphClass: 2
Flags: MW
HStem: -0.120117 87.2197<237.008 342.417 292.927 342.417 292.927 342.417> 438.92 77.4199<33.7168 121.917 33.7168 121.917 219.917 353.197>
VStem: 121.917 98<151.29 156.19 156.19 438.92 516.34 622.693 622.693 622.693>
LayerCount: 2
Fore
SplineSet
279.20703125 -0.1201171875 m 2
 194.809570312 -0.1201171875 121.916992188 33.869140625 121.916992188 151.290039062 c 2
 121.916992188 438.919921875 l 1
 33.716796875 438.919921875 l 1
 33.716796875 516.33984375 l 1
 121.916992188 516.33984375 l 1
 121.916992188 622.693359375 l 1
 219.916992188 663.046875 l 1
 219.916992188 516.33984375 l 1
 353.197265625 516.33984375 l 1
 353.197265625 438.919921875 l 1
 219.916992188 438.919921875 l 1
 219.916992188 156.190429688 l 2
 219.916992188 129.697265625 226.014648438 112.413085938 236.239257812 102.725585938 c 0
 246.533203125 92.974609375 265.0234375 87.099609375 292.926757812 87.099609375 c 2
 342.416992188 87.099609375 l 1
 342.416992188 -0.1201171875 l 1
 279.20703125 -0.1201171875 l 2
EndSplineSet
EndChar

StartChar: u
Encoding: 117 117 88
Width: 574
GlyphClass: 2
Flags: MW
HStem: -6.98047 89.1797<256.103 325.541> 496.339 20G<68.9971 166.997 166.997 166.997 414.937 512.937 512.937 512.937>
VStem: 68.9971 98<206.169 214.989 214.989 516.339> 414.937 98<214.989 516.339>
LayerCount: 2
Fore
SplineSet
290.966796875 82.19921875 m 0
 362.549804688 82.19921875 414.936523438 110.86328125 414.936523438 214.989257812 c 2
 414.936523438 516.338867188 l 1
 512.936523438 516.338867188 l 1
 512.936523438 206.168945312 l 2
 512.936523438 138.830078125 493.997070312 85.7998046875 455.318359375 48.490234375 c 0
 416.625 11.1669921875 361.09375 -6.98046875 289.987304688 -6.98046875 c 0
 219.518554688 -6.98046875 164.462890625 11.1796875 126.102539062 48.513671875 c 0
 87.759765625 85.828125 68.9970703125 138.844726562 68.9970703125 206.168945312 c 2
 68.9970703125 516.338867188 l 1
 166.997070312 516.338867188 l 1
 166.997070312 214.989257812 l 2
 166.997070312 112.071289062 221.239257812 82.19921875 290.966796875 82.19921875 c 0
EndSplineSet
EndChar

StartChar: v
Encoding: 118 118 89
Width: 516
GlyphClass: 2
Flags: MW
HStem: -0.120117 21G<216.384 307.729 216.384 216.384> 496.34 20G<12.624 117.693 117.693 117.693 406.409 511.489 511.489 511.489>
LayerCount: 2
Fore
SplineSet
12.6240234375 516.33984375 m 1
 117.693359375 516.33984375 l 1
 262.524414062 132.016601562 l 1
 406.409179688 516.33984375 l 1
 511.489257812 516.33984375 l 1
 307.729492188 -0.1201171875 l 1
 216.383789062 -0.1201171875 l 1
 12.6240234375 516.33984375 l 1
EndSplineSet
EndChar

StartChar: w
Encoding: 119 119 90
Width: 818
GlyphClass: 2
Flags: MW
HStem: -0.120117 21G<190.66 282.457 190.66 190.66 540.557 633.324 540.557 540.557> 496.34 20G<13.127 117.965 117.965 117.965 372.966 451.016 451.016 451.016 707.01 811.866 811.866 811.866>
LayerCount: 2
Fore
SplineSet
13.126953125 516.33984375 m 1
 117.96484375 516.33984375 l 1
 240.290039062 136.190429688 l 1
 372.965820312 516.33984375 l 1
 451.015625 516.33984375 l 1
 584.659179688 136.114257812 l 1
 707.009765625 516.33984375 l 1
 811.866210938 516.33984375 l 1
 633.32421875 -0.1201171875 l 1
 540.556640625 -0.1201171875 l 1
 411.506835938 367.249023438 l 1
 282.45703125 -0.1201171875 l 1
 190.66015625 -0.1201171875 l 1
 13.126953125 516.33984375 l 1
EndSplineSet
EndChar

StartChar: x
Encoding: 120 120 91
Width: 490
GlyphClass: 2
Flags: MW
HStem: -0.120117 21G<9.24023 116.438 9.24023 9.24023 383.208 490.412 383.208 383.208> 496.34 20G<18.085 125.232 125.232 125.232 371.425 478.688 478.688 478.688>
LayerCount: 2
Fore
SplineSet
383.208007812 -0.1201171875 m 1
 248.870117188 189.477539062 l 1
 116.4375 -0.1201171875 l 1
 9.240234375 -0.1201171875 l 1
 195.734375 263.99609375 l 1
 18.0849609375 516.33984375 l 1
 125.232421875 516.33984375 l 1
 248.803710938 341.439453125 l 1
 371.424804688 516.33984375 l 1
 478.688476562 516.33984375 l 1
 300.96484375 266.920898438 l 1
 490.412109375 -0.1201171875 l 1
 383.208007812 -0.1201171875 l 1
EndSplineSet
EndChar

StartChar: y
Encoding: 121 121 92
Width: 516
GlyphClass: 2
Flags: MW
HStem: -150.06 90.1592<78.7969 121.427 78.7969 121.427> 496.34 20G<12.5264 117.633 117.633 117.633 408.358 511.47 511.47 511.47>
LayerCount: 2
Fore
SplineSet
121.426757812 -150.059570312 m 2
 78.796875 -150.059570312 l 1
 78.796875 -59.900390625 l 1
 121.426757812 -59.900390625 l 2
 150.1796875 -59.900390625 170.827148438 -55.5810546875 183.35546875 -48.177734375 c 0
 203.041992188 -36.5439453125 209.94140625 -16.9951171875 218.428710938 7.0537109375 c 1
 12.5263671875 516.33984375 l 1
 117.6328125 516.33984375 l 1
 266.310546875 134.703125 l 1
 408.358398438 516.33984375 l 1
 511.469726562 516.33984375 l 1
 290.959960938 -45.41015625 l 2
 264.478515625 -113.505859375 215.364257812 -150.059570312 121.426757812 -150.059570312 c 2
EndSplineSet
EndChar

StartChar: z
Encoding: 122 122 93
Width: 502
GlyphClass: 2
Flags: MW
HStem: -0.120117 88.2002<173.283 457.077 173.283 457.077> 427.16 89.1797<54.2969 457.077 54.2969 336.197>
LayerCount: 2
Fore
SplineSet
54.296875 427.16015625 m 1
 54.296875 516.33984375 l 1
 457.077148438 516.33984375 l 1
 457.077148438 431.870117188 l 1
 173.283203125 88.080078125 l 1
 457.077148438 88.080078125 l 1
 457.077148438 -0.1201171875 l 1
 54.296875 -0.1201171875 l 1
 54.296875 83.3564453125 l 1
 336.197265625 427.16015625 l 1
 54.296875 427.16015625 l 1
EndSplineSet
EndChar

StartChar: braceleft
Encoding: 123 123 94
Width: 382
GlyphClass: 2
Flags: MW
HStem: -82.4404 86.2402<229.97 336.537 280.187 336.537 280.187 336.537> 286.185 89.8691<54.2979 54.2979> 653.539 86.2402<265.902 280.188 280.188 336.538>
VStem: 140.537 98.9795<37.6104 46.4297 46.4297 212.05>
LayerCount: 2
Fore
SplineSet
257.646484375 -82.4404296875 m 2
 202.29296875 -82.4404296875 140.537109375 -61.3056640625 140.537109375 37.6103515625 c 2
 140.537109375 214.008789062 l 2
 140.537109375 241.889648438 134.357421875 259.825195312 124.21484375 269.43359375 c 0
 107.66015625 285.1171875 72.53515625 285.819335938 54.2978515625 286.184570312 c 1
 54.2978515625 376.053710938 l 1
 72.53515625 376.41796875 107.66015625 377.12109375 124.21484375 392.8046875 c 0
 134.3984375 402.452148438 140.538085938 420.061523438 140.538085938 447.249023438 c 2
 140.538085938 619.729492188 l 2
 140.538085938 663.3984375 151.98828125 739.779296875 257.647460938 739.779296875 c 2
 336.538085938 739.779296875 l 1
 336.538085938 653.5390625 l 1
 280.1875 653.5390625 l 2
 251.616210938 653.5390625 239.517578125 642.92578125 239.517578125 610.909179688 c 2
 239.517578125 450.189453125 l 2
 239.517578125 381.092773438 224.885742188 350.078125 188.439453125 330.642578125 c 1
 225.327148438 311.106445312 239.516601562 280.392578125 239.516601562 212.049804688 c 2
 239.516601562 46.4296875 l 2
 239.516601562 14.4150390625 251.61328125 3.7998046875 280.186523438 3.7998046875 c 2
 336.537109375 3.7998046875 l 1
 336.537109375 -82.4404296875 l 1
 257.646484375 -82.4404296875 l 2
EndSplineSet
Substitution2: "'rtla' Right to Left Alternates lookup 0 subtable" braceright
EndChar

StartChar: bar
Encoding: 124 124 95
Width: 295
GlyphClass: 2
Flags: MW
VStem: 105.257 95.0605<-81.46 739.78 -81.46 739.78>
LayerCount: 2
Fore
SplineSet
105.256835938 739.780273438 m 1
 200.317382812 739.780273438 l 1
 200.317382812 -81.4599609375 l 1
 105.256835938 -81.4599609375 l 1
 105.256835938 739.780273438 l 1
EndSplineSet
EndChar

StartChar: braceright
Encoding: 125 125 96
Width: 382
GlyphClass: 2
Flags: MW
HStem: -82.4404 86.2402<54.2969 110.647 110.647 124.934 54.2969 132.207 54.2969 110.647> 286.183 89.875<336.537 336.537> 653.54 86.2402<54.2969 110.646 54.2969 132.207>
VStem: 151.318 97.999<46.4297 212.05 212.05 214.01>
LayerCount: 2
Fore
SplineSet
249.317382812 37.6103515625 m 2
 249.317382812 -10 235.765625 -82.4404296875 132.20703125 -82.4404296875 c 2
 54.296875 -82.4404296875 l 1
 54.296875 3.7998046875 l 1
 110.647460938 3.7998046875 l 2
 139.219726562 3.7998046875 151.318359375 14.4130859375 151.318359375 46.4296875 c 2
 151.318359375 212.049804688 l 2
 151.318359375 280.412109375 165.518554688 311.112304688 202.395507812 330.642578125 c 1
 165.954101562 350.076171875 151.317382812 381.084960938 151.317382812 450.190429688 c 2
 151.317382812 610.91015625 l 2
 151.317382812 642.92578125 139.220703125 653.540039062 110.646484375 653.540039062 c 2
 54.296875 653.540039062 l 1
 54.296875 739.780273438 l 1
 132.20703125 739.780273438 l 2
 196.88671875 739.780273438 249.317382812 711.481445312 249.317382812 619.73046875 c 2
 249.317382812 447.25 l 2
 249.317382812 420.0625 255.456054688 402.453125 265.639648438 392.805664062 c 0
 282.194335938 377.123046875 318.234375 376.416015625 336.537109375 376.057617188 c 1
 336.537109375 286.182617188 l 1
 318.234375 285.823242188 282.194335938 285.116210938 265.639648438 269.434570312 c 0
 255.497070312 259.826171875 249.317382812 241.890625 249.317382812 214.009765625 c 2
 249.317382812 37.6103515625 l 2
EndSplineSet
Substitution2: "'rtla' Right to Left Alternates lookup 0 subtable" braceleft
EndChar

StartChar: asciitilde
Encoding: 126 126 97
Width: 512
GlyphClass: 2
Flags: MW
HStem: 202.741 88.2002<329.988 352.177> 262.52 87.2217<166.074 188.907>
LayerCount: 2
Fore
SplineSet
180.227539062 349.741210938 m 0x40
 204.58203125 349.741210938 227.53125 345.821289062 275.138671875 315.383789062 c 0
 314.614257812 293.288085938 322.948242188 290.94140625 337.028320312 290.94140625 c 0
 370.85546875 290.94140625 386.202148438 313.959960938 406.818359375 351.755859375 c 1
 475.770507812 308.958007812 l 1
 467.2265625 290.319335938 450.716796875 254.30078125 415.854492188 228.666015625 c 0
 392.47265625 211.47265625 366.34765625 202.741210938 338.006835938 202.741210938 c 0x80
 311.3046875 202.741210938 289.110351562 208.124023438 242.797851562 237.291015625 c 0
 210.143554688 259.059570312 195.626953125 262.51953125 182.186523438 262.51953125 c 0
 149.028320312 262.51953125 134.672851562 241.7265625 113.451171875 202.8203125 c 1
 43.3896484375 244.3828125 l 1
 52.015625 263.202148438 68.5009765625 299.169921875 102.88671875 324.317382812 c 0
 125.9609375 341.192382812 151.920898438 349.741210938 180.227539062 349.741210938 c 0x40
EndSplineSet
EndChar

StartChar: exclamdown
Encoding: 161 161 99
Width: 245
GlyphClass: 2
Flags: MW
HStem: 397.76 118.58<70.957 185.617 70.957 185.617>
VStem: 70.957 114.66<397.76 516.34 397.76 516.34> 88.8799 78.8301<314.46 314.46>
LayerCount: 2
Fore
SplineSet
70.95703125 516.33984375 m 1xc0
 185.6171875 516.33984375 l 1
 185.6171875 397.759765625 l 1
 70.95703125 397.759765625 l 1
 70.95703125 516.33984375 l 1xc0
167.709960938 314.459960938 m 1xa0
 184.9140625 -150.059570312 l 1
 70.6630859375 -150.059570312 l 1
 88.8798828125 314.459960938 l 1
 167.709960938 314.459960938 l 1xa0
EndSplineSet
EndChar

StartChar: cent
Encoding: 162 162 100
Width: 555
GlyphClass: 2
Flags: MW
HStem: -7.23438 89.7939<253.236 253.237> 433.662 90.7734<253.236 253.237>
VStem: 54.2969 97.999<233.611 235.57 235.57 281.63 190.142 283.591 190.142 319.463> 253.236 74.4795<82.5596 433.662 433.662 433.662> 412.979 96.0381<324.26 336.51>
LayerCount: 2
Fore
SplineSet
327.715820312 82.3701171875 m 1
 343.127929688 84.9951171875 412.9765625 97.607421875 412.9765625 178.731445312 c 2
 412.9765625 190.000976562 l 1
 509.016601562 190.000976562 l 1
 509.016601562 178.731445312 l 2
 509.016601562 125.573242188 492.5390625 81.791015625 459.333007812 48.5849609375 c 0
 427.403320312 16.654296875 383.225585938 -1.802734375 327.716796875 -7.3310546875 c 1
 327.716796875 -98.119140625 l 1
 253.237304688 -98.119140625 l 1
 253.237304688 -7.234375 l 1
 207.646484375 -2.0126953125 54.296875 24.416015625 54.296875 233.611328125 c 2
 54.296875 283.590820312 l 2
 54.296875 355.334960938 72.099609375 412.494140625 108.549804688 454.053710938 c 0
 143.649414062 494.07421875 192.239257812 517.450195312 253.237304688 524.435546875 c 1
 253.237304688 613.361328125 l 1
 327.716796875 613.361328125 l 1
 327.716796875 524.532226562 l 1
 383.241210938 518.989257812 427.43359375 500.35546875 459.360351562 468.099609375 c 0
 492.559570312 434.556640625 509.016601562 390.297851562 509.016601562 336.509765625 c 2
 509.016601562 324.259765625 l 1
 412.978515625 324.259765625 l 1
 412.978515625 336.509765625 l 2
 412.978515625 370.522460938 400.328125 421.481445312 327.715820312 433.852539062 c 1
 327.715820312 82.3701171875 l 1
152.295898438 235.5703125 m 2
 152.295898438 144.713867188 185.911132812 95.5888671875 253.236328125 82.5595703125 c 1
 253.236328125 433.662109375 l 1
 185.8828125 420.65234375 152.295898438 371.829101562 152.295898438 281.629882812 c 2
 152.295898438 235.5703125 l 2
EndSplineSet
EndChar

StartChar: sterling
Encoding: 163 163 101
Width: 504
GlyphClass: 2
Flags: MW
HStem: -0.119141 87.502<56.2568 479.617 56.2568 56.2568> -0.119141 95.0596<183.696 479.617 183.696 479.617> 281.141 93.1006<33.7168 107.217 33.7168 107.217 211.097 377.697> 521.241 21G<376.717 476.677 376.717 376.717> 607.481 93.0996<273.272 323.578 201.952 323.714>
VStem: 107.217 103.88<179.711 189.511 189.511 281.141 168.251 281.141 374.241 499.191 499.191 510.951> 376.717 99.96<521.241 528.591 521.241 554.7>
LayerCount: 2
Fore
SplineSet
211.096679688 189.510742188 m 2xbe
 211.096679688 146.991210938 201.416015625 118.046875 183.696289062 94.9404296875 c 1
 479.6171875 94.9404296875 l 1
 479.6171875 -0.119140625 l 1x7e
 56.2568359375 -0.119140625 l 1
 56.2568359375 87.3828125 l 1
 82.6162109375 99.62109375 107.216796875 114.673828125 107.216796875 179.7109375 c 2
 107.216796875 281.140625 l 1
 33.716796875 281.140625 l 1
 33.716796875 374.241210938 l 1
 107.216796875 374.241210938 l 1
 107.216796875 499.19140625 l 2
 107.216796875 536.657226562 109.017578125 700.581054688 294.88671875 700.581054688 c 0
 352.268554688 700.581054688 397.473632812 686.033203125 429.294921875 655.94140625 c 0
 461.143554688 625.82421875 476.676757812 582.887695312 476.676757812 528.590820312 c 2
 476.676757812 521.241210938 l 1
 376.716796875 521.241210938 l 1
 376.716796875 528.590820312 l 2
 376.716796875 580.809570312 353.520507812 607.481445312 293.907226562 607.481445312 c 0
 252.637695312 607.481445312 211.096679688 591.2578125 211.096679688 510.951171875 c 2
 211.096679688 374.241210938 l 1
 377.697265625 374.241210938 l 1
 377.697265625 281.140625 l 1
 211.096679688 281.140625 l 1
 211.096679688 189.510742188 l 2xbe
EndSplineSet
EndChar

StartChar: currency
Encoding: 164 164 102
Width: 607
GlyphClass: 2
Flags: MW
HStem: 121.401 86.2393<290.208 323.433 290.208 326.52> 439.901 86.2393<290.208 323.433>
VStem: 104.277 89.1807<306.958 340.583 306.958 343.894> 419.837 90.1602<306.945 340.597>
LayerCount: 2
Fore
SplineSet
306.646484375 121.401367188 m 0
 266.899414062 121.401367188 230.8125 131.508789062 198.809570312 151.703125 c 1
 130.162109375 84.0498046875 l 1
 66.0009765625 149.377929688 l 1
 133.668945312 217.044921875 l 1
 114.104492188 249.526367188 104.27734375 285.22265625 104.27734375 323.770507812 c 0
 104.27734375 364.017578125 114.326171875 399.823242188 134.502929688 430.704101562 c 1
 65.9921875 500.208007812 l 1
 130.208984375 564.42578125 l 1
 198.904296875 496.725585938 l 1
 231.4453125 516.31640625 267.483398438 526.140625 306.646484375 526.140625 c 0
 346.331054688 526.140625 382.096679688 516.36328125 413.518554688 496.774414062 c 1
 483.122070312 564.388671875 l 1
 547.33984375 500.170898438 l 1
 478.76171875 431.592773438 l 1
 499.547851562 399.059570312 509.997070312 362.981445312 509.997070312 323.770507812 c 0
 509.997070312 284.637695312 499.885742188 248.891601562 479.719726562 216.94921875 c 1
 548.272460938 148.396484375 l 1
 484.111328125 83.068359375 l 1
 414.483398438 151.701171875 l 1
 382.481445312 131.5078125 346.393554688 121.401367188 306.646484375 121.401367188 c 0
419.836914062 323.770507812 m 0
 419.836914062 357.422851562 409.25390625 384.783203125 388.0703125 406.887695312 c 0
 366.9609375 428.915039062 340.21875 439.901367188 306.646484375 439.901367188 c 0
 273.76953125 439.901367188 247.155273438 428.940429688 225.677734375 406.848632812 c 0
 204.1796875 384.737304688 193.458007812 357.39453125 193.458007812 323.770507812 c 0
 193.458007812 290.146484375 204.1796875 262.8046875 225.677734375 240.693359375 c 0
 247.155273438 218.6015625 273.76953125 207.640625 306.646484375 207.640625 c 0
 340.21875 207.640625 366.9609375 218.626953125 388.0703125 240.654296875 c 0
 409.25390625 262.758789062 419.836914062 290.119140625 419.836914062 323.770507812 c 0
EndSplineSet
EndChar

StartChar: yen
Encoding: 165 165 103
Width: 535
GlyphClass: 2
Flags: MW
HStem: -0.120117 21G<219.917 323.797 219.917 219.917> 140.02 79.3809<60.1768 219.917 60.1768 219.917 323.797 484.517> 265.46 80.3604<60.1768 194.336 60.1768 219.917 60.1768 194.336 349.347 484.517> 670.78 20G<7.15625 122.018 122.018 122.018 420.69 535.547 535.547 535.547>
VStem: 219.917 103.88<-0.120117 140.02 -0.120117 140.02 219.4 265.46>
LayerCount: 2
Fore
SplineSet
323.796875 140.01953125 m 1
 323.796875 -0.1201171875 l 1
 219.916992188 -0.1201171875 l 1
 219.916992188 140.01953125 l 1
 60.1767578125 140.01953125 l 1
 60.1767578125 219.400390625 l 1
 219.916992188 219.400390625 l 1
 219.916992188 265.459960938 l 1
 60.1767578125 265.459960938 l 1
 60.1767578125 345.8203125 l 1
 194.3359375 345.8203125 l 1
 7.15625 690.780273438 l 1
 122.017578125 690.780273438 l 1
 272.3046875 394.9609375 l 1
 420.690429688 690.780273438 l 1
 535.546875 690.780273438 l 1
 349.346679688 345.8203125 l 1
 484.516601562 345.8203125 l 1
 484.516601562 265.459960938 l 1
 323.796875 265.459960938 l 1
 323.796875 219.400390625 l 1
 484.516601562 219.400390625 l 1
 484.516601562 140.01953125 l 1
 323.796875 140.01953125 l 1
EndSplineSet
EndChar

StartChar: brokenbar
Encoding: 166 166 104
Width: 295
GlyphClass: 2
Flags: MW
VStem: 105.257 95.0605<-66.7598 293.88 -66.7598 293.88 365.42 725.08>
LayerCount: 2
Fore
SplineSet
105.256835938 725.080078125 m 1
 200.317382812 725.080078125 l 1
 200.317382812 365.419921875 l 1
 105.256835938 365.419921875 l 1
 105.256835938 725.080078125 l 1
105.256835938 293.879882812 m 1
 200.317382812 293.879882812 l 1
 200.317382812 -66.759765625 l 1
 105.256835938 -66.759765625 l 1
 105.256835938 293.879882812 l 1
EndSplineSet
EndChar

StartChar: section
Encoding: 167 167 105
Width: 561
GlyphClass: 2
Flags: MW
HStem: -164.76 88.1982<251.542 311.451> 626.101 88.2002<265.286 317.657 259.355 326.36>
VStem: 73.8965 98.9795<257.776 290.602> 88.5957 95.0605<6.24805 13.5977 -13.8862 13.5977> 98.3975 98.9795<530.239 580.804> 377.697 98.9795<-17.73 9.5166> 396.316 98.9805<256.638 300.802>
LayerCount: 2
Fore
SplineSet
400.903320312 123.1171875 m 1xca
 456.26171875 94.0888671875 476.676757812 49.9365234375 476.676757812 -5.509765625 c 0
 476.676757812 -55.0234375 458.91796875 -94.73046875 423.4296875 -122.983398438 c 0
 388.118164062 -151.094726562 340.755859375 -164.759765625 282.146484375 -164.759765625 c 0
 220.936523438 -164.759765625 172.901367188 -150.29296875 139.090820312 -120.27734375 c 0
 105.244140625 -90.23046875 88.595703125 -47.5341796875 88.595703125 6.248046875 c 2
 88.595703125 13.59765625 l 1
 183.65625 13.59765625 l 1
 183.65625 6.248046875 l 2xd4
 183.65625 -34.0205078125 199.317382812 -76.5615234375 282.146484375 -76.5615234375 c 0
 369.447265625 -76.5615234375 377.697265625 -30.9287109375 377.697265625 -4.53125 c 0
 377.697265625 23.564453125 367.615234375 42.5556640625 347.422851562 54.845703125 c 0
 326.208007812 67.759765625 289.375976562 80.154296875 237.375976562 91.205078125 c 0
 129.918945312 115.901367188 73.896484375 177.348632812 73.896484375 273.790039062 c 0xe4
 73.896484375 307.4140625 80.298828125 392.000976562 171.305664062 432.129882812 c 1
 148.861328125 443.717773438 98.3974609375 473.387695312 98.3974609375 557.010742188 c 0
 98.3974609375 604.59765625 115.674804688 643.40234375 150.05859375 671.938476562 c 0
 184.396484375 700.439453125 230.682617188 714.30078125 288.02734375 714.30078125 c 0
 347.287109375 714.30078125 393.72265625 700.15234375 426.233398438 670.75390625 c 0
 458.706054688 641.389648438 474.716796875 600.365234375 474.716796875 549.170898438 c 2
 474.716796875 541.821289062 l 1
 379.657226562 541.821289062 l 1
 379.657226562 549.170898438 l 2
 379.657226562 585.870117188 365.672851562 626.100585938 287.046875 626.100585938 c 0
 243.525390625 626.100585938 197.376953125 612.918945312 197.376953125 557.010742188 c 0
 197.376953125 503.467773438 234.459960938 484.712890625 333.814453125 463.223632812 c 0
 379.401367188 453.364257812 417.490234375 433.5625 448.240234375 406.190429688 c 0
 479.973632812 377.943359375 495.296875 335.532226562 495.296875 280.649414062 c 0
 495.296875 232.626953125 481.215820312 158.026367188 400.903320312 123.1171875 c 1xca
285.0859375 178.23828125 m 0
 317.51953125 178.23828125 396.31640625 184.232421875 396.31640625 276.727539062 c 0
 396.31640625 324.876953125 375.18359375 376.197265625 285.0859375 376.197265625 c 0
 238.341796875 376.197265625 172.875976562 362.803710938 172.875976562 276.727539062 c 0xe2
 172.875976562 238.82421875 184.931640625 178.23828125 285.0859375 178.23828125 c 0
EndSplineSet
EndChar

StartChar: dieresis
Encoding: 168 168 106
Width: 502
GlyphClass: 2
Flags: MW
HStem: 569.26 107.8<101.337 199.337 101.337 199.337 312.037 409.057>
VStem: 101.337 98<569.26 677.06 569.26 677.06> 312.037 97.0195<569.26 677.06 569.26 677.06>
LayerCount: 2
Fore
SplineSet
101.336914062 677.059570312 m 1
 199.336914062 677.059570312 l 1
 199.336914062 569.259765625 l 1
 101.336914062 569.259765625 l 1
 101.336914062 677.059570312 l 1
312.037109375 677.059570312 m 1
 409.056640625 677.059570312 l 1
 409.056640625 569.259765625 l 1
 312.037109375 569.259765625 l 1
 312.037109375 677.059570312 l 1
EndSplineSet
EndChar

StartChar: copyright
Encoding: 169 169 107
Width: 801
GlyphClass: 2
Flags: MW
HStem: -8.94043 72.5205<326.572 488.707 326.572 505.4> 144.921 70.5605<384.824 423.04 384.824 460.086> 469.301 71.54<382.059 423.072> 618.261 73.499<322.509 489.919>
VStem: 63.1172 77.4199<254.514 424.169 254.514 447.098> 232.658 80.3594<322.791 324.751 324.751 361.011 280.658 362.971 280.658 391.077> 492.358 78.3994<279.671 290.941 239.575 290.941> 669.738 77.4189<259.475 422.45>
LayerCount: 2
Fore
SplineSet
405.626953125 -8.9404296875 m 0
 202.955078125 -8.9404296875 63.1171875 130.017578125 63.1171875 341.41015625 c 0
 63.1171875 552.786132812 202.939453125 691.759765625 405.626953125 691.759765625 c 0
 610.084960938 691.759765625 747.157226562 550.143554688 747.157226562 341.41015625 c 0
 747.157226562 127.111328125 605.172851562 -8.9404296875 405.626953125 -8.9404296875 c 0
405.626953125 63.580078125 m 0
 571.787109375 63.580078125 669.73828125 177.5390625 669.73828125 341.411132812 c 0
 669.73828125 503.489257812 574.211914062 618.260742188 405.626953125 618.260742188 c 0
 239.390625 618.260742188 140.537109375 506.927734375 140.537109375 341.411132812 c 0
 140.537109375 167.6171875 247.517578125 63.580078125 405.626953125 63.580078125 c 0
570.7578125 279.670898438 m 2
 570.7578125 199.478515625 511.603515625 144.920898438 408.568359375 144.920898438 c 0
 355.567382812 144.920898438 312.487304688 159.95703125 280.498046875 190.571289062 c 0
 248.291992188 221.391601562 232.658203125 265.951171875 232.658203125 322.791015625 c 2
 232.658203125 362.970703125 l 2
 232.658203125 419.18359375 248.313476562 463.555664062 280.467773438 494.671875 c 0
 312.452148438 525.625 355.548828125 540.840820312 408.568359375 540.840820312 c 0
 458.043945312 540.840820312 497.948242188 529.125976562 527.405273438 504.8671875 c 0
 556.923828125 480.55859375 571.73828125 447.123046875 571.73828125 406.090820312 c 2
 571.73828125 394.821289062 l 1
 492.358398438 394.821289062 l 1
 492.358398438 405.111328125 l 2
 492.358398438 426.178710938 485.282226562 441.297851562 471.19921875 452.219726562 c 0
 456.899414062 463.310546875 436.596679688 469.30078125 409.547851562 469.30078125 c 0
 321.579101562 469.30078125 313.017578125 401.012695312 313.017578125 361.010742188 c 2
 313.017578125 324.750976562 l 2
 313.017578125 236.565429688 359.120117188 215.481445312 410.528320312 215.481445312 c 0
 435.55078125 215.481445312 492.358398438 220.934570312 492.358398438 279.670898438 c 2
 492.358398438 290.94140625 l 1
 570.7578125 290.94140625 l 1
 570.7578125 279.670898438 l 2
EndSplineSet
EndChar

StartChar: ordfeminine
Encoding: 170 170 108
Width: 387
GlyphClass: 2
Flags: MW
HStem: 417.361 71.54<162.125 184.533> 554.561 62.7207<175.327 185.128 185.128 254.217 175.327 254.218> 679.02 68.6006<180.661 218.162 143.226 218.486>
VStem: 45.4766 82.3203<511.271 528.013 511.271 546.023> 55.2783 79.3799<637.86 647.17 637.86 673.259> 254.218 84.2793<548.191 554.561 554.561 554.561>
LayerCount: 2
Fore
SplineSet
194.926757812 747.620117188 m 0xec
 241.396484375 747.620117188 338.497070312 739.122070312 338.497070312 626.58984375 c 2
 338.497070312 421.28125 l 1
 257.157226562 421.28125 l 1
 257.157226562 444.799804688 l 1
 233.028320312 426.4140625 202.55859375 417.361328125 166.506835938 417.361328125 c 0
 128.861328125 417.361328125 98.8681640625 425.911132812 77.470703125 444.098632812 c 0
 56.08203125 462.279296875 45.4765625 487.6953125 45.4765625 518.791015625 c 0xf4
 45.4765625 573.254882812 79.1455078125 617.28125 175.327148438 617.28125 c 2
 254.216796875 617.28125 l 1
 254.216796875 630.510742188 l 2
 254.216796875 655.11328125 244.984375 679.01953125 191.987304688 679.01953125 c 0
 169.334960938 679.01953125 134.658203125 674.548828125 134.658203125 647.169921875 c 2
 134.658203125 637.860351562 l 1
 55.2783203125 637.860351562 l 1
 55.2783203125 647.169921875 l 2
 55.2783203125 699.34765625 91.525390625 747.620117188 194.926757812 747.620117188 c 0xec
182.186523438 488.901367188 m 0
 238.321289062 488.901367188 254.217773438 511.638671875 254.217773438 548.19140625 c 2
 254.217773438 554.560546875 l 1
 185.127929688 554.560546875 l 2
 130.708984375 554.560546875 127.796875 534.294921875 127.796875 521.731445312 c 0
 127.796875 500.811523438 142.063476562 488.901367188 182.186523438 488.901367188 c 0
18.5283203125 693.231445312 m 1024
EndSplineSet
EndChar

StartChar: guillemotleft
Encoding: 171 171 109
Width: 554
GlyphClass: 2
Flags: W
LayerCount: 2
Fore
SplineSet
268.916992188 483.104492188 m 1
 268.916992188 374.307617188 l 1
 143.450195312 265.950195312 l 1
 268.916992188 157.591796875 l 1
 268.916992188 48.794921875 l 1
 22.1015625 265.950195312 l 1
 268.916992188 483.104492188 l 1
493.336914062 483.104492188 m 1
 493.336914062 374.307617188 l 1
 367.870117188 265.950195312 l 1
 493.336914062 157.591796875 l 1
 493.336914062 48.794921875 l 1
 246.521484375 265.950195312 l 1
 493.336914062 483.104492188 l 1
EndSplineSet
EndChar

StartChar: logicalnot
Encoding: 172 172 110
Width: 512
GlyphClass: 2
Flags: MW
HStem: 255.66 90.1602<55.2773 365.937 55.2773 464.917>
VStem: 365.937 98.9805<126.3 255.66 255.66 255.66>
LayerCount: 2
Fore
SplineSet
365.936523438 255.66015625 m 1
 55.27734375 255.66015625 l 1
 55.27734375 345.8203125 l 1
 464.916992188 345.8203125 l 1
 464.916992188 126.299804688 l 1
 365.936523438 126.299804688 l 1
 365.936523438 255.66015625 l 1
EndSplineSet
EndChar

StartChar: uni00AD
Encoding: 173 173 111
Width: 426
GlyphClass: 2
Flags: MW
HStem: 299.76 94.0801<54.2969 380.637 54.2969 380.637>
VStem: 54.2969 326.34<299.76 393.84 299.76 393.84>
LayerCount: 2
Fore
SplineSet
54.296875 393.83984375 m 1
 380.63671875 393.83984375 l 1
 380.63671875 299.759765625 l 1
 54.296875 299.759765625 l 1
 54.296875 393.83984375 l 1
EndSplineSet
EndChar

StartChar: registered
Encoding: 174 174 112
Width: 522
GlyphClass: 2
Flags: MW
HStem: 300.74 48.0195<243.458 285.555 243.458 318.931> 469.3 49.001<242.457 263.738 242.457 273.327> 559.461 49.9785<242.457 273.327 242.457 242.457> 642.76 48.0205<243.458 285.212>
VStem: 73.8965 50.96<474.126 518.034 474.126 553.299> 187.577 54.8799<385.02 469.3 385.02 518.301 518.301 559.461> 298.317 53.8994<534.306 543.783> 406.117 49.9795<474.147 518.001>
LayerCount: 2
Fore
SplineSet
264.506835938 300.740234375 m 0
 154.35546875 300.740234375 73.896484375 382.810546875 73.896484375 496.25 c 0
 73.896484375 610.34765625 156.981445312 690.780273438 264.506835938 690.780273438 c 0
 377.170898438 690.780273438 456.096679688 604.88671875 456.096679688 496.25 c 0
 456.096679688 380.669921875 373.354492188 300.740234375 264.506835938 300.740234375 c 0
406.1171875 496.25 m 0
 406.1171875 539.752929688 392.724609375 574.58203125 366.071289062 601.854492188 c 0
 339.390625 629.154296875 305.916992188 642.759765625 264.506835938 642.759765625 c 0
 222.408203125 642.759765625 189.168945312 629.139648438 163.5234375 601.94921875 c 0
 137.81640625 574.694335938 124.856445312 539.817382812 124.856445312 496.25 c 0
 124.856445312 452.001953125 137.836914062 416.803710938 163.5234375 389.571289062 c 0
 189.168945312 362.379882812 222.408203125 348.759765625 264.506835938 348.759765625 c 0
 306.603515625 348.759765625 340.2109375 362.385742188 366.530273438 389.634765625 c 0
 392.846679688 416.87890625 406.1171875 452.043945312 406.1171875 496.25 c 0
275.287109375 609.439453125 m 2
 298.387695312 609.439453125 352.216796875 602.650390625 352.216796875 539.37109375 c 0
 352.216796875 511.561523438 340.661132812 490.409179688 318.291015625 478.109375 c 1
 361.254882812 385.01953125 l 1
 349.766601562 385.01953125 l 1
 307.626953125 385.01953125 l 1
 302.938476562 385.01953125 l 1
 263.73828125 469.299804688 l 1
 242.45703125 469.299804688 l 1
 242.45703125 385.01953125 l 1
 187.577148438 385.01953125 l 1
 187.577148438 609.439453125 l 1
 275.287109375 609.439453125 l 2
298.317382812 539.37109375 m 0
 298.317382812 548.1953125 296.287109375 559.4609375 273.327148438 559.4609375 c 2
 242.45703125 559.4609375 l 1
 242.45703125 518.30078125 l 1
 273.327148438 518.30078125 l 2
 295.540039062 518.30078125 298.317382812 529.240234375 298.317382812 539.37109375 c 0
EndSplineSet
EndChar

StartChar: macron
Encoding: 175 175 113
Width: 502
GlyphClass: 2
Flags: MW
HStem: 578.08 90.1602<99.377 412.977 99.377 412.977>
VStem: 99.377 313.6<578.08 668.24 578.08 668.24>
LayerCount: 2
Fore
SplineSet
99.376953125 668.240234375 m 1
 412.9765625 668.240234375 l 1
 412.9765625 578.080078125 l 1
 99.376953125 578.080078125 l 1
 99.376953125 668.240234375 l 1
EndSplineSet
EndChar

StartChar: degree
Encoding: 176 176 114
Width: 405
GlyphClass: 2
Flags: MW
HStem: 410.5 70.5596<197.741 219.196 197.741 250.354> 631.98 68.5996<197.741 219.196>
VStem: 63.1162 72.5205<545.084 567.33 545.084 576.486> 280.677 72.5205<545.084 567.33>
LayerCount: 2
Fore
SplineSet
353.197265625 556.030273438 m 0
 353.197265625 475.438476562 292.061523438 410.5 208.647460938 410.5 c 0
 167.092773438 410.5 131.982421875 424.489257812 104.438476562 452.375976562 c 0
 76.94140625 480.216796875 63.1162109375 515.118164062 63.1162109375 556.030273438 c 0
 63.1162109375 596.94140625 76.9443359375 631.700195312 104.469726562 659.2265625 c 0
 132.020507812 686.77734375 167.116210938 700.580078125 208.646484375 700.580078125 c 0
 248.939453125 700.580078125 283.505859375 686.73046875 311.3203125 659.258789062 c 0
 339.182617188 631.740234375 353.197265625 596.965820312 353.197265625 556.030273438 c 0
280.676757812 556.030273438 m 0
 280.676757812 578.62890625 273.810546875 596.50390625 260.180664062 610.7265625 c 0
 246.540039062 624.959960938 229.745117188 631.98046875 208.646484375 631.98046875 c 0
 186.834960938 631.98046875 169.729492188 624.9140625 156.133789062 610.7265625 c 0
 142.50390625 596.50390625 135.63671875 578.62890625 135.63671875 556.030273438 c 0
 135.63671875 534.138671875 142.463867188 516.578125 156.133789062 502.313476562 c 0
 169.729492188 488.125976562 186.834960938 481.059570312 208.646484375 481.059570312 c 0
 229.745117188 481.059570312 246.540039062 488.081054688 260.1796875 502.313476562 c 0
 273.849609375 516.578125 280.676757812 534.138671875 280.676757812 556.030273438 c 0
EndSplineSet
EndChar

StartChar: plusminus
Encoding: 177 177 115
Width: 512
GlyphClass: 2
Flags: MW
HStem: -10.9004 94.0801<55.2773 464.917 55.2773 464.917> 274.28 94.0801<55.2773 213.057 55.2773 213.057 307.137 464.917>
VStem: 213.057 94.0801<116.5 274.28 116.5 274.28 368.36 526.14>
LayerCount: 2
Fore
SplineSet
307.13671875 274.280273438 m 1
 307.13671875 116.5 l 1
 213.056640625 116.5 l 1
 213.056640625 274.280273438 l 1
 55.27734375 274.280273438 l 1
 55.27734375 368.360351562 l 1
 213.056640625 368.360351562 l 1
 213.056640625 526.139648438 l 1
 307.13671875 526.139648438 l 1
 307.13671875 368.360351562 l 1
 464.916992188 368.360351562 l 1
 464.916992188 274.280273438 l 1
 307.13671875 274.280273438 l 1
55.27734375 83.1796875 m 1
 464.916992188 83.1796875 l 1
 464.916992188 -10.900390625 l 1
 55.27734375 -10.900390625 l 1
 55.27734375 83.1796875 l 1
EndSplineSet
EndChar

StartChar: uni00B2
Encoding: 178 178 116
Width: 380
GlyphClass: 2
Flags: MW
HStem: 421.28 80.3594<183.484 339.477 183.484 339.477> 774.081 77.4189<176.573 207.333>
VStem: 49.3965 88.2002<711.36 725.57 711.36 727.53 711.36 765.31> 246.377 91.1387<720.671 721.65 721.65 726.551 726.551 729.49 699.925 745.321>
LayerCount: 2
Fore
SplineSet
49.396484375 727.530273438 m 2
 49.396484375 803.08984375 102.015625 851.5 194.926757812 851.5 c 0
 238.546875 851.5 273.62890625 840.91015625 299.194335938 818.845703125 c 0
 324.765625 796.77734375 337.515625 766.498046875 337.515625 729.490234375 c 2
 337.515625 721.650390625 l 2
 337.515625 678.200195312 318.953125 645.971679688 276.606445312 600.854492188 c 2
 183.484375 501.639648438 l 1
 339.4765625 501.639648438 l 1
 339.4765625 421.280273438 l 1
 53.3173828125 421.280273438 l 1
 53.3173828125 490.379882812 l 1
 55.359375 492.512695312 l 1
 55.359375 492.512695312 211.178710938 655.193359375 211.291015625 655.307617188 c 0
 240.298828125 684.315429688 246.376953125 702.233398438 246.376953125 720.670898438 c 2
 246.376953125 726.55078125 l 2
 246.376953125 764.091796875 221.69921875 774.081054688 192.966796875 774.081054688 c 0
 160.1796875 774.081054688 137.596679688 761.163085938 137.596679688 725.5703125 c 2
 137.596679688 711.360351562 l 1
 49.396484375 711.360351562 l 1
 49.396484375 727.530273438 l 2
EndSplineSet
EndChar

StartChar: uni00B3
Encoding: 179 179 117
Width: 378
GlyphClass: 2
Flags: MW
HStem: 415.4 76.4375<168.925 215.911 162.763 237.423> 600.618 78.4004<153.276 184.146 153.276 184.146> 774.078 77.4199<174.817 212.18>
VStem: 48.416 82.3203<533.488 535.448 535.448 548.678 526.95 548.678> 249.316 88.2002<540.348 540.349 540.349 548.188 548.188 549.169 502.511 563.372>
LayerCount: 2
Fore
SplineSet
337.516601562 540.348632812 m 2
 337.516601562 464.673828125 283.83984375 415.400390625 191.006835938 415.400390625 c 0
 146.842773438 415.400390625 111.685546875 425.24609375 86.3935546875 445.97265625 c 0
 60.9912109375 466.788085938 48.416015625 496.517578125 48.416015625 533.48828125 c 2
 48.416015625 548.677734375 l 1
 130.736328125 548.677734375 l 1
 130.736328125 535.448242188 l 2
 130.736328125 518.452148438 135.5 491.837890625 190.026367188 491.837890625 c 0
 241.795898438 491.837890625 249.31640625 518.1953125 249.31640625 540.34765625 c 2
 249.31640625 548.188476562 l 2
 249.31640625 578.5546875 236.26171875 600.618164062 184.146484375 600.618164062 c 2
 153.276367188 600.618164062 l 1
 153.276367188 679.018554688 l 1
 184.146484375 679.018554688 l 2
 236.91015625 679.018554688 242.456054688 705.220703125 242.456054688 723.608398438 c 2
 242.456054688 730.467773438 l 2
 242.456054688 749.69921875 236.293945312 774.078125 188.06640625 774.078125 c 0
 161.568359375 774.078125 132.696289062 766.305664062 132.696289062 732.427734375 c 2
 132.696289062 718.217773438 l 1
 50.3759765625 718.217773438 l 1
 50.3759765625 732.427734375 l 2
 50.3759765625 769.400390625 62.9462890625 799.263671875 88.3046875 820.396484375 c 0
 113.547851562 841.432617188 148.081054688 851.498046875 191.005859375 851.498046875 c 0
 233.885742188 851.498046875 268.22265625 841.795898438 293.162109375 821.422851562 c 0
 318.122070312 801.030273438 330.657226562 772.810546875 330.657226562 738.30859375 c 2
 330.657226562 730.46875 l 2
 330.657226562 692.701171875 314.583007812 663.904296875 283.637695312 645.6640625 c 1
 319.282226562 627.118164062 337.516601562 594.208984375 337.516601562 549.168945312 c 2
 337.516601562 540.348632812 l 2
EndSplineSet
EndChar

StartChar: acute
Encoding: 180 180 118
Width: 502
GlyphClass: 2
Flags: MW
HStem: 565.34 140.141<150.596 394.659 150.596 394.659>
VStem: 150.596 244.063<565.34 705.48>
LayerCount: 2
Fore
SplineSet
269.93359375 705.48046875 m 1
 394.659179688 705.48046875 l 1
 246.85546875 565.33984375 l 1
 150.595703125 565.33984375 l 1
 269.93359375 705.48046875 l 1
EndSplineSet
EndChar

StartChar: uni00B5
Encoding: 181 181 119
Width: 573
GlyphClass: 2
Flags: MW
HStem: -6 88.1992<267.788 304.338> 496.34 20G<68.9971 166.997 166.997 166.997 412.977 511.957 511.957 511.957>
VStem: 68.9971 98<-150.06 23.6973 182.326 202.249 202.249 516.34> 412.977 98.9805<218.91 516.34 -0.120117 516.34>
LayerCount: 2
Fore
SplineSet
166.997070312 516.33984375 m 1
 166.997070312 202.249023438 l 2
 166.997070312 162.40234375 177.818359375 133.106445312 198.575195312 112.952148438 c 0
 219.450195312 92.6826171875 248.529296875 82.19921875 287.046875 82.19921875 c 0
 327.370117188 82.19921875 357.772460938 94.1689453125 379.677734375 117.596679688 c 0
 401.583007812 141.022460938 412.9765625 174.404296875 412.9765625 218.91015625 c 2
 412.9765625 516.33984375 l 1
 511.95703125 516.33984375 l 1
 511.95703125 -0.1201171875 l 1
 414.936523438 -0.1201171875 l 1
 414.936523438 51.1640625 l 1
 380.36328125 13.0830078125 333.388671875 -6 275.287109375 -6 c 0
 230.45703125 -6 194.083984375 3.654296875 166.997070312 23.697265625 c 1
 166.997070312 -150.059570312 l 1
 68.9970703125 -150.059570312 l 1
 68.9970703125 516.33984375 l 1
 166.997070312 516.33984375 l 1
EndSplineSet
EndChar

StartChar: paragraph
Encoding: 182 182 120
Width: 681
GlyphClass: 2
Flags: MW
HStem: 601.6 89.1807<414.937 414.937 414.937 486.477>
VStem: 73.8965 341.04<443.165 510.412> 321.837 93.0996<-150.06 263.526 263.526 263.526> 486.477 93.1006<-150.06 601.6 601.6 601.6>
LayerCount: 2
Fore
SplineSet
414.936523438 601.599609375 m 1xb0
 414.936523438 -150.059570312 l 1
 321.836914062 -150.059570312 l 1
 321.836914062 263.526367188 l 1xb0
 244.299804688 264.328125 183.46484375 282.529296875 140.202148438 319.13671875 c 0
 95.8876953125 356.633789062 73.896484375 409.678710938 73.896484375 476.650390625 c 0xd0
 73.896484375 544.172851562 94.97265625 597.498046875 137.643554688 635.048828125 c 0
 180.202148438 672.5 239.165039062 690.780273438 313.506835938 690.780273438 c 2
 579.577148438 690.780273438 l 1
 579.577148438 -150.059570312 l 1
 486.4765625 -150.059570312 l 1
 486.4765625 601.599609375 l 1
 414.936523438 601.599609375 l 1xb0
EndSplineSet
EndChar

StartChar: periodcentered
Encoding: 183 183 121
Width: 205
GlyphClass: 2
Flags: MW
HStem: 214.5 119.56<50.377 165.037 50.377 165.037>
VStem: 50.377 114.66<214.5 334.06 214.5 334.06>
LayerCount: 2
Fore
SplineSet
50.376953125 334.059570312 m 1
 165.037109375 334.059570312 l 1
 165.037109375 214.5 l 1
 50.376953125 214.5 l 1
 50.376953125 334.059570312 l 1
EndSplineSet
EndChar

StartChar: cedilla
Encoding: 184 184 122
Width: 502
GlyphClass: 2
Flags: MW
HStem: -149.08 175.42<248.277 258.528 157.358 335.542>
VStem: 157.358 178.184<-149.08 26.3398>
LayerCount: 2
Fore
SplineSet
335.541992188 26.33984375 m 1
 258.528320312 -149.080078125 l 1
 157.358398438 -149.080078125 l 1
 248.27734375 26.33984375 l 1
 335.541992188 26.33984375 l 1
EndSplineSet
EndChar

StartChar: uni00B9
Encoding: 185 185 123
Width: 271
GlyphClass: 2
Flags: MW
HStem: 693.705 21G<41.5566 41.5566>
VStem: 124.857 91.1396<421.28 745.646 745.646 745.646>
LayerCount: 2
Fore
SplineSet
41.556640625 693.705078125 m 1
 41.556640625 790.44921875 l 1
 130.137695312 844.639648438 l 1
 215.997070312 844.639648438 l 1
 215.997070312 421.280273438 l 1
 124.857421875 421.280273438 l 1
 124.857421875 745.645507812 l 1
 41.556640625 693.705078125 l 1
EndSplineSet
EndChar

StartChar: ordmasculine
Encoding: 186 186 124
Width: 387
GlyphClass: 2
Flags: MW
HStem: 417.36 77.4199<174.682 221.054> 670.2 77.4209<178.444 220.743 174.993 223.937>
VStem: 48.417 84.2803<565.831 600.13 547.673 600.131 547.673 623.344> 263.037 85.2598<565.83 565.831 565.831 600.13 600.13 600.131 542.305 618.163>
LayerCount: 2
Fore
SplineSet
48.4169921875 565.831054688 m 2
 48.4169921875 600.130859375 l 2
 48.4169921875 646.557617188 61.4716796875 683.42578125 88.40625 709.310546875 c 0
 115.228515625 735.087890625 152.119140625 747.62109375 197.8671875 747.62109375 c 0
 243.618164062 747.62109375 280.649414062 735.086914062 307.783203125 709.342773438 c 0
 335.057617188 683.467773438 348.296875 646.579101562 348.296875 600.130859375 c 2
 348.296875 565.831054688 l 2
 348.296875 518.779296875 335.266601562 481.579101562 308.30859375 455.670898438 c 0
 281.461914062 429.87109375 244.241210938 417.360351562 197.8671875 417.360351562 c 0
 151.49609375 417.360351562 114.4140625 429.868164062 87.880859375 455.704101562 c 0
 61.2646484375 481.62109375 48.4169921875 518.799804688 48.4169921875 565.831054688 c 2
197.8671875 494.780273438 m 0
 250.697265625 494.780273438 263.037109375 529.533203125 263.037109375 565.830078125 c 2
 263.037109375 600.129882812 l 2
 263.037109375 636.1953125 250.005859375 670.200195312 197.8671875 670.200195312 c 0
 159.020507812 670.200195312 132.697265625 651.31640625 132.697265625 600.129882812 c 2
 132.697265625 565.830078125 l 2
 132.697265625 529.516601562 145.048828125 494.780273438 197.8671875 494.780273438 c 0
15.5869140625 693.23046875 m 1024
EndSplineSet
EndChar

StartChar: guillemotright
Encoding: 187 187 125
Width: 554
GlyphClass: 2
Flags: W
LayerCount: 2
Fore
SplineSet
68.9970703125 374.307617188 m 1
 68.9970703125 483.05859375 l 1
 316.819335938 265.950195312 l 1
 68.9970703125 48.8408203125 l 1
 68.9970703125 157.591796875 l 1
 194.463867188 265.950195312 l 1
 68.9970703125 374.307617188 l 1
293.416992188 374.307617188 m 1
 293.416992188 483.05859375 l 1
 541.239257812 265.950195312 l 1
 293.416992188 48.8408203125 l 1
 293.416992188 157.591796875 l 1
 418.883789062 265.950195312 l 1
 293.416992188 374.307617188 l 1
EndSplineSet
EndChar

StartChar: onequarter
Encoding: 188 188 126
Width: 804
GlyphClass: 3
Flags: MW
HStem: -0.120117 21G<129.585 129.585 129.585 217.891 641.317 641.317 641.317 732.457> 68.4805 80.3594<548.765 641.317 548.765 641.317 732.457 772.637> 672.74 20G<510.058 599.364 599.364 599.364>
VStem: 115.057 91.1406<267.42 590.887 590.887 590.887> 641.317 91.1396<-0.120117 68.4805 -0.120117 68.4805 148.84 241.94>
LayerCount: 2
Fore
SplineSet
129.584960938 -0.1201171875 m 1
 510.057617188 692.740234375 l 1
 599.364257812 692.740234375 l 1
 217.890625 -0.1201171875 l 1
 129.584960938 -0.1201171875 l 1
30.77734375 538.947265625 m 1
 30.77734375 636.615234375 l 1
 120.357421875 690.780273438 l 1
 206.197265625 690.780273438 l 1
 206.197265625 267.419921875 l 1
 115.056640625 267.419921875 l 1
 115.056640625 590.88671875 l 1
 30.77734375 538.947265625 l 1
732.45703125 148.83984375 m 1
 772.63671875 148.83984375 l 1
 772.63671875 68.48046875 l 1
 732.45703125 68.48046875 l 1
 732.45703125 -0.1201171875 l 1
 641.317382812 -0.1201171875 l 1
 641.317382812 68.48046875 l 1
 452.176757812 68.48046875 l 1
 452.176757812 143.215820312 l 1
 591.189453125 423.240234375 l 1
 684.004882812 423.240234375 l 1
 548.764648438 148.83984375 l 1
 641.317382812 148.83984375 l 1
 641.317382812 241.940429688 l 1
 732.45703125 241.940429688 l 1
 732.45703125 148.83984375 l 1
EndSplineSet
Ligature2: "'frac' Diagonal Fractions lookup 2 subtable" one slash four
EndChar

StartChar: onehalf
Encoding: 189 189 127
Width: 815
GlyphClass: 3
Flags: MW
HStem: -0.120117 80.3604<616.645 772.637 616.645 772.637> 352.68 77.4199<609.734 640.493> 672.74 20G<505.157 594.465 594.465 594.465>
VStem: 115.057 91.1406<267.42 590.887 590.887 590.887> 482.557 88.2002<289.96 304.17 289.96 306.13 289.96 343.91> 679.537 91.1387<299.27 300.25 300.25 305.15 305.15 308.09 278.528 323.92>
LayerCount: 2
Fore
SplineSet
594.46484375 692.740234375 m 1
 212.991210938 -0.1201171875 l 1
 124.685546875 -0.1201171875 l 1
 505.157226562 692.740234375 l 1
 594.46484375 692.740234375 l 1
30.77734375 538.947265625 m 1
 30.77734375 636.615234375 l 1
 120.357421875 690.780273438 l 1
 206.197265625 690.780273438 l 1
 206.197265625 267.419921875 l 1
 115.056640625 267.419921875 l 1
 115.056640625 590.88671875 l 1
 30.77734375 538.947265625 l 1
482.556640625 306.129882812 m 2
 482.556640625 381.689453125 535.17578125 430.099609375 628.086914062 430.099609375 c 0
 671.706054688 430.099609375 706.7890625 419.509765625 732.354492188 397.446289062 c 0
 757.92578125 375.377929688 770.67578125 345.098632812 770.67578125 308.08984375 c 2
 770.67578125 300.25 l 2
 770.67578125 256.806640625 752.123046875 224.58203125 709.766601562 179.455078125 c 2
 616.64453125 80.240234375 l 1
 772.63671875 80.240234375 l 1
 772.63671875 -0.1201171875 l 1
 486.4765625 -0.1201171875 l 1
 486.4765625 68.98046875 l 1
 488.51953125 71.1123046875 l 1
 488.51953125 71.1123046875 644.338867188 233.791992188 644.451171875 233.90625 c 0
 673.458984375 262.9140625 679.537109375 280.83203125 679.537109375 299.26953125 c 2
 679.537109375 305.150390625 l 2
 679.537109375 342.690429688 654.859375 352.6796875 626.126953125 352.6796875 c 0
 593.340820312 352.6796875 570.756835938 339.76171875 570.756835938 304.169921875 c 2
 570.756835938 289.959960938 l 1
 482.556640625 289.959960938 l 1
 482.556640625 306.129882812 l 2
EndSplineSet
Ligature2: "'frac' Diagonal Fractions lookup 2 subtable" one slash two
EndChar

StartChar: threequarters
Encoding: 190 190 128
Width: 906
GlyphClass: 3
Flags: MW
HStem: -0.120117 21G<230.525 230.525 230.525 318.831 742.257 742.257 742.257 833.396> 68.4805 80.3594<649.704 742.257 649.704 742.257 833.396 873.577> 260.56 77.4209<168.601 215.87 166.555 235.973> 446.76 77.4199<152.298 183.168 183.168 184.147 152.298 183.168> 620.22 77.4189<168.565 211.469 168.565 211.849>
VStem: 47.4375 82.3203<379.63 380.61 380.61 393.84 368.677 393.84> 249.318 87.2188<385.51 394.329 346.974 394.33 346.974 406.067> 742.257 91.1396<-0.120117 68.4805 -0.120117 68.4805 148.84 241.94>
LayerCount: 2
Fore
SplineSet
336.537109375 385.508789062 m 2
 336.537109375 308.438476562 280.938476562 260.559570312 191.0078125 260.559570312 c 0
 146.193359375 260.559570312 110.681640625 270.565429688 85.3671875 291.661132812 c 0
 60.0078125 312.793945312 47.4375 342.657226562 47.4375 379.629882812 c 2
 47.4375 393.83984375 l 1
 129.7578125 393.83984375 l 1
 129.7578125 380.610351562 l 2
 129.7578125 356.743164062 144.0625 337.98046875 189.047851562 337.98046875 c 0
 242.69140625 337.98046875 249.318359375 364.94921875 249.318359375 385.509765625 c 2
 249.318359375 394.330078125 l 2
 249.318359375 417.803710938 241.331054688 446.759765625 184.147460938 446.759765625 c 2
 152.297851562 446.759765625 l 1
 152.297851562 524.1796875 l 1
 183.16796875 524.1796875 l 2
 236.642578125 524.1796875 242.458007812 550.788085938 242.458007812 569.75 c 2
 242.458007812 576.610351562 l 2
 242.458007812 595.340820312 236.609375 620.219726562 187.087890625 620.219726562 c 0
 136.317382812 620.219726562 132.697265625 592.087890625 132.697265625 577.588867188 c 2
 132.697265625 564.359375 l 1
 49.396484375 564.359375 l 1
 49.396484375 578.569335938 l 2
 49.396484375 615.541015625 61.966796875 645.405273438 87.326171875 666.538085938 c 0
 112.568359375 687.573242188 147.102539062 697.638671875 190.02734375 697.638671875 c 0
 232.911132812 697.638671875 267.38671875 687.931640625 292.6328125 667.595703125 c 0
 317.96484375 647.189453125 330.657226562 618.611328125 330.657226562 583.46875 c 2
 330.657226562 576.609375 l 2
 330.657226562 538.869140625 314.607421875 510.086914062 283.70703125 491.844726562 c 1
 318.758789062 473.596679688 336.537109375 440.264648438 336.537109375 394.329101562 c 2
 336.537109375 385.508789062 l 2
230.525390625 -0.1201171875 m 1
 610.997070312 692.740234375 l 1
 700.3046875 692.740234375 l 1
 318.831054688 -0.1201171875 l 1
 230.525390625 -0.1201171875 l 1
833.396484375 148.83984375 m 1
 873.577148438 148.83984375 l 1
 873.577148438 68.48046875 l 1
 833.396484375 68.48046875 l 1
 833.396484375 -0.1201171875 l 1
 742.256835938 -0.1201171875 l 1
 742.256835938 68.48046875 l 1
 553.1171875 68.48046875 l 1
 553.1171875 143.215820312 l 1
 692.12890625 423.240234375 l 1
 784.944335938 423.240234375 l 1
 649.704101562 148.83984375 l 1
 742.256835938 148.83984375 l 1
 742.256835938 241.940429688 l 1
 833.396484375 241.940429688 l 1
 833.396484375 148.83984375 l 1
EndSplineSet
Ligature2: "'frac' Diagonal Fractions lookup 2 subtable" three slash four
EndChar

StartChar: questiondown
Encoding: 191 191 129
Width: 487
GlyphClass: 2
Flags: MW
HStem: -159.86 93.1006<220.83 285.018> 399.72 116.62<198.357 312.037 198.357 312.037>
VStem: 44.498 102.898<6.96533 34.4092 6.96533 45.6138> 198.357 113.68<399.72 516.34 399.72 516.34> 360.057 100.125<29.7695 37.1201 37.1201 37.1201>
LayerCount: 2
Fore
SplineSet
198.357421875 516.33984375 m 1
 312.037109375 516.33984375 l 1
 312.037109375 399.719726562 l 1
 198.357421875 399.719726562 l 1
 198.357421875 516.33984375 l 1
254.70703125 -66.759765625 m 0
 338.174804688 -66.759765625 360.056640625 -22.9033203125 360.056640625 29.76953125 c 2
 360.056640625 37.1201171875 l 1
 460.181640625 37.1201171875 l 1
 459.516601562 7.1865234375 457.986328125 -61.732421875 404.213867188 -110.895507812 c 0
 368.151367188 -143.866210938 317.2890625 -159.860351562 252.747070312 -159.860351562 c 0
 188.913085938 -159.860351562 137.897460938 -144.891601562 100.58203125 -114.080078125 c 0
 63.1796875 -83.197265625 44.498046875 -40.2744140625 44.498046875 13.1103515625 c 0
 44.498046875 78.1171875 68.7646484375 122.56640625 107.537109375 159.548828125 c 2
 171.235351562 220.306640625 l 2
 197.254882812 245.143554688 205.217773438 263.022460938 205.217773438 302.209960938 c 2
 205.217773438 337.98046875 l 1
 306.158203125 337.98046875 l 1
 306.158203125 298.290039062 l 2
 306.158203125 234.247070312 292.3828125 203.446289062 249.907226562 163.543945312 c 2
 249.907226562 163.543945312 196.95703125 114.375976562 195.078125 112.630859375 c 0
 158.326171875 77.177734375 147.396484375 51.7880859375 147.396484375 17.0302734375 c 0
 147.396484375 -3.099609375 150.3828125 -66.759765625 254.70703125 -66.759765625 c 0
EndSplineSet
EndChar

StartChar: Agrave
Encoding: 192 192 130
Width: 666
GlyphClass: 2
Flags: MW
HStem: -0.120117 21G<5.5332 5.5332 5.5332 114.656 558.447 558.447 558.447 668.535> 152.76 90.1602<211.664 460.43 211.664 496.707 175.416 460.43> 670.78 20G<293.909 379.158 379.158 379.158>
LayerCount: 2
Fore
SplineSet
5.533203125 -0.1201171875 m 1
 293.909179688 690.780273438 l 1
 379.158203125 690.780273438 l 1
 668.53515625 -0.1201171875 l 1
 558.447265625 -0.1201171875 l 1
 496.70703125 152.759765625 l 1
 175.416015625 152.759765625 l 1
 114.65625 -0.1201171875 l 1
 5.533203125 -0.1201171875 l 1
211.6640625 242.919921875 m 1
 460.4296875 242.919921875 l 1
 336.046875 553.875976562 l 1
 211.6640625 242.919921875 l 1
296.280273438 875.01953125 m 1
 417.807617188 734.879882812 l 1
 320.440429688 734.879882812 l 1
 168.256835938 875.01953125 l 1
 296.280273438 875.01953125 l 1
EndSplineSet
EndChar

StartChar: Aacute
Encoding: 193 193 131
Width: 666
GlyphClass: 2
Flags: MW
HStem: -0.120117 21G<5.5332 5.5332 5.5332 114.656 558.447 558.447 558.447 668.535> 152.76 90.1602<211.664 460.43 211.664 496.707 175.416 460.43> 670.78 20G<293.909 379.158 379.158 379.158>
LayerCount: 2
Fore
SplineSet
5.533203125 -0.1201171875 m 1
 293.909179688 690.780273438 l 1
 379.158203125 690.780273438 l 1
 668.53515625 -0.1201171875 l 1
 558.447265625 -0.1201171875 l 1
 496.70703125 152.759765625 l 1
 175.416015625 152.759765625 l 1
 114.65625 -0.1201171875 l 1
 5.533203125 -0.1201171875 l 1
211.6640625 242.919921875 m 1
 460.4296875 242.919921875 l 1
 336.046875 553.875976562 l 1
 211.6640625 242.919921875 l 1
358.193359375 875.01953125 m 1
 485.216796875 875.01953125 l 1
 333.033203125 734.879882812 l 1
 235.571289062 734.879882812 l 1
 358.193359375 875.01953125 l 1
EndSplineSet
EndChar

StartChar: Acircumflex
Encoding: 194 194 132
Width: 666
GlyphClass: 2
Flags: MW
HStem: -0.120117 21G<5.5332 5.5332 5.5332 114.656 558.447 558.447 558.447 668.535> 152.76 90.1602<211.664 460.43 211.664 496.707 175.416 460.43> 670.78 20G<293.909 379.158 379.158 379.158>
LayerCount: 2
Fore
SplineSet
5.533203125 -0.1201171875 m 1
 293.909179688 690.780273438 l 1
 379.158203125 690.780273438 l 1
 668.53515625 -0.1201171875 l 1
 558.447265625 -0.1201171875 l 1
 496.70703125 152.759765625 l 1
 175.416015625 152.759765625 l 1
 114.65625 -0.1201171875 l 1
 5.533203125 -0.1201171875 l 1
211.6640625 242.919921875 m 1
 460.4296875 242.919921875 l 1
 336.046875 553.875976562 l 1
 211.6640625 242.919921875 l 1
301.409179688 887.759765625 m 1
 371.665039062 887.759765625 l 1
 513.235351562 729.98046875 l 1
 415.1484375 729.98046875 l 1
 336.995117188 814.725585938 l 1
 257.899414062 729.98046875 l 1
 159.838867188 729.98046875 l 1
 301.409179688 887.759765625 l 1
EndSplineSet
EndChar

StartChar: Atilde
Encoding: 195 195 133
Width: 666
GlyphClass: 2
Flags: MW
HStem: -0.120117 21G<5.5332 5.5332 5.5332 114.656 558.447 558.447 558.447 668.535> 152.76 90.1602<211.664 460.43 211.664 496.707 175.416 460.43> 670.78 20G<293.909 379.158 379.158 379.158> 732.92 83.2998<396.896 421.353 396.896 424.326> 770.16 83.2998<254.075 276.546>
LayerCount: 2
Fore
SplineSet
5.533203125 -0.1201171875 m 1xe0
 293.909179688 690.780273438 l 1
 379.158203125 690.780273438 l 1
 668.53515625 -0.1201171875 l 1
 558.447265625 -0.1201171875 l 1
 496.70703125 152.759765625 l 1
 175.416015625 152.759765625 l 1
 114.65625 -0.1201171875 l 1
 5.533203125 -0.1201171875 l 1xe0
211.6640625 242.919921875 m 1
 460.4296875 242.919921875 l 1
 336.046875 553.875976562 l 1
 211.6640625 242.919921875 l 1
273.325195312 853.459960938 m 0xe8
 294.495117188 853.459960938 311.592773438 850.375976562 346.112304688 833.123046875 c 0
 377.826171875 818.107421875 389.147460938 816.219726562 404.643554688 816.219726562 c 0
 438.0625 816.219726562 453.43359375 830.859375 487.453125 863.2578125 c 1
 487.453125 772.568359375 l 1
 476.951171875 761.766601562 448.907226562 732.919921875 399.744140625 732.919921875 c 0xf0
 377.46875 732.919921875 360.564453125 735.9765625 326.0390625 753.224609375 c 0
 292.352539062 768.376953125 284.665039062 770.16015625 268.426757812 770.16015625 c 0
 236.772460938 770.16015625 220.616210938 755.47265625 185.6171875 723.657226562 c 1
 185.6171875 813.002929688 l 1
 210.78515625 836.915039062 234.82421875 853.459960938 273.325195312 853.459960938 c 0xe8
EndSplineSet
EndChar

StartChar: Adieresis
Encoding: 196 196 134
Width: 666
GlyphClass: 2
Flags: MW
HStem: -0.120117 21G<5.5332 5.5332 5.5332 114.656 558.447 558.447 558.447 668.535> 152.76 90.1602<211.664 460.43 211.664 496.707 175.416 460.43> 670.78 20G<293.909 379.158 379.158 379.158> 743.7 107.8<182.677 280.677 182.677 280.677 393.377 490.396>
VStem: 182.677 98<743.7 851.5 743.7 851.5> 393.377 97.0195<743.7 851.5 743.7 851.5>
LayerCount: 2
Fore
SplineSet
5.533203125 -0.1201171875 m 1
 293.909179688 690.780273438 l 1
 379.158203125 690.780273438 l 1
 668.53515625 -0.1201171875 l 1
 558.447265625 -0.1201171875 l 1
 496.70703125 152.759765625 l 1
 175.416015625 152.759765625 l 1
 114.65625 -0.1201171875 l 1
 5.533203125 -0.1201171875 l 1
211.6640625 242.919921875 m 1
 460.4296875 242.919921875 l 1
 336.046875 553.875976562 l 1
 211.6640625 242.919921875 l 1
182.676757812 851.5 m 1
 280.676757812 851.5 l 1
 280.676757812 743.700195312 l 1
 182.676757812 743.700195312 l 1
 182.676757812 851.5 l 1
393.376953125 851.5 m 1
 490.396484375 851.5 l 1
 490.396484375 743.700195312 l 1
 393.376953125 743.700195312 l 1
 393.376953125 851.5 l 1
EndSplineSet
EndChar

StartChar: Aring
Encoding: 197 197 135
Width: 666
GlyphClass: 2
Flags: MW
HStem: -0.120117 21G<5.54199 114.656 5.54199 5.54199 558.447 668.526 558.447 558.447> 152.76 90.1602<211.664 460.43 211.664 496.707 175.416 460.43> 810.34 56.8398<324.541 349.514>
VStem: 237.557 57.8203<755.079 779.843 755.079 780.948> 378.677 57.8203<756.304 779.843>
LayerCount: 2
Fore
SplineSet
288.3671875 678.857421875 m 1
 273.069335938 686.921875 237.556640625 711.58203125 237.556640625 766.73046875 c 0
 237.556640625 795.166015625 246.922851562 819.455078125 265.631835938 838.517578125 c 0
 284.374023438 857.612304688 308.555664062 867.1796875 337.02734375 867.1796875 c 0
 364.897460938 867.1796875 388.870117188 857.579101562 407.8828125 838.56640625 c 0
 426.934570312 819.515625 436.497070312 795.202148438 436.497070312 766.73046875 c 0
 436.497070312 745.877929688 431.227539062 727.202148438 420.567382812 711.209960938 c 0
 411.349609375 697.384765625 399.301757812 686.52734375 384.715820312 678.858398438 c 1
 668.526367188 -0.1201171875 l 1
 558.447265625 -0.1201171875 l 1
 496.70703125 152.759765625 l 1
 175.416015625 152.759765625 l 1
 114.65625 -0.1201171875 l 1
 5.5419921875 -0.1201171875 l 1
 288.3671875 678.857421875 l 1
337.02734375 810.33984375 m 0
 312.053710938 810.33984375 295.376953125 792.956054688 295.376953125 766.73046875 c 0
 295.376953125 743.426757812 310.524414062 723.120117188 337.02734375 723.120117188 c 0
 363.530273438 723.120117188 378.676757812 743.428710938 378.676757812 766.73046875 c 0
 378.676757812 792.955078125 362 810.33984375 337.02734375 810.33984375 c 0
211.6640625 242.919921875 m 1
 460.4296875 242.919921875 l 1
 336.046875 553.875976562 l 1
 211.6640625 242.919921875 l 1
EndSplineSet
EndChar

StartChar: AE
Encoding: 198 198 136
Width: 995
GlyphClass: 2
Flags: MW
HStem: -0.120117 94.0801<578.597 955.896 578.597 955.896> 157.66 90.1602<270.729 474.717 270.729 474.717 215.718 474.717> 303.68 94.0801<578.597 901.997 578.597 901.997> 596.7 94.0801<578.597 955.896 578.597 578.597>
VStem: 474.717 103.88<93.96 157.66 157.66 157.66 247.82 303.68 397.76 582.752 582.752 582.752>
LayerCount: 2
Fore
SplineSet
3.4072265625 -0.1201171875 m 1
 428.961914062 690.780273438 l 1
 955.896484375 690.780273438 l 1
 955.896484375 596.700195312 l 1
 578.596679688 596.700195312 l 1
 578.596679688 397.759765625 l 1
 901.997070312 397.759765625 l 1
 901.997070312 303.6796875 l 1
 578.596679688 303.6796875 l 1
 578.596679688 93.9599609375 l 1
 955.896484375 93.9599609375 l 1
 955.896484375 -0.1201171875 l 1
 474.716796875 -0.1201171875 l 1
 474.716796875 157.66015625 l 1
 215.717773438 157.66015625 l 1
 119.677734375 -0.1201171875 l 1
 3.4072265625 -0.1201171875 l 1
474.716796875 247.8203125 m 1
 474.716796875 582.751953125 l 1
 270.729492188 247.8203125 l 1
 474.716796875 247.8203125 l 1
EndSplineSet
EndChar

StartChar: Ccedilla
Encoding: 199 199 137
Width: 680
GlyphClass: 2
Flags: MW
HStem: 605.52 95.0605<309.575 382.274>
VStem: 63.1162 103.88<296.33 390.41 225.637 395.31 225.637 445.221> 522.736 102.899<215.97 227.24 184.82 227.24>
LayerCount: 2
Fore
SplineSet
355.646484375 86.1201171875 m 0
 414.256835938 86.1201171875 522.736328125 99.484375 522.736328125 215.969726562 c 2
 522.736328125 227.240234375 l 1
 625.635742188 227.240234375 l 1
 625.635742188 214.990234375 l 2
 625.635742188 154.650390625 607.045898438 104.708007812 569.65234375 66.294921875 c 0
 533.118164062 28.7646484375 482.805664062 5.349609375 419.530273438 -4.34765625 c 1
 355.533203125 -149.080078125 l 1
 254.385742188 -149.080078125 l 1
 327.2109375 -8.3505859375 l 1
 245.729492188 -3.1640625 181.33984375 23.693359375 135.182617188 72.755859375 c 0
 86.751953125 124.234375 63.1162109375 199.161132812 63.1162109375 296.330078125 c 2
 63.1162109375 395.309570312 l 2
 63.1162109375 495.131835938 88.2587890625 571.626953125 139.732421875 623.439453125 c 0
 191.086914062 675.130859375 263.50390625 700.580078125 355.646484375 700.580078125 c 0
 438.418945312 700.580078125 504.583984375 681.370117188 553.3125 642.116210938 c 0
 602.203125 602.731445312 626.6171875 547.352539062 626.6171875 477.629882812 c 2
 626.6171875 465.379882812 l 1
 522.73828125 465.379882812 l 1
 522.73828125 476.650390625 l 2
 522.73828125 518.646484375 508.45703125 549.760742188 480.022460938 571.775390625 c 0
 451.4296875 593.911132812 409.8828125 605.51953125 354.666015625 605.51953125 c 0
 224.146484375 605.51953125 166.99609375 535.588867188 166.99609375 390.41015625 c 2
 166.99609375 295.349609375 l 2
 166.99609375 155.923828125 224.41796875 86.1201171875 355.646484375 86.1201171875 c 0
EndSplineSet
EndChar

StartChar: Egrave
Encoding: 200 200 138
Width: 598
GlyphClass: 2
Flags: MW
HStem: -0.120117 94.0801<177.777 560.957 177.777 560.957> 303.68 94.0801<177.777 506.077 177.777 506.077> 596.7 94.0801<177.777 560.957 177.777 177.777>
VStem: 73.8965 103.881<93.96 93.96 93.96 303.68 397.76 596.7>
LayerCount: 2
Fore
SplineSet
177.77734375 93.9599609375 m 1
 560.95703125 93.9599609375 l 1
 560.95703125 -0.1201171875 l 1
 73.896484375 -0.1201171875 l 1
 73.896484375 690.780273438 l 1
 560.95703125 690.780273438 l 1
 560.95703125 596.700195312 l 1
 177.77734375 596.700195312 l 1
 177.77734375 397.759765625 l 1
 506.077148438 397.759765625 l 1
 506.077148438 303.6796875 l 1
 177.77734375 303.6796875 l 1
 177.77734375 93.9599609375 l 1
145.716796875 875.01953125 m 1
 273.740234375 875.01953125 l 1
 395.267578125 734.879882812 l 1
 297.900390625 734.879882812 l 1
 145.716796875 875.01953125 l 1
EndSplineSet
EndChar

StartChar: Eacute
Encoding: 201 201 139
Width: 598
GlyphClass: 2
Flags: MW
HStem: -0.120117 94.0801<177.777 560.957 177.777 560.957> 303.68 94.0801<177.777 506.077 177.777 506.077> 596.7 94.0801<177.777 560.957 177.777 177.777>
VStem: 73.8965 103.881<93.96 93.96 93.96 303.68 397.76 596.7>
LayerCount: 2
Fore
SplineSet
177.77734375 93.9599609375 m 1
 560.95703125 93.9599609375 l 1
 560.95703125 -0.1201171875 l 1
 73.896484375 -0.1201171875 l 1
 73.896484375 690.780273438 l 1
 560.95703125 690.780273438 l 1
 560.95703125 596.700195312 l 1
 177.77734375 596.700195312 l 1
 177.77734375 397.759765625 l 1
 506.077148438 397.759765625 l 1
 506.077148438 303.6796875 l 1
 177.77734375 303.6796875 l 1
 177.77734375 93.9599609375 l 1
343.493164062 875.01953125 m 1
 470.516601562 875.01953125 l 1
 318.333984375 734.879882812 l 1
 220.87109375 734.879882812 l 1
 343.493164062 875.01953125 l 1
EndSplineSet
EndChar

StartChar: Ecircumflex
Encoding: 202 202 140
Width: 598
GlyphClass: 2
Flags: MW
HStem: -0.120117 94.0801<177.777 560.957 177.777 560.957> 303.68 94.0801<177.777 506.077 177.777 506.077> 596.7 94.0801<177.777 560.957 177.777 177.777>
VStem: 73.8965 103.881<93.96 93.96 93.96 303.68 397.76 596.7>
LayerCount: 2
Fore
SplineSet
177.77734375 93.9599609375 m 1
 560.95703125 93.9599609375 l 1
 560.95703125 -0.1201171875 l 1
 73.896484375 -0.1201171875 l 1
 73.896484375 690.780273438 l 1
 560.95703125 690.780273438 l 1
 560.95703125 596.700195312 l 1
 177.77734375 596.700195312 l 1
 177.77734375 397.759765625 l 1
 506.077148438 397.759765625 l 1
 506.077148438 303.6796875 l 1
 177.77734375 303.6796875 l 1
 177.77734375 93.9599609375 l 1
349.125 887.759765625 m 1
 490.6953125 729.98046875 l 1
 392.608398438 729.98046875 l 1
 314.455078125 814.725585938 l 1
 235.359375 729.98046875 l 1
 137.298828125 729.98046875 l 1
 278.869140625 887.759765625 l 1
 349.125 887.759765625 l 1
EndSplineSet
EndChar

StartChar: Edieresis
Encoding: 203 203 141
Width: 598
GlyphClass: 2
Flags: MW
HStem: -0.120117 94.0801<177.777 560.957 177.777 560.957> 303.68 94.0801<177.777 506.077 177.777 506.077> 596.7 94.0801<177.777 560.957 177.777 177.777> 743.7 107.8<160.137 258.137 160.137 258.137 370.837 467.857>
VStem: 73.8965 103.881<93.96 93.96 93.96 303.68 397.76 596.7> 160.137 98<743.7 851.5 743.7 851.5> 370.837 97.0205<743.7 851.5 743.7 851.5>
LayerCount: 2
Fore
SplineSet
177.77734375 93.9599609375 m 1xfa
 560.95703125 93.9599609375 l 1
 560.95703125 -0.1201171875 l 1
 73.896484375 -0.1201171875 l 1
 73.896484375 690.780273438 l 1
 560.95703125 690.780273438 l 1
 560.95703125 596.700195312 l 1
 177.77734375 596.700195312 l 1
 177.77734375 397.759765625 l 1
 506.077148438 397.759765625 l 1
 506.077148438 303.6796875 l 1
 177.77734375 303.6796875 l 1
 177.77734375 93.9599609375 l 1xfa
160.13671875 851.5 m 1xf6
 258.13671875 851.5 l 1
 258.13671875 743.700195312 l 1
 160.13671875 743.700195312 l 1
 160.13671875 851.5 l 1xf6
370.836914062 851.5 m 1
 467.857421875 851.5 l 1
 467.857421875 743.700195312 l 1
 370.836914062 743.700195312 l 1
 370.836914062 851.5 l 1
EndSplineSet
EndChar

StartChar: Igrave
Encoding: 204 204 142
Width: 255
GlyphClass: 2
Flags: MW
HStem: -0.120117 21G<80.7568 184.637 80.7568 80.7568> 670.78 20G<80.7568 184.637 184.637 184.637>
VStem: 80.7568 103.88<-0.120117 690.78 -0.120117 690.78>
LayerCount: 2
Fore
SplineSet
80.7568359375 690.780273438 m 1
 184.63671875 690.780273438 l 1
 184.63671875 -0.1201171875 l 1
 80.7568359375 -0.1201171875 l 1
 80.7568359375 690.780273438 l 1
-35.5830078125 875.01953125 m 1
 92.4404296875 875.01953125 l 1
 213.967773438 734.879882812 l 1
 116.600585938 734.879882812 l 1
 -35.5830078125 875.01953125 l 1
EndSplineSet
EndChar

StartChar: Iacute
Encoding: 205 205 143
Width: 255
GlyphClass: 2
Flags: MW
HStem: -0.120117 21G<80.7568 184.637 80.7568 80.7568> 670.78 20G<80.7568 184.637 184.637 184.637>
VStem: 80.7568 103.88<-0.120117 690.78 -0.120117 690.78>
LayerCount: 2
Fore
SplineSet
80.7568359375 690.780273438 m 1
 184.63671875 690.780273438 l 1
 184.63671875 -0.1201171875 l 1
 80.7568359375 -0.1201171875 l 1
 80.7568359375 690.780273438 l 1
162.193359375 875.01953125 m 1
 289.216796875 875.01953125 l 1
 137.033203125 734.879882812 l 1
 39.5712890625 734.879882812 l 1
 162.193359375 875.01953125 l 1
EndSplineSet
EndChar

StartChar: Icircumflex
Encoding: 206 206 144
Width: 255
GlyphClass: 2
Flags: MW
HStem: -0.120117 21G<80.7568 184.637 80.7568 80.7568> 670.78 20G<80.7568 184.637 184.637 184.637>
VStem: 80.7568 103.88<-0.120117 690.78 -0.120117 690.78>
LayerCount: 2
Fore
SplineSet
80.7568359375 690.780273438 m 1
 184.63671875 690.780273438 l 1
 184.63671875 -0.1201171875 l 1
 80.7568359375 -0.1201171875 l 1
 80.7568359375 690.780273438 l 1
97.568359375 887.759765625 m 1
 167.825195312 887.759765625 l 1
 309.39453125 729.98046875 l 1
 211.30859375 729.98046875 l 1
 133.154296875 814.725585938 l 1
 54.05859375 729.98046875 l 1
 -44.0009765625 729.98046875 l 1
 97.568359375 887.759765625 l 1
EndSplineSet
EndChar

StartChar: Idieresis
Encoding: 207 207 145
Width: 255
GlyphClass: 2
Flags: MW
HStem: -0.120117 21G<80.7568 184.637 80.7568 80.7568> 670.78 20G<80.7568 184.637 184.637 184.637> 743.7 107.8<-21.1631 76.8369 -21.1631 76.8369 189.537 286.557>
VStem: -21.1631 98<743.7 851.5 743.7 851.5> 80.7568 103.88<-0.120117 690.78 -0.120117 690.78> 189.537 97.0195<743.7 851.5 743.7 851.5>
LayerCount: 2
Fore
SplineSet
80.7568359375 690.780273438 m 1
 184.63671875 690.780273438 l 1
 184.63671875 -0.1201171875 l 1
 80.7568359375 -0.1201171875 l 1
 80.7568359375 690.780273438 l 1
-21.1630859375 851.5 m 1
 76.8369140625 851.5 l 1
 76.8369140625 743.700195312 l 1
 -21.1630859375 743.700195312 l 1
 -21.1630859375 851.5 l 1
189.537109375 851.5 m 1
 286.556640625 851.5 l 1
 286.556640625 743.700195312 l 1
 189.537109375 743.700195312 l 1
 189.537109375 851.5 l 1
EndSplineSet
EndChar

StartChar: Eth
Encoding: 208 208 146
Width: 725
GlyphClass: 2
Flags: MW
HStem: -0.120117 94.0791<227.757 379.167> 303.679 94.0801<227.757 394.357 227.757 394.357> 596.699 94.0811<227.757 381.127 227.757 227.757>
VStem: 123.877 103.88<93.959 303.679 93.959 303.68 93.959 303.68 397.76 596.699> 566.837 103.88<299.27 301.229 301.229 385.509 385.509 390.409 251.967 459.397>
LayerCount: 2
Fore
SplineSet
670.716796875 390.409179688 m 2
 670.716796875 301.229492188 l 2
 670.716796875 202.705078125 645.727539062 127.177734375 594.573242188 76.0234375 c 0
 543.53125 24.982421875 471.286132812 -0.1201171875 379.166992188 -0.1201171875 c 2
 123.876953125 -0.1201171875 l 1
 123.876953125 303.6796875 l 1
 36.6572265625 303.6796875 l 1
 36.6572265625 397.759765625 l 1
 123.876953125 397.759765625 l 1
 123.876953125 690.780273438 l 1
 381.126953125 690.780273438 l 2
 472.594726562 690.780273438 544.349609375 665.83984375 595.063476562 615.125976562 c 0
 645.90234375 564.287109375 670.716796875 488.920898438 670.716796875 390.409179688 c 2
381.126953125 93.958984375 m 2
 506.950195312 93.958984375 566.836914062 157.942382812 566.836914062 299.26953125 c 2
 566.836914062 385.508789062 l 2
 566.836914062 533.286132812 504.689453125 596.69921875 381.126953125 596.69921875 c 2
 227.756835938 596.69921875 l 1
 227.756835938 397.758789062 l 1
 394.357421875 397.758789062 l 1
 394.357421875 303.678710938 l 1
 227.756835938 303.678710938 l 1
 227.756835938 93.958984375 l 1
 381.126953125 93.958984375 l 2
EndSplineSet
EndChar

StartChar: Ntilde
Encoding: 209 209 147
Width: 721
GlyphClass: 2
Flags: MW
HStem: -0.120117 21G<73.8965 177.777 73.8965 73.8965 553.822 654.057 553.822 553.822> 670.78 20G<73.8965 174.136 174.136 174.136 550.177 654.057 654.057 654.057> 732.92 83.2998<421.396 445.853 421.396 448.826> 770.16 83.2998<278.557 301.046>
VStem: 73.8965 103.881<-0.120117 508.256 -0.120117 690.78> 550.177 103.88<181.458 690.78 -0.120117 690.78>
LayerCount: 2
Fore
SplineSet
654.056640625 690.780273438 m 1xcc
 654.056640625 -0.1201171875 l 1
 553.822265625 -0.1201171875 l 1
 177.77734375 508.255859375 l 1
 177.77734375 -0.1201171875 l 1
 73.896484375 -0.1201171875 l 1
 73.896484375 690.780273438 l 1
 174.135742188 690.780273438 l 1
 550.176757812 181.458007812 l 1
 550.176757812 690.780273438 l 1
 654.056640625 690.780273438 l 1xcc
297.823242188 853.459960938 m 0xdc
 318.994140625 853.459960938 336.09375 850.375976562 370.612304688 833.123046875 c 0
 402.326171875 818.107421875 413.647460938 816.219726562 429.143554688 816.219726562 c 0
 462.5625 816.219726562 477.93359375 830.859375 511.953125 863.2578125 c 1
 511.953125 772.568359375 l 1
 501.451171875 761.766601562 473.407226562 732.919921875 424.244140625 732.919921875 c 0xec
 401.96875 732.919921875 385.064453125 735.9765625 350.5390625 753.224609375 c 0
 316.852539062 768.376953125 309.165039062 770.16015625 292.926757812 770.16015625 c 0
 261.272460938 770.16015625 245.116210938 755.47265625 210.1171875 723.657226562 c 1
 210.1171875 813.002929688 l 1
 235.250976562 836.881835938 259.291015625 853.459960938 297.823242188 853.459960938 c 0xdc
EndSplineSet
EndChar

StartChar: Ograve
Encoding: 210 210 148
Width: 694
GlyphClass: 2
Flags: MW
HStem: -8.94043 95.0605<305.318 396.498> 605.52 95.0605<307.936 399.116 307.936 420.588>
VStem: 63.1172 103.88<296.33 390.41 222.503 395.31 222.503 445.216> 538.417 102.9<295.351 296.33 296.33 390.411 390.411 395.31 246.424 458.299>
LayerCount: 2
Fore
SplineSet
63.1171875 296.330078125 m 2
 63.1171875 395.309570312 l 2
 63.1171875 495.123046875 88.0888671875 571.606445312 139.2265625 623.421875 c 0
 190.248046875 675.119140625 262.185546875 700.580078125 353.686523438 700.580078125 c 0
 444.544921875 700.580078125 515.8515625 675.108398438 566.221679688 623.38671875 c 0
 616.690429688 571.563476562 641.317382812 495.104492188 641.317382812 395.309570312 c 2
 641.317382812 296.330078125 l 2
 641.317382812 196.517578125 616.345703125 120.034179688 565.208007812 68.21875 c 0
 514.185546875 16.5205078125 442.249023438 -8.9404296875 350.747070312 -8.9404296875 c 0
 259.888671875 -8.9404296875 188.58203125 16.53125 138.211914062 68.25390625 c 0
 87.744140625 120.076171875 63.1171875 196.536132812 63.1171875 296.330078125 c 2
352.70703125 86.1201171875 m 0
 485.267578125 86.1201171875 538.416992188 160.537109375 538.416992188 295.350585938 c 2
 538.416992188 390.411132812 l 2
 538.416992188 526.186523438 488.46875 605.51953125 352.70703125 605.51953125 c 0
 224.2890625 605.51953125 166.997070312 536.477539062 166.997070312 390.41015625 c 2
 166.997070312 295.349609375 l 2
 166.997070312 149.65625 228.4609375 86.1201171875 352.70703125 86.1201171875 c 0
183.9375 875.020507812 m 1
 311.959960938 875.020507812 l 1
 433.48828125 734.880859375 l 1
 336.120117188 734.880859375 l 1
 183.9375 875.020507812 l 1
EndSplineSet
EndChar

StartChar: Oacute
Encoding: 211 211 149
Width: 694
GlyphClass: 2
Flags: MW
HStem: -8.94043 95.0605<305.318 396.498> 605.52 95.0605<307.936 399.116 307.936 420.588>
VStem: 63.1172 103.88<296.33 390.41 222.503 395.31 222.503 445.216> 538.417 102.9<295.351 296.33 296.33 390.411 390.411 395.31 246.424 458.299>
LayerCount: 2
Fore
SplineSet
63.1171875 296.330078125 m 2
 63.1171875 395.309570312 l 2
 63.1171875 495.123046875 88.0888671875 571.606445312 139.2265625 623.421875 c 0
 190.248046875 675.119140625 262.185546875 700.580078125 353.686523438 700.580078125 c 0
 444.544921875 700.580078125 515.8515625 675.108398438 566.221679688 623.38671875 c 0
 616.690429688 571.563476562 641.317382812 495.104492188 641.317382812 395.309570312 c 2
 641.317382812 296.330078125 l 2
 641.317382812 196.517578125 616.345703125 120.034179688 565.208007812 68.21875 c 0
 514.185546875 16.5205078125 442.249023438 -8.9404296875 350.747070312 -8.9404296875 c 0
 259.888671875 -8.9404296875 188.58203125 16.53125 138.211914062 68.25390625 c 0
 87.744140625 120.076171875 63.1171875 196.536132812 63.1171875 296.330078125 c 2
352.70703125 86.1201171875 m 0
 485.267578125 86.1201171875 538.416992188 160.537109375 538.416992188 295.350585938 c 2
 538.416992188 390.411132812 l 2
 538.416992188 526.186523438 488.46875 605.51953125 352.70703125 605.51953125 c 0
 224.2890625 605.51953125 166.997070312 536.477539062 166.997070312 390.41015625 c 2
 166.997070312 295.349609375 l 2
 166.997070312 149.65625 228.4609375 86.1201171875 352.70703125 86.1201171875 c 0
371.913085938 875.020507812 m 1
 498.936523438 875.020507812 l 1
 346.75390625 734.880859375 l 1
 249.291015625 734.880859375 l 1
 371.913085938 875.020507812 l 1
EndSplineSet
EndChar

StartChar: Ocircumflex
Encoding: 212 212 150
Width: 694
GlyphClass: 2
Flags: MW
HStem: -8.94043 95.0605<305.318 396.498> 605.52 95.0605<307.936 399.116 307.936 420.588>
VStem: 63.1172 103.88<296.33 390.41 222.503 395.31 222.503 445.216> 538.417 102.9<295.351 296.33 296.33 390.411 390.411 395.31 246.424 458.299>
LayerCount: 2
Fore
SplineSet
63.1171875 296.330078125 m 2
 63.1171875 395.309570312 l 2
 63.1171875 495.123046875 88.0888671875 571.606445312 139.2265625 623.421875 c 0
 190.248046875 675.119140625 262.185546875 700.580078125 353.686523438 700.580078125 c 0
 444.544921875 700.580078125 515.8515625 675.108398438 566.221679688 623.38671875 c 0
 616.690429688 571.563476562 641.317382812 495.104492188 641.317382812 395.309570312 c 2
 641.317382812 296.330078125 l 2
 641.317382812 196.517578125 616.345703125 120.034179688 565.208007812 68.21875 c 0
 514.185546875 16.5205078125 442.249023438 -8.9404296875 350.747070312 -8.9404296875 c 0
 259.888671875 -8.9404296875 188.58203125 16.53125 138.211914062 68.25390625 c 0
 87.744140625 120.076171875 63.1171875 196.536132812 63.1171875 296.330078125 c 2
352.70703125 86.1201171875 m 0
 485.267578125 86.1201171875 538.416992188 160.537109375 538.416992188 295.350585938 c 2
 538.416992188 390.411132812 l 2
 538.416992188 526.186523438 488.46875 605.51953125 352.70703125 605.51953125 c 0
 224.2890625 605.51953125 166.997070312 536.477539062 166.997070312 390.41015625 c 2
 166.997070312 295.349609375 l 2
 166.997070312 149.65625 228.4609375 86.1201171875 352.70703125 86.1201171875 c 0
317.088867188 887.760742188 m 1
 387.345703125 887.760742188 l 1
 528.915039062 729.981445312 l 1
 430.829101562 729.981445312 l 1
 352.674804688 814.7265625 l 1
 273.579101562 729.981445312 l 1
 175.518554688 729.981445312 l 1
 317.088867188 887.760742188 l 1
EndSplineSet
EndChar

StartChar: Otilde
Encoding: 213 213 151
Width: 694
GlyphClass: 2
Flags: MW
HStem: -8.94043 95.0605<305.318 396.498> 605.52 95.0605<307.936 399.116 307.936 420.588> 732.921 83.2998<412.576 437.033 412.576 440.005> 770.161 83.2998<269.737 292.226>
VStem: 63.1172 103.88<296.33 390.41 222.503 395.31 222.503 445.216> 538.417 102.9<295.351 296.33 296.33 390.411 390.411 395.31 246.424 458.299>
LayerCount: 2
Fore
SplineSet
63.1171875 296.330078125 m 2xcc
 63.1171875 395.309570312 l 2
 63.1171875 495.123046875 88.0888671875 571.606445312 139.2265625 623.421875 c 0
 190.248046875 675.119140625 262.185546875 700.580078125 353.686523438 700.580078125 c 0
 444.544921875 700.580078125 515.8515625 675.108398438 566.221679688 623.38671875 c 0
 616.690429688 571.563476562 641.317382812 495.104492188 641.317382812 395.309570312 c 2
 641.317382812 296.330078125 l 2
 641.317382812 196.517578125 616.345703125 120.034179688 565.208007812 68.21875 c 0
 514.185546875 16.5205078125 442.249023438 -8.9404296875 350.747070312 -8.9404296875 c 0
 259.888671875 -8.9404296875 188.58203125 16.53125 138.211914062 68.25390625 c 0
 87.744140625 120.076171875 63.1171875 196.536132812 63.1171875 296.330078125 c 2xcc
352.70703125 86.1201171875 m 0
 485.267578125 86.1201171875 538.416992188 160.537109375 538.416992188 295.350585938 c 2
 538.416992188 390.411132812 l 2
 538.416992188 526.186523438 488.46875 605.51953125 352.70703125 605.51953125 c 0
 224.2890625 605.51953125 166.997070312 536.477539062 166.997070312 390.41015625 c 2
 166.997070312 295.349609375 l 2
 166.997070312 149.65625 228.4609375 86.1201171875 352.70703125 86.1201171875 c 0
289.002929688 853.4609375 m 0xdc
 310.174804688 853.4609375 327.2734375 850.376953125 361.79296875 833.124023438 c 0
 393.505859375 818.108398438 404.828125 816.220703125 420.323242188 816.220703125 c 0
 453.7421875 816.220703125 469.11328125 830.860351562 503.1328125 863.258789062 c 1
 503.1328125 772.569335938 l 1
 492.631835938 761.767578125 464.586914062 732.920898438 415.423828125 732.920898438 c 0xec
 393.1484375 732.920898438 376.245117188 735.977539062 341.719726562 753.225585938 c 0
 308.033203125 768.377929688 300.344726562 770.161132812 284.107421875 770.161132812 c 0
 252.452148438 770.161132812 236.295898438 755.473632812 201.296875 723.658203125 c 1
 201.296875 813.00390625 l 1
 226.431640625 836.8828125 250.470703125 853.4609375 289.002929688 853.4609375 c 0xdc
EndSplineSet
EndChar

StartChar: Odieresis
Encoding: 214 214 152
Width: 694
GlyphClass: 2
Flags: MW
HStem: -8.94043 95.0605<305.318 396.498> 605.52 95.0605<307.936 399.116 307.936 420.588> 743.701 107.8<198.357 296.357 198.357 296.357 409.057 506.077>
VStem: 63.1172 103.88<296.33 390.41 222.503 395.31 222.503 445.216> 198.357 98<743.701 851.501 743.701 851.501> 409.057 97.0205<743.701 851.501 743.701 851.501> 538.417 102.9<295.351 296.33 296.33 390.411 390.411 395.31 246.424 458.299>
LayerCount: 2
Fore
SplineSet
63.1171875 296.330078125 m 2
 63.1171875 395.309570312 l 2
 63.1171875 495.123046875 88.0888671875 571.606445312 139.2265625 623.421875 c 0
 190.248046875 675.119140625 262.185546875 700.580078125 353.686523438 700.580078125 c 0
 444.544921875 700.580078125 515.8515625 675.108398438 566.221679688 623.38671875 c 0
 616.690429688 571.563476562 641.317382812 495.104492188 641.317382812 395.309570312 c 2
 641.317382812 296.330078125 l 2
 641.317382812 196.517578125 616.345703125 120.034179688 565.208007812 68.21875 c 0
 514.185546875 16.5205078125 442.249023438 -8.9404296875 350.747070312 -8.9404296875 c 0
 259.888671875 -8.9404296875 188.58203125 16.53125 138.211914062 68.25390625 c 0
 87.744140625 120.076171875 63.1171875 196.536132812 63.1171875 296.330078125 c 2
352.70703125 86.1201171875 m 0
 485.267578125 86.1201171875 538.416992188 160.537109375 538.416992188 295.350585938 c 2
 538.416992188 390.411132812 l 2
 538.416992188 526.186523438 488.46875 605.51953125 352.70703125 605.51953125 c 0
 224.2890625 605.51953125 166.997070312 536.477539062 166.997070312 390.41015625 c 2
 166.997070312 295.349609375 l 2
 166.997070312 149.65625 228.4609375 86.1201171875 352.70703125 86.1201171875 c 0
198.357421875 851.500976562 m 1
 296.357421875 851.500976562 l 1
 296.357421875 743.701171875 l 1
 198.357421875 743.701171875 l 1
 198.357421875 851.500976562 l 1
409.056640625 851.500976562 m 1
 506.077148438 851.500976562 l 1
 506.077148438 743.701171875 l 1
 409.056640625 743.701171875 l 1
 409.056640625 851.500976562 l 1
EndSplineSet
EndChar

StartChar: multiply
Encoding: 215 215 153
Width: 512
GlyphClass: 2
Flags: W
LayerCount: 2
Fore
SplineSet
260.586914062 214.397460938 m 1
 142.987304688 96.7978515625 l 1
 79.6962890625 160.088867188 l 1
 197.295898438 278.668945312 l 1
 79.6748046875 396.290039062 l 1
 142.987304688 459.602539062 l 1
 260.586914062 342.001953125 l 1
 378.186523438 459.602539062 l 1
 441.499023438 396.290039062 l 1
 323.877929688 278.668945312 l 1
 441.477539062 160.088867188 l 1
 378.186523438 96.7978515625 l 1
 260.586914062 214.397460938 l 1
EndSplineSet
EndChar

StartChar: Oslash
Encoding: 216 216 154
Width: 694
GlyphClass: 2
Flags: MW
HStem: -8.94043 95.0605<329.126 396.497> 605.52 95.0605<307.936 375.662>
VStem: 63.1172 103.879<296.33 390.41 268.771 395.31 268.771 445.216> 538.416 102.901<295.35 296.33 296.33 390.41 390.41 395.31 246.424 418.333>
LayerCount: 2
Fore
SplineSet
350.74609375 -8.9404296875 m 0
 286.690429688 -8.9404296875 232.1171875 3.798828125 187.387695312 29.6572265625 c 1
 154.780273438 -19.7197265625 l 1
 66.69921875 -19.7197265625 l 1
 129.869140625 77.140625 l 1
 85.05078125 129.619140625 63.1171875 203.013671875 63.1171875 296.330078125 c 2
 63.1171875 395.309570312 l 2
 63.1171875 495.123046875 88.0888671875 571.606445312 139.2265625 623.421875 c 0
 190.248046875 675.119140625 262.185546875 700.580078125 353.686523438 700.580078125 c 0
 418.280273438 700.580078125 472.846679688 687.879882812 517.016601562 662.048828125 c 1
 549.612304688 712.33984375 l 1
 636.754882812 712.33984375 l 1
 573.625976562 615.541992188 l 1
 619.096679688 563.618164062 641.317382812 489.854492188 641.317382812 395.309570312 c 2
 641.317382812 296.330078125 l 2
 641.317382812 196.517578125 616.344726562 120.034179688 565.20703125 68.21875 c 0
 514.184570312 16.5205078125 442.248046875 -8.9404296875 350.74609375 -8.9404296875 c 0
352.706054688 605.51953125 m 0
 224.288085938 605.51953125 166.99609375 536.477539062 166.99609375 390.41015625 c 2
 166.99609375 295.349609375 l 2
 166.99609375 242.193359375 175.084960938 199.959960938 190.637695312 168.491210938 c 1
 462.110351562 579.470703125 l 1
 434.931640625 596.615234375 398.6171875 605.51953125 352.706054688 605.51953125 c 0
352.706054688 86.1201171875 m 0
 485.265625 86.1201171875 538.416015625 160.53515625 538.416015625 295.349609375 c 2
 538.416015625 390.41015625 l 2
 538.416015625 446.254882812 529.694335938 490.486328125 512.908203125 523.291992188 c 1
 241.34375 112.173828125 l 1
 268.577148438 95.0478515625 305.546875 86.1201171875 352.706054688 86.1201171875 c 0
EndSplineSet
EndChar

StartChar: Ugrave
Encoding: 217 217 155
Width: 691
GlyphClass: 2
Flags: MW
HStem: -6 93.0996<307.008 392.526> 670.78 20G<73.8965 177.777 177.777 177.777 521.757 625.637 625.637 625.637>
VStem: 73.8965 103.881<249.29 255.17 255.17 690.78> 521.757 103.88<255.17 690.78>
LayerCount: 2
Fore
SplineSet
349.766601562 87.099609375 m 0
 476.404296875 87.099609375 521.756835938 153.782226562 521.756835938 255.169921875 c 2
 521.756835938 690.780273438 l 1
 625.63671875 690.780273438 l 1
 625.63671875 249.290039062 l 2
 625.63671875 169.395507812 601.338867188 106.172851562 552.202148438 61.1025390625 c 0
 503.135742188 16.0966796875 435.28515625 -6 349.766601562 -6 c 0
 264.249023438 -6 196.3984375 16.0966796875 147.331054688 61.1025390625 c 0
 98.1953125 106.172851562 73.896484375 169.395507812 73.896484375 249.290039062 c 2
 73.896484375 690.780273438 l 1
 177.77734375 690.780273438 l 1
 177.77734375 255.169921875 l 2
 177.77734375 153.93359375 222.98828125 87.099609375 349.766601562 87.099609375 c 0
309.020507812 875.01953125 m 1
 430.547851562 734.879882812 l 1
 333.180664062 734.879882812 l 1
 180.997070312 875.01953125 l 1
 309.020507812 875.01953125 l 1
EndSplineSet
EndChar

StartChar: Uacute
Encoding: 218 218 156
Width: 691
GlyphClass: 2
Flags: MW
HStem: -6 93.0996<307.008 392.526> 670.78 20G<73.8965 177.777 177.777 177.777 521.757 625.637 625.637 625.637>
VStem: 73.8965 103.881<249.29 255.17 255.17 690.78> 521.757 103.88<255.17 690.78>
LayerCount: 2
Fore
SplineSet
349.766601562 87.099609375 m 0
 476.404296875 87.099609375 521.756835938 153.782226562 521.756835938 255.169921875 c 2
 521.756835938 690.780273438 l 1
 625.63671875 690.780273438 l 1
 625.63671875 249.290039062 l 2
 625.63671875 169.395507812 601.338867188 106.172851562 552.202148438 61.1025390625 c 0
 503.135742188 16.0966796875 435.28515625 -6 349.766601562 -6 c 0
 264.249023438 -6 196.3984375 16.0966796875 147.331054688 61.1025390625 c 0
 98.1953125 106.172851562 73.896484375 169.395507812 73.896484375 249.290039062 c 2
 73.896484375 690.780273438 l 1
 177.77734375 690.780273438 l 1
 177.77734375 255.169921875 l 2
 177.77734375 153.93359375 222.98828125 87.099609375 349.766601562 87.099609375 c 0
378.7734375 875.01953125 m 1
 505.796875 875.01953125 l 1
 353.61328125 734.879882812 l 1
 256.151367188 734.879882812 l 1
 378.7734375 875.01953125 l 1
EndSplineSet
EndChar

StartChar: Ucircumflex
Encoding: 219 219 157
Width: 691
GlyphClass: 2
Flags: MW
HStem: -6 93.0996<307.008 392.526> 670.78 20G<73.8965 177.777 177.777 177.777 521.757 625.637 625.637 625.637>
VStem: 73.8965 103.881<249.29 255.17 255.17 690.78> 521.757 103.88<255.17 690.78>
LayerCount: 2
Fore
SplineSet
349.766601562 87.099609375 m 0
 476.404296875 87.099609375 521.756835938 153.782226562 521.756835938 255.169921875 c 2
 521.756835938 690.780273438 l 1
 625.63671875 690.780273438 l 1
 625.63671875 249.290039062 l 2
 625.63671875 169.395507812 601.338867188 106.172851562 552.202148438 61.1025390625 c 0
 503.135742188 16.0966796875 435.28515625 -6 349.766601562 -6 c 0
 264.249023438 -6 196.3984375 16.0966796875 147.331054688 61.1025390625 c 0
 98.1953125 106.172851562 73.896484375 169.395507812 73.896484375 249.290039062 c 2
 73.896484375 690.780273438 l 1
 177.77734375 690.780273438 l 1
 177.77734375 255.169921875 l 2
 177.77734375 153.93359375 222.98828125 87.099609375 349.766601562 87.099609375 c 0
384.405273438 887.759765625 m 1
 525.974609375 729.98046875 l 1
 427.888671875 729.98046875 l 1
 349.734375 814.725585938 l 1
 270.638671875 729.98046875 l 1
 172.579101562 729.98046875 l 1
 314.1484375 887.759765625 l 1
 384.405273438 887.759765625 l 1
EndSplineSet
EndChar

StartChar: Udieresis
Encoding: 220 220 158
Width: 691
GlyphClass: 2
Flags: MW
HStem: -6 93.0996<307.008 392.526> 670.78 20G<73.8965 177.777 177.777 177.777 521.757 625.637 625.637 625.637> 743.7 107.8<195.417 293.417 195.417 293.417 406.117 503.137>
VStem: 73.8965 103.881<249.29 255.17 255.17 690.78> 195.417 98<743.7 851.5 743.7 851.5> 406.117 97.0195<743.7 851.5 743.7 851.5> 521.757 103.88<255.17 690.78>
LayerCount: 2
Fore
SplineSet
349.766601562 87.099609375 m 0
 476.404296875 87.099609375 521.756835938 153.782226562 521.756835938 255.169921875 c 2
 521.756835938 690.780273438 l 1
 625.63671875 690.780273438 l 1
 625.63671875 249.290039062 l 2
 625.63671875 169.395507812 601.338867188 106.172851562 552.202148438 61.1025390625 c 0
 503.135742188 16.0966796875 435.28515625 -6 349.766601562 -6 c 0
 264.249023438 -6 196.3984375 16.0966796875 147.331054688 61.1025390625 c 0
 98.1953125 106.172851562 73.896484375 169.395507812 73.896484375 249.290039062 c 2
 73.896484375 690.780273438 l 1
 177.77734375 690.780273438 l 1
 177.77734375 255.169921875 l 2
 177.77734375 153.93359375 222.98828125 87.099609375 349.766601562 87.099609375 c 0
195.416992188 851.5 m 1
 293.416992188 851.5 l 1
 293.416992188 743.700195312 l 1
 195.416992188 743.700195312 l 1
 195.416992188 851.5 l 1
406.1171875 851.5 m 1
 503.13671875 851.5 l 1
 503.13671875 743.700195312 l 1
 406.1171875 743.700195312 l 1
 406.1171875 851.5 l 1
EndSplineSet
EndChar

StartChar: Yacute
Encoding: 221 221 159
Width: 582
GlyphClass: 2
Flags: MW
HStem: -0.120117 21G<243.437 346.337 243.437 243.437> 670.78 20G<3.79004 120.888 120.888 120.888 468.863 585.968 585.968 585.968>
VStem: 243.437 102.9<-0.120117 277.692 -0.120117 278.668 -0.120117 278.668>
LayerCount: 2
Fore
SplineSet
468.86328125 690.780273438 m 1
 585.967773438 690.780273438 l 1
 346.336914062 277.692382812 l 1
 346.336914062 -0.1201171875 l 1
 243.436523438 -0.1201171875 l 1
 243.436523438 278.66796875 l 1
 3.7900390625 690.780273438 l 1
 120.887695312 690.780273438 l 1
 295.831054688 370.52734375 l 1
 468.86328125 690.780273438 l 1
323.893554688 875.01953125 m 1
 450.916992188 875.01953125 l 1
 298.733398438 734.879882812 l 1
 201.271484375 734.879882812 l 1
 323.893554688 875.01953125 l 1
EndSplineSet
EndChar

StartChar: Thorn
Encoding: 222 222 160
Width: 637
GlyphClass: 2
Flags: MW
HStem: -0.120117 21G<73.8965 177.776 73.8965 73.8965> 151.78 94.0801<177.776 372.306 177.776 177.776> 477.14 94.0801<177.776 369.365 177.775 372.306> 670.78 20G<73.8965 177.776 177.776 177.776>
VStem: 73.8965 103.879<245.86 477.14 245.86 690.78> 509.015 102.9<336.096 381.309>
LayerCount: 2
Fore
SplineSet
372.305664062 571.219726562 m 2
 430.423828125 571.219726562 611.915039062 563.358398438 611.915039062 361.009765625 c 0
 611.915039062 311.182617188 602.873046875 151.780273438 372.305664062 151.780273438 c 2
 177.776367188 151.780273438 l 1
 177.776367188 -0.1201171875 l 1
 73.896484375 -0.1201171875 l 1
 73.896484375 690.780273438 l 1
 177.776367188 690.780273438 l 1
 177.776367188 571.219726562 l 1
 372.305664062 571.219726562 l 2
374.264648438 245.860351562 m 2
 479.025390625 245.860351562 509.014648438 291.939453125 509.014648438 360.030273438 c 0
 509.014648438 402.586914062 497.639648438 431.728515625 476.383789062 449.44140625 c 0
 454.904296875 467.340820312 419.502929688 477.139648438 369.365234375 477.139648438 c 2
 177.775390625 477.139648438 l 1
 177.775390625 245.860351562 l 1
 374.264648438 245.860351562 l 2
EndSplineSet
EndChar

StartChar: germandbls
Encoding: 223 223 161
Width: 562
GlyphClass: 2
Flags: MW
HStem: -4.04004 88.2002<274.797 312.527 312.527 317.427 274.797 312.527> 374.24 88.2002<273.818 305.668 273.818 311.548> 609.439 89.1807<271.434 325.725 237.352 343.433>
VStem: 68.9971 98<-0.120117 490.37 490.37 499.19 -0.120117 577.682> 409.058 97.999<512.788 554.287> 417.877 98<208.328 273.784>
LayerCount: 2
Fore
SplineSet
515.876953125 230.669921875 m 0xf4
 515.876953125 61.9462890625 471.3359375 -4.0400390625 317.426757812 -4.0400390625 c 2
 274.796875 -4.0400390625 l 1
 274.796875 84.16015625 l 1
 312.52734375 84.16015625 l 2
 374.314453125 84.16015625 398.305664062 103.03125 408.861328125 139.142578125 c 0
 414.739257812 159.252929688 417.876953125 188.924804688 417.876953125 227.73046875 c 0xf4
 417.876953125 319.836914062 400.94921875 346.403320312 376.481445312 360.518554688 c 0
 361.236328125 369.314453125 337.646484375 374.240234375 305.66796875 374.240234375 c 2
 273.818359375 374.240234375 l 1
 273.818359375 462.440429688 l 1
 311.547851562 462.440429688 l 2
 386.598632812 462.440429688 409.057617188 488.030273438 409.057617188 534.469726562 c 0
 409.057617188 574.103515625 391.977539062 609.439453125 294.887695312 609.439453125 c 0
 247.98046875 609.439453125 215.375976562 600.416992188 196.240234375 584.2265625 c 0
 177.368164062 568.256835938 166.997070312 540.580078125 166.997070312 499.190429688 c 2
 166.997070312 -0.1201171875 l 1
 68.9970703125 -0.1201171875 l 1
 68.9970703125 490.370117188 l 2
 68.9970703125 664.994140625 182.756835938 698.620117188 291.947265625 698.620117188 c 0
 359.502929688 698.620117188 412.439453125 685.27734375 450.159179688 657.501953125 c 0
 488.072265625 629.583984375 507.056640625 588.940429688 507.056640625 537.41015625 c 0xf8
 507.056640625 488.166015625 490.811523438 448.486328125 444.858398438 422.09375 c 1
 494.533203125 395.603515625 515.876953125 349.91015625 515.876953125 230.669921875 c 0xf4
EndSplineSet
EndChar

StartChar: agrave
Encoding: 224 224 162
Width: 551
GlyphClass: 2
Flags: MW
HStem: -6 82.3203<207.18 271.697> 228.221 77.4189<243.926 257.646 257.646 392.396> 438.92 84.2803<251 301.934 235.237 319.141> 680.581 20G<100.635 228.658 228.658 228.658>
VStem: 44.4961 97.0195<133.322 173.048 133.322 181.994> 61.1572 96.04<353.66 363.95 353.66 388.455> 392.396 98.001<196.371 228.221 228.221 228.221>
LayerCount: 2
Fore
SplineSet
267.446289062 438.919921875 m 0xfa
 234.553710938 438.919921875 157.197265625 433.841796875 157.197265625 363.950195312 c 2
 157.197265625 353.66015625 l 1
 61.1572265625 353.66015625 l 1
 61.1572265625 363.950195312 l 2xf6
 61.1572265625 412.958984375 79.8720703125 452.512695312 116.954101562 481.010742188 c 0
 153.926757812 509.42578125 204.006835938 523.200195312 266.466796875 523.200195312 c 0
 337.401367188 523.200195312 392.838867188 507.489257812 431.887695312 474.948242188 c 0
 471.06640625 442.298828125 490.396484375 394.92578125 490.396484375 334.549804688 c 2
 490.396484375 -0.1201171875 l 1
 394.356445312 -0.1201171875 l 1
 394.356445312 45.4560546875 l 1
 357.908203125 10.859375 305.348632812 -6 238.045898438 -6 c 0
 176.314453125 -6 128.26953125 7.0498046875 94.7392578125 34.3583984375 c 0
 61.0947265625 61.759765625 44.49609375 101.651367188 44.49609375 152.26953125 c 0
 44.49609375 211.717773438 71.7412109375 305.639648438 243.92578125 305.639648438 c 2
 392.396484375 305.639648438 l 1
 392.396484375 332.58984375 l 2
 392.396484375 385.706054688 370.8359375 438.919921875 267.446289062 438.919921875 c 0xfa
254.706054688 76.3203125 m 0
 352.37109375 76.3203125 392.395507812 116.75 392.395507812 196.37109375 c 2
 392.395507812 228.220703125 l 1
 257.645507812 228.220703125 l 2
 160.543945312 228.220703125 141.515625 192.845703125 141.515625 153.25 c 0xfa
 141.515625 113.393554688 159.5859375 76.3203125 254.706054688 76.3203125 c 0
100.634765625 700.581054688 m 1
 228.658203125 700.581054688 l 1
 350.185546875 560.44140625 l 1
 252.818359375 560.44140625 l 1
 100.634765625 700.581054688 l 1
EndSplineSet
EndChar

StartChar: aacute
Encoding: 225 225 163
Width: 551
GlyphClass: 2
Flags: MW
HStem: -6 82.3203<207.18 271.697> 228.221 77.4189<243.926 257.646 257.646 392.396> 438.92 84.2803<251 301.934 235.237 319.141> 680.581 20G<293.512 420.535 420.535 420.535>
VStem: 44.4961 97.0195<133.322 173.048 133.322 181.994> 61.1572 96.04<353.66 363.95 353.66 388.455> 392.396 98.001<196.371 228.221 228.221 228.221>
LayerCount: 2
Fore
SplineSet
267.446289062 438.919921875 m 0xfa
 234.553710938 438.919921875 157.197265625 433.841796875 157.197265625 363.950195312 c 2
 157.197265625 353.66015625 l 1
 61.1572265625 353.66015625 l 1
 61.1572265625 363.950195312 l 2xf6
 61.1572265625 412.958984375 79.8720703125 452.512695312 116.954101562 481.010742188 c 0
 153.926757812 509.42578125 204.006835938 523.200195312 266.466796875 523.200195312 c 0
 337.401367188 523.200195312 392.838867188 507.489257812 431.887695312 474.948242188 c 0
 471.06640625 442.298828125 490.396484375 394.92578125 490.396484375 334.549804688 c 2
 490.396484375 -0.1201171875 l 1
 394.356445312 -0.1201171875 l 1
 394.356445312 45.4560546875 l 1
 357.908203125 10.859375 305.348632812 -6 238.045898438 -6 c 0
 176.314453125 -6 128.26953125 7.0498046875 94.7392578125 34.3583984375 c 0
 61.0947265625 61.759765625 44.49609375 101.651367188 44.49609375 152.26953125 c 0
 44.49609375 211.717773438 71.7412109375 305.639648438 243.92578125 305.639648438 c 2
 392.396484375 305.639648438 l 1
 392.396484375 332.58984375 l 2
 392.396484375 385.706054688 370.8359375 438.919921875 267.446289062 438.919921875 c 0xfa
254.706054688 76.3203125 m 0
 352.37109375 76.3203125 392.395507812 116.75 392.395507812 196.37109375 c 2
 392.395507812 228.220703125 l 1
 257.645507812 228.220703125 l 2
 160.543945312 228.220703125 141.515625 192.845703125 141.515625 153.25 c 0xfa
 141.515625 113.393554688 159.5859375 76.3203125 254.706054688 76.3203125 c 0
293.51171875 700.581054688 m 1
 420.53515625 700.581054688 l 1
 268.3515625 560.44140625 l 1
 170.888671875 560.44140625 l 1
 293.51171875 700.581054688 l 1
EndSplineSet
EndChar

StartChar: acircumflex
Encoding: 226 226 164
Width: 551
GlyphClass: 2
Flags: MW
HStem: -6 82.3203<207.18 271.697> 228.221 77.4189<243.926 257.646 257.646 392.396> 438.92 84.2803<251 301.934 235.237 319.141>
VStem: 44.4961 97.0195<133.322 173.048 133.322 181.994> 61.1572 96.04<353.66 363.95 353.66 388.455> 392.396 98.001<196.371 228.221 228.221 228.221>
LayerCount: 2
Fore
SplineSet
267.446289062 438.919921875 m 0xf4
 234.553710938 438.919921875 157.197265625 433.841796875 157.197265625 363.950195312 c 2
 157.197265625 353.66015625 l 1
 61.1572265625 353.66015625 l 1
 61.1572265625 363.950195312 l 2xec
 61.1572265625 412.958984375 79.8720703125 452.512695312 116.954101562 481.010742188 c 0
 153.926757812 509.42578125 204.006835938 523.200195312 266.466796875 523.200195312 c 0
 337.401367188 523.200195312 392.838867188 507.489257812 431.887695312 474.948242188 c 0
 471.06640625 442.298828125 490.396484375 394.92578125 490.396484375 334.549804688 c 2
 490.396484375 -0.1201171875 l 1
 394.356445312 -0.1201171875 l 1
 394.356445312 45.4560546875 l 1
 357.908203125 10.859375 305.348632812 -6 238.045898438 -6 c 0
 176.314453125 -6 128.26953125 7.0498046875 94.7392578125 34.3583984375 c 0
 61.0947265625 61.759765625 44.49609375 101.651367188 44.49609375 152.26953125 c 0
 44.49609375 211.717773438 71.7412109375 305.639648438 243.92578125 305.639648438 c 2
 392.396484375 305.639648438 l 1
 392.396484375 332.58984375 l 2
 392.396484375 385.706054688 370.8359375 438.919921875 267.446289062 438.919921875 c 0xf4
254.706054688 76.3203125 m 0
 352.37109375 76.3203125 392.395507812 116.75 392.395507812 196.37109375 c 2
 392.395507812 228.220703125 l 1
 257.645507812 228.220703125 l 2
 160.543945312 228.220703125 141.515625 192.845703125 141.515625 153.25 c 0xf4
 141.515625 113.393554688 159.5859375 76.3203125 254.706054688 76.3203125 c 0
233.787109375 713.321289062 m 1
 304.04296875 713.321289062 l 1
 445.61328125 555.541015625 l 1
 347.52734375 555.541015625 l 1
 269.373046875 640.286132812 l 1
 190.27734375 555.541015625 l 1
 92.216796875 555.541015625 l 1
 233.787109375 713.321289062 l 1
EndSplineSet
EndChar

StartChar: atilde
Encoding: 227 227 165
Width: 551
GlyphClass: 2
Flags: MW
HStem: -6 82.3203<207.18 271.697> 228.221 77.4189<243.926 257.646 257.646 392.396> 438.92 84.2803<251 301.934 235.237 319.141> 558.481 83.2998<329.276 353.733 329.276 356.706> 595.721 83.2998<186.456 208.926>
VStem: 44.4961 97.0195<133.322 173.048 133.322 181.994> 61.1572 96.04<353.66 363.95 353.66 388.455> 392.396 98.001<196.371 228.221 228.221 228.221>
LayerCount: 2
Fore
SplineSet
267.446289062 438.919921875 m 0xe5
 234.553710938 438.919921875 157.197265625 433.841796875 157.197265625 363.950195312 c 2
 157.197265625 353.66015625 l 1
 61.1572265625 353.66015625 l 1
 61.1572265625 363.950195312 l 2xe3
 61.1572265625 412.958984375 79.8720703125 452.512695312 116.954101562 481.010742188 c 0
 153.926757812 509.42578125 204.006835938 523.200195312 266.466796875 523.200195312 c 0
 337.401367188 523.200195312 392.838867188 507.489257812 431.887695312 474.948242188 c 0
 471.06640625 442.298828125 490.396484375 394.92578125 490.396484375 334.549804688 c 2
 490.396484375 -0.1201171875 l 1
 394.356445312 -0.1201171875 l 1
 394.356445312 45.4560546875 l 1
 357.908203125 10.859375 305.348632812 -6 238.045898438 -6 c 0
 176.314453125 -6 128.26953125 7.0498046875 94.7392578125 34.3583984375 c 0
 61.0947265625 61.759765625 44.49609375 101.651367188 44.49609375 152.26953125 c 0
 44.49609375 211.717773438 71.7412109375 305.639648438 243.92578125 305.639648438 c 2
 392.396484375 305.639648438 l 1
 392.396484375 332.58984375 l 2
 392.396484375 385.706054688 370.8359375 438.919921875 267.446289062 438.919921875 c 0xe5
254.706054688 76.3203125 m 0
 352.37109375 76.3203125 392.395507812 116.75 392.395507812 196.37109375 c 2
 392.395507812 228.220703125 l 1
 257.645507812 228.220703125 l 2
 160.543945312 228.220703125 141.515625 192.845703125 141.515625 153.25 c 0xe5
 141.515625 113.393554688 159.5859375 76.3203125 254.706054688 76.3203125 c 0
205.705078125 679.020507812 m 0xe9
 226.875 679.020507812 243.97265625 675.9375 278.493164062 658.684570312 c 0
 310.206054688 643.668945312 321.528320312 641.78125 337.0234375 641.78125 c 0
 370.442382812 641.78125 385.813476562 656.419921875 419.833007812 688.818359375 c 1
 419.833007812 598.12890625 l 1
 409.33203125 587.327148438 381.287109375 558.481445312 332.124023438 558.481445312 c 0xf1
 309.848632812 558.481445312 292.9453125 561.537109375 258.419921875 578.78515625 c 0
 224.735351562 593.936523438 217.047851562 595.720703125 200.8046875 595.720703125 c 0
 169.150390625 595.720703125 152.994140625 581.034179688 117.995117188 549.21875 c 1
 117.995117188 638.564453125 l 1
 143.165039062 662.4765625 167.20703125 679.020507812 205.705078125 679.020507812 c 0xe9
EndSplineSet
EndChar

